<?xml version="1.0" standalone="no"?>
<!DOCTYPE svg PUBLIC "-//W3C//DTD SVG 1.1//EN" "http://www.w3.org/Graphics/SVG/1.1/DTD/svg11.dtd" >
<svg>
<metadata>
Created by FontForge 20090622 at Thu Apr 21 18:43:12 2016
 By deploy user
Copyright(c) Yoon Design Institute
</metadata>
<defs>
<font id="YDIYGO110-KSCpc-EUC-H" horiz-adv-x="1000" >
  <font-face 
    font-family="YDIYGO110-KSCpc-EUC-H"
    font-weight="400"
    font-stretch="normal"
    units-per-em="1000"
    panose-1="2 3 5 4 0 1 1 1 1 1"
    ascent="800"
    descent="-200"
    x-height="470"
    cap-height="690"
    bbox="-0.533333 -249 1001 801"
    underline-thickness="40"
    underline-position="-180"
    unicode-range="U+0020-U+FFE6"
  />
<missing-glyph 
d="M109 -90v781h781v-781h-781zM158 -42h683v683h-683v-683z" />
    <glyph glyph-name=".notdef" 
d="M109 -90v781h781v-781h-781zM158 -42h683v683h-683v-683z" />
    <glyph glyph-name="space" unicode=" " horiz-adv-x="500" 
 />
    <glyph glyph-name="exclam" unicode="!" horiz-adv-x="293" 
d="M129 78h33l15 261v379h-63v-379zM190 -49h-89v-88h89v88z" />
    <glyph glyph-name="quotedbl" unicode="&#x22;" horiz-adv-x="274" 
d="M109 737h-55l18 -238h19zM217 737h-54l17 -238h20z" />
    <glyph glyph-name="numbersign" unicode="#" horiz-adv-x="552" 
d="M495 408l-2 39l-99 1l30 192h-45l-32 -192h-109l29 192h-46l-31 -192l-100 -1v-37l95 -2l-33 -204l-101 -1v-37l95 -2l-29 -190h45l32 190h109l-29 -190h46l31 190h106l-2 39l-98 1l33 204h105zM342 408l-34 -204h-109l33 204h110z" />
    <glyph glyph-name="dollar" unicode="$" horiz-adv-x="552" 
d="M380 302l-44 15t-39 11v250q67 -7 102.5 -47t35.5 -96l49 -2q0 46 -37.5 113t-149.5 74l-2 72h-37l-1 -72q-90 -5 -136 -54.5t-48 -105.5q-1 -61 31 -95t84 -56q17 -7 34.5 -12t34.5 -9v-259q-72 5 -114 48t-44 116h-47q2 -76 50 -138.5t155 -69.5l1 -63l39 -2v65
q94 5 142.5 50t54.5 111q5 53 -27.5 94.5t-86.5 61.5zM257 338q-7 2 -15.5 4t-16.5 5q-36 10 -70 37t-33 76q1 44 37 78t98 40v-240zM297 28v250l30.5 -7.5t30.5 -9.5q46 -18 67.5 -48t18.5 -71q-4 -43 -40.5 -76t-106.5 -38z" />
    <glyph glyph-name="percent" unicode="%" horiz-adv-x="795" 
d="M217 641q-68 0 -117.5 -49.5t-49.5 -117.5t49.5 -117.5t117.5 -49.5t117.5 49.5t49.5 117.5t-49.5 117.5t-117.5 49.5zM577 641h-41l-326 -668h44zM576 305q-68 0 -117 -49t-49 -117t49 -117.5t117 -49.5t118 49.5t50 117.5t-50 117t-118 49zM217 352q-52 0 -87 35
t-35 87q0 53 35 87.5t87 34.5t87 -34.5t35 -87.5q0 -52 -35 -87t-87 -35zM576 16q-52 0 -86.5 35.5t-34.5 87.5q0 53 34.5 87.5t86.5 34.5q53 0 88 -34.5t35 -87.5q0 -52 -35 -87.5t-88 -35.5z" />
    <glyph glyph-name="ampersand" unicode="&#x26;" horiz-adv-x="683" 
d="M627 -27l-105 116q26 35 43.5 95.5t21.5 111.5h-48q-3 -44 -14 -86.5t-35 -84.5l-82.5 91l-101.5 113q34 17 96.5 52.5t72.5 113.5q8 65 -36.5 114t-122.5 49q-80 0 -125.5 -45t-42.5 -112q2 -44 28.5 -84.5t54.5 -73.5q-50 -27 -106 -74t-58 -124q-2 -93 63 -141.5
t145 -48.5q56 0 114 26t102 69l69 -77h67zM275 364q-24 27 -51 63.5t-29 72.5q-2 40 27 77t96 37q53 0 84 -35.5t24 -83.5q-8 -54 -55 -81t-96 -50zM274 0q-65 0 -114 38.5t-48 102.5q2 68 52.5 104.5t97.5 62.5l109.5 -122.5t87.5 -100.5q-30 -34 -81.5 -59.5t-103.5 -25.5
z" />
    <glyph glyph-name="quotesingle" unicode="'" horiz-adv-x="215" 
d="M139 737h-64l17 -238h29z" />
    <glyph glyph-name="parenleft" unicode="(" horiz-adv-x="332" 
d="M231 -155h33q-70 122 -103 233t-33 213t33 213.5t103 232.5h-33q-41 -62 -98.5 -177.5t-57.5 -268.5t57.5 -268.5t98.5 -177.5z" />
    <glyph glyph-name="parenright" unicode=")" horiz-adv-x="325" 
d="M95 737h-33q71 -121 103.5 -232.5t32.5 -213.5t-32.5 -213t-103.5 -233h33q41 62 98.5 177.5t57.5 268.5t-57.5 268.5t-98.5 177.5z" />
    <glyph glyph-name="asterisk" unicode="*" horiz-adv-x="487" 
d="M256 554l129 -84l26 46l-140 71l140 72l-26 44l-130 -83l9 149h-53l9 -153l-129 85l-26 -44l135 -70l-136 -67l26 -45l129 84l-8 -159h53z" />
    <glyph glyph-name="plus" unicode="+" horiz-adv-x="681" 
d="M320 310h-272v-38h272v-272h39v272h271v38h-271v272h-39v-272z" />
    <glyph glyph-name="comma" unicode="," horiz-adv-x="293" 
d="M165 -22h-91v-89h53v-10.5t-9 -17.5q-6 -9 -20.5 -19.5t-22.5 -14.5l23 -25q16 8 32 24.5t22 29.5q7 15 10 24.5t3 31.5v66z" />
    <glyph glyph-name="hyphen" unicode="-" horiz-adv-x="656" 
d="M610 310h-562v-38h562v38z" />
    <glyph glyph-name="period" unicode="." horiz-adv-x="293" 
d="M164 -48h-91v-90h91v90z" />
    <glyph glyph-name="slash" unicode="/" horiz-adv-x="448" 
d="M406 718h-44l-320 -854h44z" />
    <glyph glyph-name="zero" unicode="0" horiz-adv-x="610" 
d="M304 669q-114 0 -174.5 -99t-60.5 -251q0 -151 60.5 -250t174.5 -99t175 99t61 250q0 152 -61 251t-175 99zM304 16q-89 0 -135 87t-46 216q0 130 46 217t135 87t136 -87t47 -217q0 -129 -47 -216t-136 -87z" />
    <glyph glyph-name="one" unicode="1" horiz-adv-x="391" 
d="M253 -12l-2 665h-36q0 -26 -12 -49t-32 -37q-25 -17 -46.5 -23.5t-45.5 -6.5v-38l127 -2l1 -508z" />
    <glyph glyph-name="two" unicode="2" horiz-adv-x="547" 
d="M502 -6l-2 39l-375 -1q5 43 25 88.5t74 82.5l108 74q56 39 98 78t47 118q5 77 -54.5 136t-156.5 59t-152.5 -65t-51.5 -136h44q-1 64 42.5 109t115.5 45q77 0 123 -44.5t42 -103.5q-3 -53 -35 -86t-75 -62l-111 -77q-100 -70 -116 -134t-20 -120h430z" />
    <glyph glyph-name="three" unicode="3" horiz-adv-x="569" 
d="M390 341q29 12 61 48.5t33 102.5q2 74 -56.5 126.5t-144.5 52.5q-101 0 -153.5 -59.5t-49.5 -122.5l48 -2q0 50 38 93.5t114 43.5q68 0 112 -37t42 -97q-2 -50 -31 -81t-71 -42q-23 -7 -50 -7h-46v-44q19 0 46 -1t51 -4q36 -5 81 -43.5t45 -98.5q-1 -66 -51 -109.5
t-124 -43.5q-94 0 -139.5 53t-44.5 112h-47q-2 -88 62.5 -150t165.5 -62q104 0 164.5 57t61.5 142q2 65 -36 109.5t-81 63.5z" />
    <glyph glyph-name="four" unicode="4" horiz-adv-x="576" 
d="M535 118l-1 40h-104l-2 495l-46 1l-326 -488l1 -48l324 -1l1 -128h48v128zM381 158h-277l277 418v-418z" />
    <glyph glyph-name="five" unicode="5" horiz-adv-x="569" 
d="M299 432q-44 4 -90.5 -10.5t-75.5 -42.5l29 225h313l-2 40h-350l-42 -344l39 -1q15 25 56.5 59.5t115.5 29.5q65 -4 116 -57t43 -142q-6 -69 -50.5 -120.5t-128.5 -51.5q-75 0 -119.5 50t-47.5 91h-46q8 -73 68 -130.5t151 -57.5q84 0 149.5 57t72.5 166q6 93 -53 162
t-148 77z" />
    <glyph glyph-name="six" unicode="6" horiz-adv-x="578" 
d="M325 425q-72 7 -125.5 -24t-79.5 -81q0 27 4 78.5t26 100.5q26 59 59.5 92t97.5 33q69 0 109 -40t51 -101h48q-7 68 -61 129t-146 59q-75 -1 -127.5 -45t-81.5 -120q-33 -85 -34.5 -196t18.5 -174q24 -75 81.5 -120.5t132.5 -45.5q92 0 153.5 61t67.5 160q5 91 -50 158.5
t-143 75.5zM297 16q-76 0 -123 51.5t-47 131.5t47 131.5t123 51.5t124.5 -51.5t48.5 -131.5t-48.5 -131.5t-124.5 -51.5z" />
    <glyph glyph-name="seven" unicode="7" horiz-adv-x="515" 
d="M475 644h-445v-40h388q-20 -31 -74.5 -123.5t-91.5 -170.5q-49 -105 -70.5 -195t-25.5 -133h61q2 50 24 138t59 177q32 77 93 180t82 130v37z" />
    <glyph glyph-name="eight" unicode="8" horiz-adv-x="586" 
d="M405 342q35 17 68.5 54.5t33.5 94.5q0 75 -57.5 128t-157.5 53t-157 -53t-57 -128q0 -57 33 -94.5t68 -54.5q-43 -19 -83.5 -66t-40.5 -110q0 -82 65.5 -139.5t171.5 -57.5q107 0 172.5 57.5t65.5 139.5q0 63 -40.5 110t-84.5 66zM292 366q-83 0 -122.5 38t-39.5 90
q0 53 39.5 91t122.5 38q80 0 122 -38t42 -91q0 -52 -42 -90t-122 -38zM292 18q-88 0 -137 43.5t-49 104.5q0 62 49 105.5t137 43.5q89 0 138 -43.5t49 -105.5q0 -61 -49 -104.5t-138 -43.5z" />
    <glyph glyph-name="nine" unicode="9" horiz-adv-x="578" 
d="M280 669q-91 0 -153.5 -60.5t-67.5 -159.5q-5 -91 50 -158.5t143 -75.5q73 -7 126.5 24.5t79.5 82.5q0 -26 -4 -78.5t-27 -103.5q-25 -58 -59.5 -91.5t-97.5 -33.5q-69 0 -109 40.5t-51 101.5h-48q8 -67 61.5 -128.5t145.5 -59.5q75 2 127 45.5t82 119.5q33 85 34 195.5
t-19 174.5q-23 75 -80.5 120t-132.5 45zM280 257q-76 0 -124.5 52t-48.5 132t48.5 130.5t124.5 50.5t123.5 -50.5t47.5 -130.5t-47.5 -132t-123.5 -52z" />
    <glyph glyph-name="colon" unicode=":" horiz-adv-x="283" 
d="M182 45v80h-83v-80h83zM183 457v80h-83v-80h83z" />
    <glyph glyph-name="semicolon" unicode=";" horiz-adv-x="283" 
d="M183 457v80h-83v-80h83zM182 133h-83v-82h48v-16t-6 -26q-4 -10 -19.5 -22.5t-23.5 -16.5l23 -23q14 6 30 22.5t23 32.5q7 15 7.5 33t0.5 40v58z" />
    <glyph glyph-name="less" unicode="&#x3c;" horiz-adv-x="458" 
d="M103 291l271 -446l37 24l-254 423l254 421l-37 24z" />
    <glyph glyph-name="equal" unicode="=" horiz-adv-x="660" 
d="M603 436h-547v-38h547v38zM604 184h-548v-39h548v39z" />
    <glyph glyph-name="greater" unicode="&#x3e;" horiz-adv-x="458" 
d="M349 291l-271 446l-37 -24l254 -421l-254 -423l37 -24z" />
    <glyph glyph-name="question" unicode="?" horiz-adv-x="613" 
d="M81 485h46q-5 76 39 133.5t139 57.5q72 0 129.5 -43t44.5 -130q-13 -96 -106.5 -141.5t-93.5 -159.5v-124h49v127q0 93 82.5 130t110.5 142q26 95 -38 168t-174 73q-124 0 -178.5 -73t-49.5 -160zM349 -49h-89v-88h89v88z" />
    <glyph glyph-name="at" unicode="@" horiz-adv-x="875" 
d="M657 649q-68 37 -155.5 46t-162.5 -11q-76 -20 -136 -70t-95 -100q-41 -59 -60.5 -123t-15.5 -135q2 -48 22.5 -103.5t54.5 -94.5q63 -73 130.5 -97.5t115.5 -30.5q56 -7 139 -1t141 37l-13 38q-67 -25 -142 -34t-146 8q-62 15 -106.5 41t-78.5 61q-25 26 -48.5 77
t-23.5 109q0 35 10.5 100t65.5 136q40 52 94.5 90.5t113.5 52.5q61 15 144.5 6.5t145.5 -46.5q44 -26 80 -72.5t47 -86.5q14 -49 12.5 -96.5t-23.5 -93.5q-16 -32 -40 -61.5t-52 -42.5q-15 -7 -37.5 -12.5t-38.5 -1.5q-19 5 -29 19.5t-1 45.5l79 288l-46 1l-16 -63
q-11 24 -40.5 45.5t-63.5 26.5q-43 6 -83.5 -8t-79.5 -49q-46 -43 -65 -89t-24 -81q-4 -31 0.5 -62.5t25.5 -58.5q23 -31 59 -43.5t58 -13.5q29 -1 69 11.5t76 48.5q3 -13 13.5 -28.5t29.5 -23.5q44 -19 77.5 -11t58.5 20q26 12 56.5 42.5t56.5 83.5q29 58 27.5 110t-9.5 88
q-16 68 -61 122.5t-110 89.5zM463 170q-23 -17 -53.5 -25t-51.5 -4q-43 8 -65 42t-17 80q5 42 23 79t46 65t60.5 44t75.5 6t59.5 -38t17.5 -53q2 -46 -25 -105t-70 -91z" />
    <glyph glyph-name="A" unicode="A" horiz-adv-x="673" 
d="M648 -14l-288 664h-47l-288 -663h49l84 191h358l83 -191zM498 218h-322l161 374z" />
    <glyph glyph-name="B" unicode="B" horiz-adv-x="651" 
d="M482 336q31 13 59.5 57.5t20.5 114.5q-7 60 -55.5 101t-137.5 41l-273 -1v-661h266q108 0 165.5 48t63.5 126q6 77 -37.5 120t-71.5 54zM379 354h-236v255h236q72 0 106 -39.5t34 -88.5q0 -46 -31.5 -86.5t-108.5 -40.5zM385 27h-242v286h245q63 0 109.5 -37t46.5 -99
q0 -67 -44.5 -108.5t-114.5 -41.5z" />
    <glyph glyph-name="C" unicode="C" horiz-adv-x="695" 
d="M642 457q-15 58 -82.5 134t-195.5 76q-135 0 -215 -98.5t-80 -249.5t80 -250t215 -99q132 0 195 76.5t77 132.5l-47 1q-14 -49 -69 -107t-156 -58q-110 0 -177 87t-67 217q0 129 67 216t176 87q101 0 157 -57t72 -107z" />
    <glyph glyph-name="D" unicode="D" horiz-adv-x="695" 
d="M312 650l-216 -1v-661h216q141 0 227 95t86 236t-86 236.5t-227 94.5zM304 27h-161v582h161q130 0 199 -84t69 -206q0 -113 -69 -202.5t-199 -89.5z" />
    <glyph glyph-name="E" unicode="E" horiz-adv-x="634" 
d="M571 -12v40l-428 -1v283h404v41h-404v258h419l-1 40h-465v-660z" />
    <glyph glyph-name="F" unicode="F" horiz-adv-x="596" 
d="M553 609v40h-457v-660l47 -1v309h367l-1 40h-366v272h410z" />
    <glyph glyph-name="G" unicode="G" horiz-adv-x="728" 
d="M644 -12v332h-270v-40h227v-51q0 -70 -62 -142t-177 -72q-106 0 -174 85.5t-68 215.5q0 133 68 219.5t176 86.5q95 0 152.5 -55.5t76.5 -108.5l50 -1q-16 56 -83 133t-196 77q-134 0 -214.5 -98.5t-80.5 -249.5t79.5 -250t215.5 -99q74 0 136 33.5t99 94.5l1 -109z" />
    <glyph glyph-name="H" unicode="H" horiz-adv-x="701" 
d="M606 -14l-1 663h-47l-1 -293h-414v293h-47v-662h47v328h414l1 -328z" />
    <glyph glyph-name="I" unicode="I" horiz-adv-x="238" 
d="M142 -12l-1 661h-45v-660z" />
    <glyph glyph-name="J" unicode="J" horiz-adv-x="490" 
d="M403 649h-50l1 -511q0 -71 -48.5 -96t-86.5 -25t-86.5 25t-48.5 96v57h-49l1 -51q2 -92 57 -133t126 -41t127.5 41t56.5 133v505z" />
    <glyph glyph-name="K" unicode="K" horiz-adv-x="661" 
d="M644 -13l-320 390l126.5 127t131.5 146h-63q-79 -91 -176 -188t-201 -189l-1 376h-45v-660h47v218q23 19 63 55.5l85 79.5l292 -355h61z" />
    <glyph glyph-name="L" unicode="L" horiz-adv-x="583" 
d="M546 -12l-1 39h-404v622h-45v-660z" />
    <glyph glyph-name="M" unicode="M" horiz-adv-x="800" 
d="M703 -14v663l-62 1l-242 -606l-242 606l-61 -1v-662l47 -1v579l229 -577h53l230 580l1 -581z" />
    <glyph glyph-name="N" unicode="N" horiz-adv-x="705" 
d="M607 -11v660h-47v-597l-411 598l-53 -1v-660l48 -1l-1 598l410 -598z" />
    <glyph glyph-name="O" unicode="O" horiz-adv-x="733" 
d="M365 667q-134 0 -215 -98.5t-81 -249.5t81 -250t215 -99q135 0 216.5 99t81.5 250t-81.5 249.5t-216.5 98.5zM365 15q-109 0 -177 87t-68 217q0 129 68 216t177 87q110 0 178.5 -87t68.5 -216q0 -130 -68.5 -217t-178.5 -87z" />
    <glyph glyph-name="P" unicode="P" horiz-adv-x="652" 
d="M375 650l-279 -1v-661h47v272h232q98 0 161.5 50.5t63.5 140.5q0 91 -63.5 145t-161.5 54zM377 301h-234v308h234q69 0 120.5 -39t51.5 -119q0 -76 -51.5 -113t-120.5 -37z" />
    <glyph glyph-name="Q" unicode="Q" horiz-adv-x="733" 
d="M365 667q-134 0 -215 -98.5t-81 -249.5t81 -250t215 -99q49 0 89.5 12.5t80.5 40.5l87 -71l25 32l-79 65q50 58 72.5 126t22.5 144q0 151 -81.5 249.5t-216.5 98.5zM529 82l-121 101l-26 -35l114 -94q-28 -20 -60.5 -29.5t-70.5 -9.5q-109 0 -177 87t-68 217
q0 129 68 216t177 87q110 0 178.5 -87t68.5 -216q0 -69 -22.5 -134t-60.5 -103z" />
    <glyph glyph-name="R" unicode="R" horiz-adv-x="670" 
d="M644 -12l-193 286q54 12 104 61.5t50 124.5q0 80 -58 135t-159 55l-292 -1v-660l47 -1v279h258l187 -279h56zM382 307h-239v304h239q63 0 117.5 -34t54.5 -117q0 -79 -54.5 -116t-117.5 -37z" />
    <glyph glyph-name="S" unicode="S" horiz-adv-x="626" 
d="M446 320q-58 21 -115.5 30.5t-90.5 19.5q-40 14 -77 40.5t-33 85.5q4 62 56 97.5t128 35.5q78 0 133.5 -49.5t53.5 -117.5h47q5 53 -47 132t-187 79q-118 0 -172.5 -57t-59.5 -120q-4 -64 35 -104t103 -59q47 -14 104 -25t100 -28q46 -18 75.5 -54t22.5 -84
q-8 -62 -70.5 -96t-132.5 -34q-89 0 -153 46t-62 143h-44q-6 -97 60.5 -165.5t196.5 -68.5q116 0 180 56t71 125q7 58 -27.5 104t-94.5 68z" />
    <glyph glyph-name="T" unicode="T" horiz-adv-x="589" 
d="M553 609v40h-516v-40h234l1 -627h48v627h233z" />
    <glyph glyph-name="U" unicode="U" horiz-adv-x="683" 
d="M593 649h-50l1 -442q0 -90 -55 -140t-148 -50t-147.5 50t-54.5 140v442h-47l-1 -454q0 -97 65.5 -161t184.5 -64q120 0 186 64t66 161v454z" />
    <glyph glyph-name="V" unicode="V" horiz-adv-x="688" 
d="M653 649l-47 1l-261 -603l-263 603l-46 -1l285 -661h46z" />
    <glyph glyph-name="W" unicode="W" horiz-adv-x="878" 
d="M843 650l-46 -1l-166 -598l-167 598h-52l-165 -598l-168 598h-46l189 -668h47l169 594l168 -594h48z" />
    <glyph glyph-name="X" unicode="X" horiz-adv-x="616" 
d="M588 -13l-253 338l239 324l-51 1l-105 -143t-109 -147l-112 151.5t-103 138.5l-52 -1l120 -162t119 -162l-252 -339l57 1l222 301q7 -8 111 -149l112 -152h57z" />
    <glyph glyph-name="Y" unicode="Y" horiz-adv-x="615" 
d="M583 649l-48 1l-227 -362l-228 362l-48 -1l252 -405l-1 -262h48l1 264z" />
    <glyph glyph-name="Z" unicode="Z" horiz-adv-x="594" 
d="M554 -12l-1 40l-450 -1l440 585l1 37h-475v-39l413 -1l-441 -582l1 -38z" />
    <glyph glyph-name="bracketleft" unicode="[" horiz-adv-x="361" 
d="M89 737v-892h185v39h-142v814h142v39h-185z" />
    <glyph glyph-name="backslash" unicode="\" horiz-adv-x="900" 
d="M891 361l1 40l-106 1l68 246l-46 1l-69 -247h-194l-70 247h-52l-70 -247h-194l-69 247l-46 -1l68 -246l-104 -1v-40h116l109 -380h47l108 380h122l107 -380h48l109 380h117zM497 402h-98l50 173zM728 361l-86 -310l-86 310h172zM343 361l-86 -310l-86 310h172z" />
    <glyph glyph-name="bracketright" unicode="]" horiz-adv-x="361" 
d="M268 737h-185v-39h142v-814h-142v-39h185v892z" />
    <glyph glyph-name="asciicircum" unicode="^" horiz-adv-x="536" 
d="M298 776h-58l-194 -407h48l175 368l174 -368h49z" />
    <glyph glyph-name="underscore" unicode="_" horiz-adv-x="500" 
d="M0 -161v-39h500v39h-500z" />
    <glyph glyph-name="grave" unicode="`" horiz-adv-x="250" 
 />
    <glyph glyph-name="a" unicode="a" horiz-adv-x="578" 
d="M511 -14q-1 2 -6.5 27.5t-5.5 53.5v259q0 77 -59.5 119.5t-145.5 42.5q-88 0 -149 -47t-57 -116h45q-1 56 47 87t114 31q74 0 114.5 -33.5t40.5 -77.5q0 -29 -29 -43t-52 -19q-42 -7 -96 -11.5t-98 -16.5q-49 -14 -83.5 -52t-30.5 -97q5 -60 58.5 -93t129.5 -29
q62 4 117.5 33.5t83.5 60.5q1 -25 5 -47.5t8 -30.5zM449 148q0 -49 -69.5 -88.5t-123.5 -44.5q-64 -5 -106 18t-43 69q-1 34 25 65t81 43q21 5 84 11.5t92 13.5q15 3 31.5 9t28.5 16v-112z" />
    <glyph glyph-name="b" unicode="b" horiz-adv-x="600" 
d="M320 488q-58 0 -104.5 -27.5t-72.5 -78.5v268h-47v-663h47v88q26 -49 72.5 -77.5t104.5 -28.5q99 0 158.5 76.5t59.5 183.5q0 110 -59 184.5t-159 74.5zM314 12q-79 0 -125.5 64t-46.5 153q0 90 46.5 153t125.5 63q80 0 127 -63t47 -153q0 -89 -47 -153t-127 -64z" />
    <glyph glyph-name="c" unicode="c" horiz-adv-x="563" 
d="M453 127q-15 -49 -58 -81t-103 -32q-80 0 -130 61.5t-50 153.5q0 93 50 153.5t130 60.5q77 0 115.5 -42t47.5 -78l48 1q-8 52 -63.5 108t-147.5 56q-107 0 -168 -75t-61 -184q0 -107 61 -183.5t168 -76.5q92 0 143.5 50.5t67.5 106.5z" />
    <glyph glyph-name="d" unicode="d" horiz-adv-x="599" 
d="M506 -14l-1 664h-47l-1 -269q-25 51 -72 79t-106 28q-99 0 -158 -74.5t-59 -184.5q0 -107 59 -183.5t158 -76.5q59 0 106 29t72 79l1 -90zM285 12q-79 0 -125.5 64t-46.5 153q0 90 46.5 153t125.5 63t126 -63t47 -153q0 -89 -47 -153t-126 -64z" />
    <glyph glyph-name="e" unicode="e" horiz-adv-x="580" 
d="M516 226q3 124 -64.5 194.5t-162.5 70.5q-104 0 -165 -76.5t-61 -183.5t61 -183.5t165 -77.5q92 -1 141 47t68 100l-50 1q-14 -44 -53 -74.5t-106 -30.5q-63 0 -120.5 58.5t-58.5 152.5zM112 264q1 76 54 130.5t123 53.5q67 0 122 -51t56 -133h-355z" />
    <glyph glyph-name="f" unicode="f" horiz-adv-x="283" 
d="M220 439l-1 40h-67v75q0 19 0.5 30.5t8.5 18.5q9 9 24 9h28v40l-44 -1q-17 -1 -30 -10t-21 -20q-9 -13 -11.5 -29.5t-2.5 -34.5v-78l-58 1v-41h58v-458l48 -1v459h68z" />
    <glyph glyph-name="g" unicode="g" horiz-adv-x="599" 
d="M503 470h-45l-1 -87q-27 50 -73 77.5t-106 27.5q-97 0 -156 -71.5t-59 -175.5t59 -176.5t156 -72.5q60 0 106.5 27t72.5 77v-85q0 -67 -43.5 -113.5t-117.5 -46.5q-73 0 -116 36.5t-51 82.5h-45q7 -51 56.5 -107.5t154.5 -56.5q94 0 152.5 58.5t57.5 146.5zM284 34
q-79 0 -125 61t-46 146q0 86 46 145t125 59q80 0 127 -59t47 -145q0 -85 -47 -146t-127 -61z" />
    <glyph glyph-name="h" unicode="h" horiz-adv-x="591" 
d="M503 -11v322q0 77 -50.5 127t-124.5 50q-71 0 -114.5 -25t-70.5 -61v248h-47v-661h47v320q0 38 48.5 86t123.5 48q62 0 101 -38t39 -102l1 -314h47z" />
    <glyph glyph-name="i" unicode="i" horiz-adv-x="238" 
d="M152 581v68h-66v-67zM144 -12l-1 497h-47v-496z" />
    <glyph glyph-name="j" unicode="j" horiz-adv-x="243" 
d="M162 582l-1 67h-65v-67h66zM152 485h-49l1 -572q0 -18 -1.5 -29.5t-9.5 -19.5q-7 -8 -22 -9t-26 -1v-39h37q19 0 34 9.5t22 22.5q8 13 11 29.5t3 34.5v574z" />
    <glyph glyph-name="k" unicode="k" horiz-adv-x="571" 
d="M538 -12l-256 314l206 175h-68l-277 -233v406h-47v-661h47v197l58 48.5l46 37.5l231 -284h60z" />
    <glyph glyph-name="l" unicode="l" horiz-adv-x="238" 
d="M144 -12l-1 662h-47v-661z" />
    <glyph glyph-name="m" unicode="m" horiz-adv-x="806" 
d="M719 -11v332q0 62 -38.5 114.5t-109.5 52.5t-110 -33t-52 -53q-11 30 -44.5 58t-80.5 28q-49 0 -84.5 -21.5t-57.5 -54.5v58h-46v-481h47v317q0 52 38 95t97 43q54 0 79.5 -39.5t25.5 -98.5l1 -317h47v317q0 58 38 98t97 40q54 0 79.5 -39.5t25.5 -98.5l1 -317h47z" />
    <glyph glyph-name="n" unicode="n" horiz-adv-x="591" 
d="M503 -11v322q0 77 -50.5 127t-124.5 50q-70 0 -114.5 -24.5t-70.5 -62.5v69h-47v-481h47v312q0 45 48.5 93.5t123.5 48.5q62 0 101 -38t39 -102l1 -314h47z" />
    <glyph glyph-name="o" unicode="o" horiz-adv-x="580" 
d="M290 488q-106 0 -166.5 -75t-60.5 -184q0 -107 60.5 -183.5t166.5 -76.5t167.5 76.5t61.5 183.5q0 109 -61.5 184t-167.5 75zM290 13q-79 0 -129 63t-50 153q0 91 50 153t129 62q80 0 130 -62t50 -153q0 -90 -50 -153t-130 -63z" />
    <glyph glyph-name="p" unicode="p" horiz-adv-x="600" 
d="M320 489q-58 0 -104.5 -27.5t-72.5 -77.5v86h-47v-652h47v259q26 -51 72.5 -79t104.5 -28q100 0 159 75t59 184t-59.5 184.5t-158.5 75.5zM314 13q-79 0 -125.5 63.5t-46.5 152.5q0 90 46.5 153.5t125.5 63.5q80 0 127 -63.5t47 -153.5q0 -89 -47 -152.5t-127 -63.5z" />
    <glyph glyph-name="q" unicode="q" horiz-adv-x="599" 
d="M504 -183l-1 653h-45l-1 -89q-25 51 -72 79.5t-106 28.5q-99 0 -158 -75.5t-59 -184.5t59 -184t158 -75q59 0 106 28.5t72 79.5l1 -262zM285 13q-79 0 -125.5 63.5t-46.5 152.5q0 90 46.5 153.5t125.5 63.5t126 -63.5t47 -153.5q0 -89 -47 -152.5t-126 -63.5z" />
    <glyph glyph-name="r" unicode="r" horiz-adv-x="376" 
d="M329 487q-19 2 -50.5 -3t-57.5 -19q-25 -13 -44.5 -30.5t-33.5 -38.5v74h-47v-481h47v286q0 57 21.5 87.5t60.5 57.5q24 17 54.5 19.5t49.5 2.5v45z" />
    <glyph glyph-name="s" unicode="s" horiz-adv-x="523" 
d="M365 232q-32 13 -71.5 19t-68.5 16q-23 8 -66 29t-40 61q4 47 46 69t97 22q65 0 106 -36t41 -83h47q4 50 -45.5 106.5t-147.5 56.5q-92 0 -138.5 -43.5t-50.5 -93.5q-4 -49 34 -76.5t76 -41.5q33 -12 75 -18t73 -17q36 -13 67.5 -35.5t25.5 -62.5q-7 -48 -57.5 -71
t-99.5 -23q-60 0 -115 29.5t-54 95.5h-47q-3 -55 47 -112t172 -56q92 1 142 43.5t57 97.5q7 54 -32 82.5t-73 41.5z" />
    <glyph glyph-name="t" unicode="t" horiz-adv-x="283" 
d="M221 439v41l-69 -1l-1 145h-47v-145l-58 1v-41h58v-356q0 -19 2 -35t11 -29q8 -12 21 -22t30 -10h44v41h-26t-24 8t-9.5 19t-0.5 30v354h69z" />
    <glyph glyph-name="u" unicode="u" horiz-adv-x="589" 
d="M494 -14v484h-48v-313q0 -44 -49 -93t-123 -49q-61 0 -100.5 38.5t-39.5 102.5v314h-49l1 -322q0 -77 50.5 -127.5t124.5 -50.5q69 0 114 26t71 63l-1 -72z" />
    <glyph glyph-name="v" unicode="v" horiz-adv-x="561" 
d="M509 472l-48 -1l-185 -416l-183 416l-50 1l212 -484h45z" />
    <glyph glyph-name="w" unicode="w" horiz-adv-x="754" 
d="M711 472l-46 -1l-131 -415l-133 415h-48l-133 -415l-130 415l-47 1l156 -484h45l134 408l132 -408h46z" />
    <glyph glyph-name="x" unicode="x" horiz-adv-x="526" 
d="M489 -12l-196 248l186 235h-58l-157 -198l-160 198h-57l187 -235l-196 -247l58 -1l168 210l166 -210h59z" />
    <glyph glyph-name="y" unicode="y" horiz-adv-x="540" 
d="M492 472h-50l-172 -408l-170 407h-50l195 -467l-45 -109q-7 -19 -17 -33.5t-31 -13.5l-30 1v-41l24 1q22 -1 33 2.5t24 11.5q17 11 26.5 28.5t19.5 41.5z" />
    <glyph glyph-name="z" unicode="z" horiz-adv-x="517" 
d="M464 -12l-1 40l-352 -1l335 407l-1 36h-363v-39h303l-330 -405l1 -37z" />
    <glyph glyph-name="braceleft" unicode="{" horiz-adv-x="400" 
d="M175 253q-10 16 -22.5 26t-23.5 12q11 2 23.5 12t22.5 26q11 17 15.5 39t4.5 60v184q0 25 7.5 43.5t24.5 30.5q15 10 34 11t55 1v39h-43q-30 0 -53 -10.5t-40 -31.5q-20 -23 -24.5 -50t-4.5 -65v-177q0 -22 -4.5 -38t-14.5 -26q-11 -10 -23.5 -16.5t-34.5 -6.5v-50
q22 0 34.5 -6.5t23.5 -17.5q10 -9 14.5 -25t4.5 -38v-177q0 -38 4.5 -65t24.5 -50q17 -21 40 -31.5t53 -10.5h43v39q-36 0 -55 1t-34 11q-17 12 -24.5 30.5t-7.5 43.5v184q0 38 -4.5 60t-15.5 39z" />
    <glyph glyph-name="bar" unicode="|" horiz-adv-x="371" 
d="M165 718v-854h39v854h-39z" />
    <glyph glyph-name="braceright" unicode="}" horiz-adv-x="400" 
d="M217 253q-10 -17 -15 -39t-5 -60v-184q0 -25 -7.5 -43.5t-24.5 -30.5q-15 -10 -34 -11t-55 -1v-39h43q30 0 52.5 11t39.5 31q20 24 25 50.5t5 64.5v177q0 22 4.5 38t14.5 25q11 11 23.5 17.5t34.5 6.5v50q-22 0 -34.5 6.5t-23.5 16.5q-10 10 -14.5 26t-4.5 38v177
q0 38 -5 64.5t-25 50.5q-17 20 -39.5 31t-52.5 11h-43v-39q36 0 55 -1t34 -11q17 -12 24.5 -30.5t7.5 -43.5v-184q0 -38 5 -60t15 -39q10 -16 23 -26t23 -12q-10 -2 -23 -12t-23 -26z" />
    <glyph glyph-name="asciitilde" unicode="~" horiz-adv-x="924" 
d="M117 239q6 56 49 121.5t138 57.5q80 -6 139 -102t163 -109q109 -13 165.5 57t72.5 156h-42q-15 -73 -58 -127.5t-126 -49.5q-94 5 -149.5 101.5t-158.5 108.5q-99 11 -163 -58t-69 -156h39z" />
    <glyph glyph-name="uni007F" horiz-adv-x="500" 
 />
    <glyph glyph-name="uniAC00" unicode="&#xac00;" 
d="M806 310h152v41h-152v389h-50v-880h50v450zM96 52l41 -31q167 83 281 238t133 371h-401v-40h345q-15 -157 -117.5 -307.5t-281.5 -230.5z" />
    <glyph glyph-name="uniAC01" unicode="&#xac01;" 
d="M220 149v-40h548v-249h50v289h-598zM818 439h140v41h-140v260h-50v-521h50v220zM140 630h360q-10 -123 -131 -228t-288 -145l33 -36q177 50 302.5 163t142.5 286h-419v-40z" />
    <glyph glyph-name="uniAC02" unicode="&#xac02;" 
 />
    <glyph glyph-name="uniAC03" unicode="&#xac03;" 
 />
    <glyph glyph-name="uniAC04" unicode="&#xac04;" 
d="M240 150v-270h612v40h-562v230h-50zM820 410h143v41h-143v289h-50v-640h50v310zM140 630h360q-2 -131 -125 -243t-294 -162l33 -36q191 68 312.5 188t132.5 293h-419v-40z" />
    <glyph glyph-name="uniAC05" unicode="&#xac05;" 
 />
    <glyph glyph-name="uniAC06" unicode="&#xac06;" 
 />
    <glyph glyph-name="uniAC07" unicode="&#xac07;" 
d="M820 453h139v40h-139v247h-50v-503h50v216zM841 -130v40h-551v232h531v40h-581v-312h601zM137 630h360q-10 -123 -131 -228t-288 -145l33 -36q177 50 302.5 163t142.5 286h-419v-40z" />
    <glyph glyph-name="uniAC08" unicode="&#xac08;" 
d="M820 469h140v40h-140v231h-50v-470h50v199zM846 -130v40h-556v119h530v195h-580v-40h530v-115h-530v-199h606zM137 629h360q-2 -105 -122 -202t-287 -135l33 -36q177 54 304.5 158t130.5 255h-419v-40z" />
    <glyph glyph-name="uniAC09" unicode="&#xac09;" 
d="M820 469h140v40h-140v231h-50v-466h50v195zM770 -140h50v364h-270v-40h220v-324zM551 -118v40q-19 -4 -106.5 -7.5t-117.5 -3.5h-57v118h250v195h-300v-40h250v-115h-250v-199h107q30 0 118 4t106 8zM136 630h365q-20 -111 -133.5 -199t-280.5 -130l33 -36
q177 52 301 157.5t139 247.5h-424v-40z" />
    <glyph glyph-name="uniAC0A" unicode="&#xac0a;" 
d="M601 184h169v-274h-169v274zM820 -130v354h-269v-354h269zM820 509v231h-50v-468h50v197h140v40h-140zM514 -118v40q-19 -4 -88 -7.5t-99 -3.5h-57v118h234v195h-284v-40h234v-115h-234v-199h107q30 0 99.5 4t87.5 8zM136 630h365q-20 -111 -133.5 -199t-280.5 -130
l33 -36q177 52 301 157.5t139 247.5h-424v-40z" />
    <glyph glyph-name="uniAC0B" unicode="&#xac0b;" 
 />
    <glyph glyph-name="uniAC0C" unicode="&#xac0c;" 
 />
    <glyph glyph-name="uniAC0D" unicode="&#xac0d;" 
 />
    <glyph glyph-name="uniAC0E" unicode="&#xac0e;" 
 />
    <glyph glyph-name="uniAC0F" unicode="&#xac0f;" 
 />
    <glyph glyph-name="uniAC10" unicode="&#xac10;" 
d="M290 140h480v-230h-480v230zM820 -130v310h-580v-310h580zM820 449h139v40h-139v251h-50v-500h50v209zM140 630h360q-10 -123 -131 -228t-288 -145l33 -36q177 50 302.5 163t142.5 286h-419v-40z" />
    <glyph glyph-name="uniAC11" unicode="&#xac11;" 
d="M290 58h480v-148h-480v148zM820 -130v344h-50v-116h-480v116h-50v-344h580zM820 459h140v40h-140v241h-50v-476h50v195zM140 629h362q-14 -97 -130 -192.5t-283 -133.5l33 -36q177 54 300 158.5t139 243.5h-421v-40z" />
    <glyph glyph-name="uniAC12" unicode="&#xac12;" 
d="M960 469v40h-140v231h-50v-494h50v223h140zM136 630h365q-20 -111 -133.5 -199t-280.5 -130l33 -36q177 52 301 157.5t139 247.5h-424v-40zM535 -130v344h-51v-120h-214v120h-50v-344h315zM733 61q15 -64 61 -121.5t89 -80.5l34 27q-70 40 -114.5 115t-44.5 174v39h-50
v-39q0 -99 -41.5 -172t-117.5 -117l34 -27q43 23 89 80.5t61 121.5zM484 -90h-214v144h214v-144z" />
    <glyph glyph-name="uniAC13" unicode="&#xac13;" 
d="M960 422v40h-140v278h-50v-604h50v286h140zM565 211h-60v-12q0 -92 -90.5 -179t-223.5 -125l38 -35q76 19 177 95.5t129 155.5q29 -79 129.5 -155.5t176.5 -95.5l38 35q-133 38 -223.5 125t-90.5 179v12zM140 630h360q-10 -123 -129.5 -243.5t-286.5 -160.5l33 -36
q177 50 301 178.5t141 301.5h-419v-40z" />
    <glyph glyph-name="uniAC14" unicode="&#xac14;" 
d="M959 461v40h-139v239h-50v-508h50v229h139zM137 629h360q-10 -123 -131 -228t-288 -145l33 -36q177 50 302.5 163t142.5 286h-419v-40zM544 -141q59 35 104.5 97t63.5 111q11 -49 62 -111.5t110 -94.5l34 31q-86 47 -133.5 123.5t-47.5 164.5v12h-50v-12
q0 -88 -45 -158.5t-99 -111.5q-54 41 -98.5 111.5t-44.5 158.5v12h-50v-12q0 -88 -47.5 -164.5t-133.5 -123.5l34 -31q59 32 110 94.5t62 111.5q18 -49 64 -112.5t105 -95.5z" />
    <glyph glyph-name="uniAC15" unicode="&#xac15;" 
d="M526 138q108 0 184 -33.5t76 -95.5q0 -60 -76.5 -93.5t-183.5 -33.5q-106 0 -184 33.5t-78 93.5q0 62 77.5 95.5t184.5 33.5zM525 181q-144 0 -229 -48.5t-85 -122.5t85 -122t229 -48q146 0 230 48t84 122t-84 122.5t-230 48.5zM820 449h139v40h-139v251h-50v-541h50v250
zM137 629h360q-10 -123 -131 -228t-288 -145l33 -36q177 50 302.5 163t142.5 286h-419v-40z" />
    <glyph glyph-name="uniAC16" unicode="&#xac16;" 
d="M959 463v40h-139v237h-50v-507h50v230h139zM137 629h360q-2 -105 -122 -202t-287 -135l33 -36q177 54 304.5 158t130.5 255h-419v-40zM557 133v15h278v40h-608v-40h279v-15q0 -75 -118 -149t-203 -85l35 -36q83 17 181 79.5t131 123.5q33 -61 131 -123.5t180 -79.5l35 36
q-85 11 -203 85t-118 149z" />
    <glyph glyph-name="uniAC17" unicode="&#xac17;" 
d="M959 463v40h-139v237h-50v-516h50v239h139zM687 225v40h-321v-40h321zM877 -101q-73 1 -195 56t-126 127v11h282v41h-618v-41h282v-11q-4 -72 -126 -127t-195 -56l35 -39q82 8 179 55t134 106q37 -59 134 -106t179 -55zM136 630h365q-20 -111 -133.5 -199t-280.5 -130
l33 -36q177 52 301 157.5t139 247.5h-424v-40z" />
    <glyph glyph-name="uniAC18" unicode="&#xac18;" 
 />
    <glyph glyph-name="uniAC19" unicode="&#xac19;" 
d="M820 469h140v40h-140v231h-50v-466h50v195zM290 -90v118h527v40h-527v110h530v40h-580v-348h601v40h-551zM137 629h360q-2 -105 -122 -202t-287 -135l33 -36q177 54 304.5 158t130.5 255h-419v-40z" />
    <glyph glyph-name="uniAC1A" unicode="&#xac1a;" 
d="M960 469v40h-140v231h-50v-490h50v219h140zM867 -130v40h-145l19 244h114v40h-637v-40h114l19 -244h-143v-40h659zM691 154l-18 -244h-273l-18 244h309zM136 630h365q-20 -111 -133.5 -199t-280.5 -130l33 -36q177 52 301 157.5t139 247.5h-424v-40z" />
    <glyph glyph-name="uniAC1B" unicode="&#xac1b;" 
d="M532 34q105 0 170.5 -22.5t65.5 -55.5q0 -31 -65.5 -52.5t-170.5 -21.5q-106 0 -171 21.5t-65 52.5q0 33 65 55.5t171 22.5zM532 69q-142 0 -217 -32t-75 -80q0 -49 75 -80.5t217 -31.5q143 0 217.5 31.5t74.5 80.5q0 48 -74.5 80t-217.5 32zM820 479h140v40h-140v221
h-50v-500h50v239zM181 159v-40h697v40h-697zM364 270v-40h326v40h-326zM136 630h365q-20 -111 -133.5 -199t-280.5 -130l33 -36q177 52 301 157.5t139 247.5h-424v-40z" />
    <glyph glyph-name="uniAC1C" unicode="&#xac1c;" 
d="M431 580q-9 -184 -104.5 -316.5t-233.5 -213.5l44 -31q130 79 236 228t114 373h-337v-40h281zM810 373h-150v347h-50v-820h50v431h150v-471h50v880h-50v-367z" />
    <glyph glyph-name="uniAC1D" unicode="&#xac1d;" 
d="M140 625h291q-5 -110 -101 -219t-254 -158l37 -34q143 52 250 159.5t129 291.5h-352v-40zM235 139v-40h572v-239h50v279h-622zM810 502h-150v223h-50v-520h50v255h150v-255h50v535h-50v-238z" />
    <glyph glyph-name="uniAC1E" unicode="&#xac1e;" 
 />
    <glyph glyph-name="uniAC1F" unicode="&#xac1f;" 
 />
    <glyph glyph-name="uniAC20" unicode="&#xac20;" 
d="M250 150v-270h630v40h-580v230h-50zM810 462h-150v263h-50v-610h50v305h150v-325h50v645h-50v-278zM140 625h291q-10 -124 -100.5 -232t-255.5 -169l37 -34q156 66 255.5 173t124.5 302h-352v-40z" />
    <glyph glyph-name="uniAC21" unicode="&#xac21;" 
 />
    <glyph glyph-name="uniAC22" unicode="&#xac22;" 
 />
    <glyph glyph-name="uniAC23" unicode="&#xac23;" 
 />
    <glyph glyph-name="uniAC24" unicode="&#xac24;" 
d="M140 627h291q-10 -82 -96 -186.5t-264 -154.5l33 -33q179 54 274 169t114 245h-352v-40zM881 -130v40h-581v119h557v195h-607v-40h557v-115h-557v-199h631zM810 522h-150v203h-50v-451h50v205h150v-205h50v466h-50v-218z" />
    <glyph glyph-name="uniAC25" unicode="&#xac25;" 
 />
    <glyph glyph-name="uniAC26" unicode="&#xac26;" 
 />
    <glyph glyph-name="uniAC27" unicode="&#xac27;" 
 />
    <glyph glyph-name="uniAC28" unicode="&#xac28;" 
 />
    <glyph glyph-name="uniAC29" unicode="&#xac29;" 
 />
    <glyph glyph-name="uniAC2A" unicode="&#xac2a;" 
 />
    <glyph glyph-name="uniAC2B" unicode="&#xac2b;" 
 />
    <glyph glyph-name="uniAC2C" unicode="&#xac2c;" 
d="M300 140h507v-230h-507v230zM857 -130v310h-607v-310h607zM810 506h-150v219h-50v-495h50v234h150v-234h50v510h-50v-234zM140 625h291q-5 -110 -101 -219t-254 -158l37 -34q143 52 250 159.5t129 291.5h-352v-40z" />
    <glyph glyph-name="uniAC2D" unicode="&#xac2d;" 
d="M300 49h507v-139h-507v139zM857 -130v344h-50v-125h-507v125h-50v-344h607zM810 520h-150v205h-50v-461h50v214h150v-214h50v476h-50v-220zM140 627h291q-10 -82 -96 -186.5t-264 -154.5l33 -33q179 54 274 169t114 245h-352v-40z" />
    <glyph glyph-name="uniAC2E" unicode="&#xac2e;" 
 />
    <glyph glyph-name="uniAC2F" unicode="&#xac2f;" 
d="M810 487h-150v238h-50v-540h50v260h150v-310h50v605h-50v-253zM560 196h-60v-12q0 -92 -90.5 -171t-223.5 -117l38 -35q76 19 177 87.5t129 147.5q29 -79 129.5 -147.5t176.5 -87.5l38 35q-133 38 -223.5 117t-90.5 171v12zM142 625h291q-10 -124 -100.5 -232
t-255.5 -169l37 -34q156 66 255.5 173t124.5 302h-352v-40z" />
    <glyph glyph-name="uniAC30" unicode="&#xac30;" 
d="M810 506h-150v219h-50v-494h50v233h150v-233h50v509h-50v-234zM140 625h291q-5 -110 -101 -219t-254 -158l37 -34q143 52 250 159.5t129 291.5h-352v-40zM550 -141q59 35 104.5 97t63.5 111q11 -49 62 -111.5t110 -94.5l34 31q-86 47 -133.5 123.5t-47.5 164.5v12h-50
v-12q0 -88 -45 -158.5t-99 -111.5q-54 41 -98.5 111.5t-44.5 158.5v12h-50v-12q0 -88 -47.5 -164.5t-133.5 -123.5l34 -31q59 32 110 94.5t62 111.5q18 -49 64 -112.5t105 -95.5z" />
    <glyph glyph-name="uniAC31" unicode="&#xac31;" 
d="M542 137q108 0 189.5 -33.5t81.5 -95.5q0 -60 -81 -93.5t-190 -33.5t-190 33.5t-81 93.5q0 62 81 95.5t190 33.5zM542 180q-146 0 -235 -48.5t-89 -122.5t89.5 -122t234.5 -48q146 0 235 48t89 122t-89.5 122.5t-234.5 48.5zM810 513h-150v212h-50v-493h50v239h150v-269
h50v538h-50v-227zM140 625h291q-5 -110 -101 -219t-254 -158l37 -34q143 52 250 159.5t129 291.5h-352v-40z" />
    <glyph glyph-name="uniAC32" unicode="&#xac32;" 
 />
    <glyph glyph-name="uniAC33" unicode="&#xac33;" 
 />
    <glyph glyph-name="uniAC34" unicode="&#xac34;" 
 />
    <glyph glyph-name="uniAC35" unicode="&#xac35;" 
 />
    <glyph glyph-name="uniAC36" unicode="&#xac36;" 
 />
    <glyph glyph-name="uniAC37" unicode="&#xac37;" 
 />
    <glyph glyph-name="uniAC38" unicode="&#xac38;" 
d="M796 456h159v40h-159v244h-50v-880h50v326h159v40h-159v230zM85 52l41 -31q167 83 281 238t133 371h-401v-40h345q-15 -157 -117.5 -307.5t-281.5 -230.5z" />
    <glyph glyph-name="uniAC39" unicode="&#xac39;" 
d="M810 553h139v40h-139v147h-50v-521h50v139h139v40h-139v155zM210 149v-40h548v-249h50v289h-598zM127 630h360q-10 -123 -131 -228t-288 -145l33 -36q177 50 302.5 163t142.5 286h-419v-40z" />
    <glyph glyph-name="uniAC3A" unicode="&#xac3a;" 
 />
    <glyph glyph-name="uniAC3B" unicode="&#xac3b;" 
 />
    <glyph glyph-name="uniAC3C" unicode="&#xac3c;" 
d="M230 150v-270h612v40h-562v230h-50zM810 533h139v40h-139v167h-50v-640h50v209h139v40h-139v184zM128 630h360q-2 -131 -125 -243t-294 -162l33 -36q191 68 312.5 188t132.5 293h-419v-40z" />
    <glyph glyph-name="uniAC3D" unicode="&#xac3d;" 
 />
    <glyph glyph-name="uniAC3E" unicode="&#xac3e;" 
 />
    <glyph glyph-name="uniAC3F" unicode="&#xac3f;" 
 />
    <glyph glyph-name="uniAC40" unicode="&#xac40;" 
d="M810 568h139v40h-139v132h-50v-466h50v117h139v40h-139v137zM833 -130v40h-553v119h530v195h-580v-40h530v-115h-530v-199h603zM130 629h355q-2 -105 -122 -202t-287 -135l33 -36q177 54 304.5 158t130.5 255h-414v-40z" />
    <glyph glyph-name="uniAC41" unicode="&#xac41;" 
 />
    <glyph glyph-name="uniAC42" unicode="&#xac42;" 
 />
    <glyph glyph-name="uniAC43" unicode="&#xac43;" 
 />
    <glyph glyph-name="uniAC44" unicode="&#xac44;" 
 />
    <glyph glyph-name="uniAC45" unicode="&#xac45;" 
 />
    <glyph glyph-name="uniAC46" unicode="&#xac46;" 
 />
    <glyph glyph-name="uniAC47" unicode="&#xac47;" 
 />
    <glyph glyph-name="uniAC48" unicode="&#xac48;" 
 />
    <glyph glyph-name="uniAC49" unicode="&#xac49;" 
 />
    <glyph glyph-name="uniAC4A" unicode="&#xac4a;" 
 />
    <glyph glyph-name="uniAC4B" unicode="&#xac4b;" 
d="M810 548h139v40h-139v152h-50v-604h50v202h139v40h-139v170zM127 630h360q-10 -123 -129.5 -243.5t-286.5 -160.5l33 -36q177 50 301 178.5t141 301.5h-419v-40zM557 211h-60v-12q0 -92 -90.5 -179t-223.5 -125l38 -35q76 19 177 95.5t129 155.5q29 -79 129.5 -155.5
t176.5 -95.5l38 35q-133 38 -223.5 125t-90.5 179v12z" />
    <glyph glyph-name="uniAC4C" unicode="&#xac4c;" 
 />
    <glyph glyph-name="uniAC4D" unicode="&#xac4d;" 
d="M810 563h139v40h-139v137h-50v-541h50v167h139v40h-139v157zM127 630h360q-10 -123 -131 -228t-288 -145l33 -36q177 50 302.5 163t142.5 286h-419v-40zM516 138q108 0 184 -33.5t76 -95.5q0 -60 -76.5 -93.5t-183.5 -33.5q-106 0 -184 33.5t-78 93.5q0 62 77.5 95.5
t184.5 33.5zM515 181q-144 0 -229 -48.5t-85 -122.5t85 -122t229 -48q146 0 230 48t84 122t-84 122.5t-230 48.5z" />
    <glyph glyph-name="uniAC4E" unicode="&#xac4e;" 
 />
    <glyph glyph-name="uniAC4F" unicode="&#xac4f;" 
 />
    <glyph glyph-name="uniAC50" unicode="&#xac50;" 
 />
    <glyph glyph-name="uniAC51" unicode="&#xac51;" 
 />
    <glyph glyph-name="uniAC52" unicode="&#xac52;" 
 />
    <glyph glyph-name="uniAC53" unicode="&#xac53;" 
 />
    <glyph glyph-name="uniAC54" unicode="&#xac54;" 
d="M815 201v-341h50v880h-50v-239h-150v219h-50v-820h50v301h150zM665 241v219h150v-219h-150zM434 580q-9 -184 -104.5 -316.5t-233.5 -213.5l44 -31q130 79 236 228t114 373h-335v-40h279z" />
    <glyph glyph-name="uniAC55" unicode="&#xac55;" 
 />
    <glyph glyph-name="uniAC56" unicode="&#xac56;" 
 />
    <glyph glyph-name="uniAC57" unicode="&#xac57;" 
 />
    <glyph glyph-name="uniAC58" unicode="&#xac58;" 
d="M255 150v-270h645v40h-595v230h-50zM815 520v-156h-150v156h150zM665 560v165h-50v-620h50v219h150v-239h50v655h-50v-180h-150zM145 625h291q-10 -124 -100.5 -232t-255.5 -169l37 -34q156 66 255.5 173t124.5 302h-352v-40z" />
    <glyph glyph-name="uniAC59" unicode="&#xac59;" 
 />
    <glyph glyph-name="uniAC5A" unicode="&#xac5a;" 
 />
    <glyph glyph-name="uniAC5B" unicode="&#xac5b;" 
 />
    <glyph glyph-name="uniAC5C" unicode="&#xac5c;" 
d="M897 -130v40h-592v119h557v195h-607v-40h557v-115h-557v-199h642zM815 431h-150v133h150v-133zM815 604h-150v121h-50v-451h50v117h150v-117h50v466h-50v-136zM146 627h291q-10 -82 -96 -186.5t-264 -154.5l33 -33q179 54 274 169t114 245h-352v-40z" />
    <glyph glyph-name="uniAC5D" unicode="&#xac5d;" 
 />
    <glyph glyph-name="uniAC5E" unicode="&#xac5e;" 
 />
    <glyph glyph-name="uniAC5F" unicode="&#xac5f;" 
 />
    <glyph glyph-name="uniAC60" unicode="&#xac60;" 
 />
    <glyph glyph-name="uniAC61" unicode="&#xac61;" 
 />
    <glyph glyph-name="uniAC62" unicode="&#xac62;" 
 />
    <glyph glyph-name="uniAC63" unicode="&#xac63;" 
 />
    <glyph glyph-name="uniAC64" unicode="&#xac64;" 
 />
    <glyph glyph-name="uniAC65" unicode="&#xac65;" 
 />
    <glyph glyph-name="uniAC66" unicode="&#xac66;" 
 />
    <glyph glyph-name="uniAC67" unicode="&#xac67;" 
 />
    <glyph glyph-name="uniAC68" unicode="&#xac68;" 
 />
    <glyph glyph-name="uniAC69" unicode="&#xac69;" 
 />
    <glyph glyph-name="uniAC6A" unicode="&#xac6a;" 
 />
    <glyph glyph-name="uniAC6B" unicode="&#xac6b;" 
 />
    <glyph glyph-name="uniAC6C" unicode="&#xac6c;" 
 />
    <glyph glyph-name="uniAC6D" unicode="&#xac6d;" 
 />
    <glyph glyph-name="uniAC6E" unicode="&#xac6e;" 
 />
    <glyph glyph-name="uniAC6F" unicode="&#xac6f;" 
 />
    <glyph glyph-name="uniAC70" unicode="&#xac70;" 
d="M800 320v-460h50v880h-50v-378h-210v-42h210zM107 52l41 -31q167 83 281 238t133 371h-401v-40h345q-15 -157 -117.5 -307.5t-281.5 -230.5z" />
    <glyph glyph-name="uniAC71" unicode="&#xac71;" 
d="M800 483h-210v-41h210v-223h50v521h-50v-257zM230 149v-40h568v-249h50v289h-618zM150 629h360q-10 -123 -131 -228t-288 -145l33 -36q177 50 302.5 163t142.5 286h-419v-40z" />
    <glyph glyph-name="uniAC72" unicode="&#xac72;" 
 />
    <glyph glyph-name="uniAC73" unicode="&#xac73;" 
 />
    <glyph glyph-name="uniAC74" unicode="&#xac74;" 
d="M250 150v-270h635v40h-585v230h-50zM800 455h-210v-41h210v-314h50v640h-50v-285zM150 630h360q-2 -131 -125 -243t-294 -162l33 -36q191 68 312.5 188t132.5 293h-419v-40z" />
    <glyph glyph-name="uniAC75" unicode="&#xac75;" 
 />
    <glyph glyph-name="uniAC76" unicode="&#xac76;" 
 />
    <glyph glyph-name="uniAC77" unicode="&#xac77;" 
d="M800 496h-210v-41h210v-214h50v499h-50v-244zM869 -130v40h-569v232h547v40h-597v-312h619zM148 630h360q-10 -123 -131 -228t-288 -145l33 -36q177 50 302.5 163t142.5 286h-419v-40z" />
    <glyph glyph-name="uniAC78" unicode="&#xac78;" 
d="M800 496h-210v-41h210v-181h50v466h-50v-244zM872 -130v40h-572v119h547v195h-597v-40h547v-115h-547v-199h622zM150 629h360q-10 -106 -126 -202.5t-283 -134.5l33 -36q177 54 301 158t134 255h-419v-40z" />
    <glyph glyph-name="uniAC79" unicode="&#xac79;" 
 />
    <glyph glyph-name="uniAC7A" unicode="&#xac7a;" 
d="M615 184h182v-274h-182v274zM847 -130v354h-282v-354h282zM800 496h-210v-41h210v-177h50v462h-50v-244zM528 -118v40q-19 -4 -90.5 -7.5t-101.5 -3.5h-57v118h239v195h-289v-40h239v-115h-239v-199h107q30 0 102 4t90 8zM146 630h365q-20 -111 -133.5 -199t-280.5 -130
l33 -36q177 52 301 157.5t139 247.5h-424v-40z" />
    <glyph glyph-name="uniAC7B" unicode="&#xac7b;" 
 />
    <glyph glyph-name="uniAC7C" unicode="&#xac7c;" 
 />
    <glyph glyph-name="uniAC7D" unicode="&#xac7d;" 
 />
    <glyph glyph-name="uniAC7E" unicode="&#xac7e;" 
 />
    <glyph glyph-name="uniAC7F" unicode="&#xac7f;" 
 />
    <glyph glyph-name="uniAC80" unicode="&#xac80;" 
d="M300 140h497v-230h-497v230zM847 -130v310h-597v-310h597zM800 493h-210v-41h210v-214h50v502h-50v-247zM148 629h360q-10 -123 -131 -228t-288 -145l33 -36q177 50 302.5 163t142.5 286h-419v-40z" />
    <glyph glyph-name="uniAC81" unicode="&#xac81;" 
d="M300 69h497v-159h-497v159zM847 -130v344h-50v-105h-497v105h-50v-344h597zM800 507h-210v-41h210v-202h50v476h-50v-233zM146 630h365q-20 -111 -133.5 -199t-280.5 -130l33 -36q177 52 301 157.5t139 247.5h-424v-40z" />
    <glyph glyph-name="uniAC82" unicode="&#xac82;" 
 />
    <glyph glyph-name="uniAC83" unicode="&#xac83;" 
d="M800 483h-210v-40h210v-306h50v603h-50v-257zM152 630h360q-10 -123 -129.5 -243.5t-286.5 -160.5l33 -36q177 50 301 178.5t141 301.5h-419v-40zM585 210h-60v-12q0 -92 -90.5 -179t-223.5 -125l38 -35q76 19 177 95.5t129 155.5q29 -79 129.5 -155.5t176.5 -95.5l38 35
q-133 38 -223.5 125t-90.5 179v12z" />
    <glyph glyph-name="uniAC84" unicode="&#xac84;" 
d="M801 489h-210v-43h210v-214h50v508h-50v-251zM147 629h360q-10 -123 -131 -228t-288 -145l33 -36q177 50 302.5 163t142.5 286h-419v-40zM559 -141q59 35 104.5 97t63.5 111q11 -49 62 -111.5t110 -94.5l34 31q-86 47 -133.5 123.5t-47.5 164.5v12h-50v-12
q0 -88 -45 -158.5t-99 -111.5q-54 41 -98.5 111.5t-44.5 158.5v12h-50v-12q0 -88 -47.5 -164.5t-133.5 -123.5l34 -31q59 32 110 94.5t62 111.5q18 -49 64 -112.5t105 -95.5z" />
    <glyph glyph-name="uniAC85" unicode="&#xac85;" 
d="M800 484h-210v-41h210v-244h50v541h-50v-256zM541 138q114 0 189.5 -33.5t75.5 -95.5q0 -60 -75.5 -93.5t-189.5 -33.5q-115 0 -191 33.5t-76 93.5q0 62 76 95.5t191 33.5zM540 181q-154 0 -236.5 -48.5t-82.5 -122.5t82.5 -122t236.5 -48q155 0 237 48t82 122t-82 122.5
t-237 48.5zM148 629h360q-10 -123 -131 -228t-288 -145l33 -36q177 50 302.5 163t142.5 286h-419v-40z" />
    <glyph glyph-name="uniAC86" unicode="&#xac86;" 
d="M800 497h-210v-40h210v-224h50v507h-50v-243zM146 630h365q-20 -111 -133.5 -199t-280.5 -130l33 -36q177 52 301 157.5t139 247.5h-424v-40zM571 133v15h284v40h-614v-40h279v-15q0 -75 -118 -149t-203 -85l35 -36q83 17 181 79.5t131 123.5q33 -61 131 -123.5
t180 -79.5l35 36q-85 11 -203 85t-118 149z" />
    <glyph glyph-name="uniAC87" unicode="&#xac87;" 
 />
    <glyph glyph-name="uniAC88" unicode="&#xac88;" 
 />
    <glyph glyph-name="uniAC89" unicode="&#xac89;" 
d="M800 495h-210v-40h210v-181h50v466h-50v-245zM300 -90v119h547v39h-547v110h550v40h-600v-348h616v40h-566zM146 630h365q-20 -111 -133.5 -199t-280.5 -130l33 -36q177 52 301 157.5t139 247.5h-424v-40z" />
    <glyph glyph-name="uniAC8A" unicode="&#xac8a;" 
d="M800 494h-210v-40h210v-204h50v490h-50v-246zM877 -130v40h-147l21 244h114v40h-637v-40h114l21 -244h-145v-40h659zM701 154l-20 -244h-269l-20 244h309zM146 630h365q-20 -111 -133.5 -199t-280.5 -130l33 -36q177 52 301 157.5t139 247.5h-424v-40z" />
    <glyph glyph-name="uniAC8B" unicode="&#xac8b;" 
d="M800 509h-210v-40h210v-224h50v495h-50v-231zM146 630h365q-20 -111 -133.5 -199t-280.5 -130l33 -36q177 52 301 157.5t139 247.5h-424v-40zM552 34q105 0 172 -22.5t67 -55.5q0 -31 -67 -52.5t-172 -21.5q-106 0 -172.5 21.5t-66.5 52.5q0 33 66.5 55.5t172.5 22.5z
M552 69q-142 0 -218.5 -32t-76.5 -80q0 -49 76.5 -80.5t218.5 -31.5q143 0 219 31.5t76 80.5q0 48 -76 80t-219 32zM198 159v-40h703v40h-703zM381 270v-40h332v40h-332z" />
    <glyph glyph-name="uniAC8C" unicode="&#xac8c;" 
d="M625 375h-150v-46h150v-429h50v817h-50v-342zM815 740v-880h50v880h-50zM437 580q-9 -184 -104.5 -316.5t-233.5 -213.5l44 -31q130 79 236 228t114 373h-337v-40h281z" />
    <glyph glyph-name="uniAC8D" unicode="&#xac8d;" 
 />
    <glyph glyph-name="uniAC8E" unicode="&#xac8e;" 
 />
    <glyph glyph-name="uniAC8F" unicode="&#xac8f;" 
 />
    <glyph glyph-name="uniAC90" unicode="&#xac90;" 
d="M260 150v-270h635v40h-585v230h-50zM630 459h-150v-40h150v-314h50v620h-50v-266zM820 740v-655h50v655h-50zM149 628h291q-10 -124 -100.5 -232t-255.5 -169l37 -34q156 66 255.5 173t124.5 302h-352v-40z" />
    <glyph glyph-name="uniAC91" unicode="&#xac91;" 
 />
    <glyph glyph-name="uniAC92" unicode="&#xac92;" 
 />
    <glyph glyph-name="uniAC93" unicode="&#xac93;" 
 />
    <glyph glyph-name="uniAC94" unicode="&#xac94;" 
d="M892 -130v40h-582v119h557v195h-607v-40h557v-115h-557v-199h632zM630 496h-150v-40h150v-182h50v451h-50v-229zM820 740v-466h50v466h-50zM148 627h291q-10 -82 -96 -186.5t-264 -154.5l33 -33q179 54 274 169t114 245h-352v-40z" />
    <glyph glyph-name="uniAC95" unicode="&#xac95;" 
 />
    <glyph glyph-name="uniAC96" unicode="&#xac96;" 
 />
    <glyph glyph-name="uniAC97" unicode="&#xac97;" 
 />
    <glyph glyph-name="uniAC98" unicode="&#xac98;" 
 />
    <glyph glyph-name="uniAC99" unicode="&#xac99;" 
 />
    <glyph glyph-name="uniAC9A" unicode="&#xac9a;" 
 />
    <glyph glyph-name="uniAC9B" unicode="&#xac9b;" 
 />
    <glyph glyph-name="uniAC9C" unicode="&#xac9c;" 
d="M310 140h507v-230h-507v230zM867 -130v310h-607v-310h607zM630 487h-150v-40h150v-217h50v495h-50v-238zM820 740v-510h50v510h-50zM147 625h291q-5 -110 -101 -219t-254 -158l37 -34q143 52 250 159.5t129 291.5h-352v-40z" />
    <glyph glyph-name="uniAC9D" unicode="&#xac9d;" 
d="M310 49h507v-139h-507v139zM867 -130v344h-50v-125h-507v125h-50v-344h607zM630 496h-150v-40h150v-192h50v461h-50v-229zM820 740v-476h50v476h-50zM150 627h291q-10 -82 -96 -186.5t-264 -154.5l33 -33q179 54 274 169t114 245h-352v-40z" />
    <glyph glyph-name="uniAC9E" unicode="&#xac9e;" 
 />
    <glyph glyph-name="uniAC9F" unicode="&#xac9f;" 
d="M630 473h-150v-40h150v-248h50v540h-50v-252zM820 740v-605h50v605h-50zM150 625h291q-10 -124 -100.5 -232t-255.5 -169l37 -34q156 66 255.5 173t124.5 302h-352v-40zM570 195h-60v-12q0 -92 -90.5 -170.5t-223.5 -116.5l38 -35q76 19 177 87t129 147
q29 -79 129.5 -147t176.5 -87l38 35q-133 38 -223.5 116.5t-90.5 170.5v12z" />
    <glyph glyph-name="uniACA0" unicode="&#xaca0;" 
d="M630 490h-150v-41h150v-223h50v499h-50v-235zM820 740v-514h50v514h-50zM150 625h291q-5 -110 -101 -219t-254 -158l37 -34q143 52 250 159.5t129 291.5h-352v-40zM553 -141q59 35 104.5 97t63.5 111q11 -49 62 -111.5t110 -94.5l34 31q-86 47 -133.5 123.5t-47.5 164.5
v12h-50v-12q0 -88 -45 -158.5t-99 -111.5q-54 41 -98.5 111.5t-44.5 158.5v12h-50v-12q0 -88 -47.5 -164.5t-133.5 -123.5l34 -31q59 32 110 94.5t62 111.5q18 -49 64 -112.5t105 -95.5z" />
    <glyph glyph-name="uniACA1" unicode="&#xaca1;" 
d="M630 497h-150v-41h150v-225h50v494h-50v-228zM820 740v-543h50v543h-50zM149 625h291q-5 -110 -101 -219t-254 -158l37 -34q143 52 250 159.5t129 291.5h-352v-40zM547 137q119 0 197.5 -33.5t78.5 -95.5q0 -60 -78.5 -93.5t-197.5 -33.5q-121 0 -198.5 33.5t-77.5 93.5
q0 62 77.5 95.5t198.5 33.5zM547 180q-158 0 -243.5 -48.5t-85.5 -122.5t85.5 -122t243.5 -48q159 0 244 48t85 122t-85 122.5t-244 48.5z" />
    <glyph glyph-name="uniACA2" unicode="&#xaca2;" 
 />
    <glyph glyph-name="uniACA3" unicode="&#xaca3;" 
 />
    <glyph glyph-name="uniACA4" unicode="&#xaca4;" 
 />
    <glyph glyph-name="uniACA5" unicode="&#xaca5;" 
 />
    <glyph glyph-name="uniACA6" unicode="&#xaca6;" 
 />
    <glyph glyph-name="uniACA7" unicode="&#xaca7;" 
 />
    <glyph glyph-name="uniACA8" unicode="&#xaca8;" 
d="M805 491h-200v-42h200v-198h-215v-42h215v-349h50v880h-50v-249zM112 52l41 -31q167 83 281 238t133 371h-401v-40h345q-15 -157 -117.5 -307.5t-281.5 -230.5z" />
    <glyph glyph-name="uniACA9" unicode="&#xaca9;" 
d="M810 580h-200v-40h200v-142h-215v-40h215v-148h50v530h-50v-160zM240 149v-40h568v-249h50v289h-618zM158 629h360q-10 -123 -131 -228t-288 -145l33 -36q177 50 302.5 163t142.5 286h-419v-40z" />
    <glyph glyph-name="uniACAA" unicode="&#xacaa;" 
d="M218 150v-40h254v-250h50v290h-304zM561 150v-40h246v-250h50v290h-296zM810 580h-200v-40h200v-142h-215v-40h215v-154h50v536h-50v-160zM158 629h360q-10 -123 -131 -228t-288 -145l33 -36q177 50 302.5 163t142.5 286h-419v-40z" />
    <glyph glyph-name="uniACAB" unicode="&#xacab;" 
 />
    <glyph glyph-name="uniACAC" unicode="&#xacac;" 
d="M260 150v-270h623v40h-573v230h-50zM810 574h-200v-40h200v-162h-215v-40h215v-232h50v640h-50v-166zM160 630h360q-2 -131 -125 -243t-294 -162l33 -36q191 68 312.5 188t132.5 293h-419v-40z" />
    <glyph glyph-name="uniACAD" unicode="&#xacad;" 
 />
    <glyph glyph-name="uniACAE" unicode="&#xacae;" 
 />
    <glyph glyph-name="uniACAF" unicode="&#xacaf;" 
d="M810 584h-200v-40h200v-138h-215v-40h215v-134h50v508h-50v-156zM875 -130v40h-565v232h547v40h-597v-312h615zM158 629h360q-10 -123 -131 -228t-288 -145l33 -36q177 50 302.5 163t142.5 286h-419v-40z" />
    <glyph glyph-name="uniACB0" unicode="&#xacb0;" 
d="M810 590h-200v-40h200v-124h-215v-40h215v-112h50v466h-50v-150zM876 -130v40h-566v119h547v195h-597v-40h547v-115h-547v-199h616zM160 629h360q-10 -106 -126 -202.5t-283 -134.5l33 -36q177 54 301 158t134 255h-419v-40z" />
    <glyph glyph-name="uniACB1" unicode="&#xacb1;" 
 />
    <glyph glyph-name="uniACB2" unicode="&#xacb2;" 
 />
    <glyph glyph-name="uniACB3" unicode="&#xacb3;" 
 />
    <glyph glyph-name="uniACB4" unicode="&#xacb4;" 
 />
    <glyph glyph-name="uniACB5" unicode="&#xacb5;" 
 />
    <glyph glyph-name="uniACB6" unicode="&#xacb6;" 
 />
    <glyph glyph-name="uniACB7" unicode="&#xacb7;" 
 />
    <glyph glyph-name="uniACB8" unicode="&#xacb8;" 
d="M310 140h497v-230h-497v230zM857 -130v310h-597v-310h597zM810 584h-200v-40h200v-148h-215v-40h215v-126h50v510h-50v-156zM158 629h360q-10 -123 -131 -228t-288 -145l33 -36q177 50 302.5 163t142.5 286h-419v-40z" />
    <glyph glyph-name="uniACB9" unicode="&#xacb9;" 
d="M310 69h497v-159h-497v159zM857 -130v344h-50v-105h-497v105h-50v-344h597zM810 593h-200v-40h200v-125h-215v-40h215v-123h50v475h-50v-147zM160 629h360q-20 -106 -131 -197t-278 -129l33 -36q177 54 296.5 152.5t138.5 249.5h-419v-40z" />
    <glyph glyph-name="uniACBA" unicode="&#xacba;" 
 />
    <glyph glyph-name="uniACBB" unicode="&#xacbb;" 
d="M810 584h-200v-40h200v-148h-215v-40h215v-198h50v582h-50v-156zM161 630h360q-10 -123 -129.5 -243.5t-286.5 -160.5l33 -36q177 50 301 178.5t141 301.5h-419v-40zM598 212h-60v-12q0 -92 -90.5 -179t-223.5 -125l38 -35q76 19 177 95.5t129 155.5q29 -79 129.5 -155.5
t176.5 -95.5l38 35q-133 38 -223.5 125t-90.5 179v12z" />
    <glyph glyph-name="uniACBC" unicode="&#xacbc;" 
d="M810 584h-200v-40h200v-148h-215v-40h215v-124h50v508h-50v-156zM158 629h360q-10 -123 -131 -228t-288 -145l33 -36q177 50 302.5 163t142.5 286h-419v-40zM569 -141q59 35 104.5 97t63.5 111q11 -49 62 -111.5t110 -94.5l34 31q-86 47 -133.5 123.5t-47.5 164.5v12h-50
v-12q0 -88 -45 -158.5t-99 -111.5q-54 41 -98.5 111.5t-44.5 158.5v12h-50v-12q0 -88 -47.5 -164.5t-133.5 -123.5l34 -31q59 32 110 94.5t62 111.5q18 -49 64 -112.5t105 -95.5z" />
    <glyph glyph-name="uniACBD" unicode="&#xacbd;" 
d="M810 584h-200v-40h200v-143h-215v-40h215v-162h50v541h-50v-156zM551 141q114 0 189.5 -33.5t75.5 -95.5q0 -60 -75.5 -93.5t-189.5 -33.5q-115 0 -191 33.5t-76 93.5q0 62 76 95.5t191 33.5zM550 184q-154 0 -236.5 -48.5t-82.5 -122.5t82.5 -122t236.5 -48
q155 0 237 48t82 122t-82 122.5t-237 48.5zM158 629h360q-10 -123 -131 -228t-288 -145l33 -36q177 50 302.5 163t142.5 286h-419v-40z" />
    <glyph glyph-name="uniACBE" unicode="&#xacbe;" 
 />
    <glyph glyph-name="uniACBF" unicode="&#xacbf;" 
 />
    <glyph glyph-name="uniACC0" unicode="&#xacc0;" 
 />
    <glyph glyph-name="uniACC1" unicode="&#xacc1;" 
d="M810 590h-200v-40h200v-134h-215v-40h215v-102h50v466h-50v-150zM310 -90v118h547v40h-547v110h550v40h-600v-348h620v40h-570zM159 629h360q-10 -106 -126 -202.5t-283 -134.5l33 -36q177 54 301 158t134 255h-419v-40z" />
    <glyph glyph-name="uniACC2" unicode="&#xacc2;" 
 />
    <glyph glyph-name="uniACC3" unicode="&#xacc3;" 
 />
    <glyph glyph-name="uniACC4" unicode="&#xacc4;" 
d="M640 510h-144v-40h144v-217h-158v-40h158v-313h50v820h-50v-210zM820 740v-880h50v880h-50zM434 580q-9 -184 -104.5 -316.5t-233.5 -213.5l44 -31q130 79 236 228t114 373h-334v-40h278z" />
    <glyph glyph-name="uniACC5" unicode="&#xacc5;" 
 />
    <glyph glyph-name="uniACC6" unicode="&#xacc6;" 
 />
    <glyph glyph-name="uniACC7" unicode="&#xacc7;" 
 />
    <glyph glyph-name="uniACC8" unicode="&#xacc8;" 
d="M260 150v-270h635v40h-585v230h-50zM636 567h-141v-40h141v-150h-161v-40h161v-232h50v620h-50v-158zM820 740v-655h50v655h-50zM149 628h291q-10 -124 -100.5 -232t-255.5 -169l37 -34q156 66 255.5 173t124.5 302h-352v-40z" />
    <glyph glyph-name="uniACC9" unicode="&#xacc9;" 
 />
    <glyph glyph-name="uniACCA" unicode="&#xacca;" 
 />
    <glyph glyph-name="uniACCB" unicode="&#xaccb;" 
 />
    <glyph glyph-name="uniACCC" unicode="&#xaccc;" 
d="M892 -130v40h-582v119h557v195h-607v-40h557v-115h-557v-199h632zM636 587h-136v-40h136v-115h-156v-41h156v-117h50v451h-50v-138zM820 740v-466h50v466h-50zM148 627h291q-10 -82 -96 -186.5t-264 -154.5l33 -33q179 54 274 169t114 245h-352v-40z" />
    <glyph glyph-name="uniACCD" unicode="&#xaccd;" 
 />
    <glyph glyph-name="uniACCE" unicode="&#xacce;" 
 />
    <glyph glyph-name="uniACCF" unicode="&#xaccf;" 
 />
    <glyph glyph-name="uniACD0" unicode="&#xacd0;" 
 />
    <glyph glyph-name="uniACD1" unicode="&#xacd1;" 
 />
    <glyph glyph-name="uniACD2" unicode="&#xacd2;" 
 />
    <glyph glyph-name="uniACD3" unicode="&#xacd3;" 
 />
    <glyph glyph-name="uniACD4" unicode="&#xacd4;" 
 />
    <glyph glyph-name="uniACD5" unicode="&#xacd5;" 
d="M310 49h507v-139h-507v139zM867 -130v344h-50v-125h-507v125h-50v-344h607zM636 590h-135v-40h135v-121h-156v-41h156v-127h50v464h-50v-135zM820 740v-479h50v479h-50zM150 627h291q-10 -82 -96 -186.5t-264 -154.5l33 -33q179 54 274 169t114 245h-352v-40z" />
    <glyph glyph-name="uniACD6" unicode="&#xacd6;" 
 />
    <glyph glyph-name="uniACD7" unicode="&#xacd7;" 
d="M636 569h-136v-40h136v-132h-156v-40h156v-172h50v540h-50v-156zM820 740v-605h50v605h-50zM149 628h291q-10 -124 -100.5 -232t-255.5 -169l37 -34q156 66 255.5 173t124.5 302h-352v-40zM570 195h-60v-12q0 -92 -90.5 -170.5t-223.5 -116.5l38 -35q76 19 177 87
t129 147q29 -79 129.5 -147t176.5 -87l38 35q-133 38 -223.5 116.5t-90.5 170.5v12z" />
    <glyph glyph-name="uniACD8" unicode="&#xacd8;" 
 />
    <glyph glyph-name="uniACD9" unicode="&#xacd9;" 
 />
    <glyph glyph-name="uniACDA" unicode="&#xacda;" 
 />
    <glyph glyph-name="uniACDB" unicode="&#xacdb;" 
 />
    <glyph glyph-name="uniACDC" unicode="&#xacdc;" 
 />
    <glyph glyph-name="uniACDD" unicode="&#xacdd;" 
 />
    <glyph glyph-name="uniACDE" unicode="&#xacde;" 
 />
    <glyph glyph-name="uniACDF" unicode="&#xacdf;" 
 />
    <glyph glyph-name="uniACE0" unicode="&#xace0;" 
d="M449 38v328h-50v-328h-339v-40h880v40h-491zM695 144h49q29 137 43.5 239t23.5 241h-636v-40h582q-6 -97 -21 -209t-41 -231z" />
    <glyph glyph-name="uniACE1" unicode="&#xace1;" 
d="M172 120v-40h592v-220h50v260h-642zM470 303v217h-50v-217h-360v-40h880v40h-470zM730 380h50q13 54 27.5 133t26.5 180h-664v-40h607q-7 -66 -20.5 -139.5t-26.5 -133.5z" />
    <glyph glyph-name="uniACE2" unicode="&#xace2;" 
 />
    <glyph glyph-name="uniACE3" unicode="&#xace3;" 
 />
    <glyph glyph-name="uniACE4" unicode="&#xace4;" 
d="M471 278v247h-50v-247h-360v-40h880v40h-470zM186 150v-270h670v40h-620v230h-50zM731 359h50q16 71 29.5 152t24.5 182h-664v-40h607q-7 -66 -20 -149.5t-27 -144.5z" />
    <glyph glyph-name="uniACE5" unicode="&#xace5;" 
 />
    <glyph glyph-name="uniACE6" unicode="&#xace6;" 
 />
    <glyph glyph-name="uniACE7" unicode="&#xace7;" 
d="M470 330v198h-50v-198h-360v-40h880v40h-470zM732 386h50q13 54 27.5 130t26.5 177h-666v-40h609q-6 -66 -20 -136.5zM185 175v-295h656v40h-606v215h585v40h-635z" />
    <glyph glyph-name="uniACE8" unicode="&#xace8;" 
d="M470 369v180h-50v-180h-360v-40h880v40h-470zM733 409h48q20 71 30.5 134t23.5 151h-665v-40h608q-7 -64 -20 -131.5t-25 -113.5zM840 -130v40h-605v122h580v192h-630v-40h580v-112h-580v-202h655z" />
    <glyph glyph-name="uniACE9" unicode="&#xace9;" 
 />
    <glyph glyph-name="uniACEA" unicode="&#xacea;" 
d="M579 194h196v-284h-196v284zM825 -130v364h-296v-364h296zM735 419h48q19 71 29 129t23 146h-665v-40h608q-7 -64 -19 -126.5t-24 -108.5zM499 -119v40q-19 -4 -88 -7.5t-99 -3.5h-86v127h255v195h-305v-40h255v-115h-255v-208h136q30 0 99.5 4t87.5 8zM470 379v169h-50
v-169h-360v-40h880v40h-470z" />
    <glyph glyph-name="uniACEB" unicode="&#xaceb;" 
 />
    <glyph glyph-name="uniACEC" unicode="&#xacec;" 
d="M733 420h48q19 71 29 129t23 146h-665v-40h608q-7 -64 -19 -126.5t-24 -108.5zM940 339v40h-470v173h-50v-173h-360v-40h880zM495 -119v40q-19 -4 -88 -7.5t-99 -3.5h-83v127h252v199h-302v-40h252v-119h-252v-208h133q30 0 99.5 4t87.5 8zM694 48q19 -63 67.5 -113
t91.5 -77l36 37q-84 47 -127 120t-43 156v86h-50v-86q0 -83 -42.5 -158t-127.5 -117l35 -38q50 32 96 79.5t64 110.5z" />
    <glyph glyph-name="uniACED" unicode="&#xaced;" 
 />
    <glyph glyph-name="uniACEE" unicode="&#xacee;" 
 />
    <glyph glyph-name="uniACEF" unicode="&#xacef;" 
d="M733 420h48q19 71 29 129t23 146h-665v-40h608q-7 -64 -19 -126.5t-24 -108.5zM940 339v40h-470v170h-50v-170h-360v-40h880zM792 222v40h-218v-40h218zM887 113v41h-400v-41h400zM484 -119v40q-19 -4 -85 -7.5t-96 -3.5h-83v127h248v197h-298v-40h248v-117h-248v-208
h133q30 0 96.5 4t84.5 8zM857 -45q0 45 -47 74.5t-127 29.5q-79 0 -126.5 -29t-47.5 -75t47 -75t127 -29t127 29t47 75zM804 -46q0 -33 -37 -49.5t-84 -16.5q-49 0 -85 17.5t-36 48.5q0 32 36 50t85 18q47 0 84 -18t37 -50z" />
    <glyph glyph-name="uniACF0" unicode="&#xacf0;" 
d="M235 -90v228h530v-228h-530zM185 -130h630v308h-630v-308zM733 388h48l18 78.5t36 226.5h-665v-40h608q-6 -64 -25.5 -164.5zM470 335v193h-50v-193h-360v-40h880v40h-470z" />
    <glyph glyph-name="uniACF1" unicode="&#xacf1;" 
d="M235 -90v160h530v-160h-530zM185 -130h630v355h-50v-115h-530v115h-50v-355zM470 338v190h-50v-190h-360v-40h880v40h-470zM736 399h48q17 71 28.5 138.5t23.5 155.5h-665v-40h608q-6 -64 -19 -136t-24 -118z" />
    <glyph glyph-name="uniACF2" unicode="&#xacf2;" 
 />
    <glyph glyph-name="uniACF3" unicode="&#xacf3;" 
d="M730 373h50q13 54 27.5 136.5t26.5 183.5h-664v-40h607q-6 -66 -19.5 -143t-27.5 -137zM940 254v40h-470v214h-50v-214h-360v-40h880zM529 198h-60v-26q0 -90 -107 -170t-237 -108l34 -37q106 27 209 95t131 146q34 -78 135 -147t207 -96l37 38q-133 32 -241 110.5
t-108 168.5v26z" />
    <glyph glyph-name="uniACF4" unicode="&#xacf4;" 
 />
    <glyph glyph-name="uniACF5" unicode="&#xacf5;" 
d="M500 139q122 0 202.5 -33.5t80.5 -94.5q0 -59 -80.5 -93t-202.5 -34q-123 0 -203 34t-80 93q0 61 80 94.5t203 33.5zM500 182q-159 0 -247 -48.5t-88 -122.5t88 -122.5t247 -48.5q160 0 247.5 48.5t87.5 122.5t-87.5 122.5t-247.5 48.5zM470 316v204h-50v-204h-360v-40
h880v40h-470zM730 383h50q13 54 27.5 133t26.5 180h-664v-40h607q-6 -66 -20 -139.5t-27 -133.5z" />
    <glyph glyph-name="uniACF6" unicode="&#xacf6;" 
d="M526 120v15h304v40h-661v-40h306v-15q0 -72 -113 -141t-236 -80l31 -41q125 23 218 76.5t126 114.5q35 -61 126.5 -115t215.5 -77l31 42q-115 11 -231.5 80t-116.5 141zM470 337v197h-50v-197h-360v-40h880v40h-470zM730 383h50q13 54 27.5 133t26.5 180h-664v-40h607
q-6 -66 -20 -139.5t-27 -133.5z" />
    <glyph glyph-name="uniACF7" unicode="&#xacf7;" 
 />
    <glyph glyph-name="uniACF8" unicode="&#xacf8;" 
 />
    <glyph glyph-name="uniACF9" unicode="&#xacf9;" 
 />
    <glyph glyph-name="uniACFA" unicode="&#xacfa;" 
 />
    <glyph glyph-name="uniACFB" unicode="&#xacfb;" 
 />
    <glyph glyph-name="uniACFC" unicode="&#xacfc;" 
d="M619 622h-484v-40h428q-2 -78 -17.5 -189.5t-26.5 -176.5h49q15 84 28 181t23 225zM770 740v-880h50v448h145v41h-145v391h-50zM725 62v40q-78 -12 -192 -18.5t-188 -6.5v296h-50v-296h-215v-40h98q221 0 335.5 6t211.5 19z" />
    <glyph glyph-name="uniACFD" unicode="&#xacfd;" 
d="M220 135v-40h550v-235h50v275h-600zM614 680h-474v-40h418q-4 -73 -14.5 -133l-21.5 -122h49q9 43 21 106.5t22 188.5zM770 740v-563h50v261h135v40h-135v262h-50zM731 271v41q-93 -13 -207.5 -19.5t-178.5 -6.5v208h-50v-210h-225v-41h110q224 0 347 9t204 19z" />
    <glyph glyph-name="uniACFE" unicode="&#xacfe;" 
 />
    <glyph glyph-name="uniACFF" unicode="&#xacff;" 
 />
    <glyph glyph-name="uniAD00" unicode="&#xad00;" 
d="M239 130v-250h615v40h-565v210h-50zM613 680h-474v-40h418q-5 -73 -14.5 -140t-21.5 -132h49q17 77 26.5 149.5t16.5 162.5zM769 740v-660h50v316h134v40h-134v304h-50zM730 253v40q-70 -11 -197 -20t-189 -9v218h-50v-218h-225v-40h141q158 0 270 6.5t250 22.5z" />
    <glyph glyph-name="uniAD01" unicode="&#xad01;" 
 />
    <glyph glyph-name="uniAD02" unicode="&#xad02;" 
 />
    <glyph glyph-name="uniAD03" unicode="&#xad03;" 
 />
    <glyph glyph-name="uniAD04" unicode="&#xad04;" 
d="M614 680h-474v-40h418q-6 -73 -15.5 -125.5t-20.5 -96.5h49q9 39 22 102t21 160zM841 -130v40h-554v109h533v185h-583v-40h533v-105h-533v-189h604zM770 740v-491h50v220h135v40h-135v231h-50zM731 325v40q-62 -9 -201.5 -17.5t-184.5 -8.5v190h-50v-190h-225v-40h197
q137 0 270 8.5t194 17.5z" />
    <glyph glyph-name="uniAD05" unicode="&#xad05;" 
 />
    <glyph glyph-name="uniAD06" unicode="&#xad06;" 
d="M595 164h175v-254h-175v254zM820 -130v334h-275v-334h275zM511 -118v40q-19 -4 -74.5 -7.5t-85.5 -3.5h-86v108h236v185h-286v-40h236v-105h-236v-189h136q30 0 86 4t74 8zM770 740v-496h50v225h135v40h-135v231h-50zM614 678h-474v-40h418q-6 -73 -15.5 -125.5
t-20.5 -96.5h49q9 39 22 102t21 160zM731 325v40q-62 -9 -201.5 -17.5t-184.5 -8.5v190h-50v-190h-225v-40h197q137 0 270 8.5t194 17.5z" />
    <glyph glyph-name="uniAD07" unicode="&#xad07;" 
 />
    <glyph glyph-name="uniAD08" unicode="&#xad08;" 
 />
    <glyph glyph-name="uniAD09" unicode="&#xad09;" 
 />
    <glyph glyph-name="uniAD0A" unicode="&#xad0a;" 
 />
    <glyph glyph-name="uniAD0B" unicode="&#xad0b;" 
 />
    <glyph glyph-name="uniAD0C" unicode="&#xad0c;" 
d="M613 680h-474v-40h418q-4 -73 -14 -139t-21 -128h49q11 60 21.5 129t20.5 178zM955 452v40h-135v248h-50v-530h50v242h135zM731 289v40q-93 -13 -207.5 -20t-178.5 -7v209h-50v-209h-225v-40h92q224 0 357 8t212 19zM820 -130v295h-580v-295h580zM770 -90h-480v215h480
v-215z" />
    <glyph glyph-name="uniAD0D" unicode="&#xad0d;" 
d="M611 683h-474v-40h418q-4 -73 -14.5 -133l-21.5 -122h49q9 43 21 106.5t22 188.5zM955 469v40h-135v231h-50v-503h50v232h135zM731 296v39q-62 -9 -201.5 -18.5t-184.5 -9.5v215h-50v-215h-225v-40h127q159 0 316 10t218 19zM820 -130v327h-50v-115h-480v115h-50v-327
h580zM770 -90h-480v132h480v-132z" />
    <glyph glyph-name="uniAD0E" unicode="&#xad0e;" 
 />
    <glyph glyph-name="uniAD0F" unicode="&#xad0f;" 
d="M613 680h-474v-40h418q-5 -73 -14.5 -138t-21.5 -130h49q16 77 26 147.5t17 160.5zM955 417v40h-135v283h-50v-614h50v291h135zM731 277v40q-62 -9 -201.5 -19t-184.5 -10v219h-50v-219h-225v-41h142q170 0 314 10.5t205 19.5zM582 185h-60v-14q0 -79 -87.5 -161
t-220.5 -118l38 -35q76 19 170.5 87.5t129.5 142.5q32 -74 127 -142.5t171 -87.5l38 35q-133 36 -219.5 118t-86.5 161v14z" />
    <glyph glyph-name="uniAD10" unicode="&#xad10;" 
 />
    <glyph glyph-name="uniAD11" unicode="&#xad11;" 
d="M955 435v40h-135v265h-50v-561h50v256h135zM844 5q0 68 -85.5 117t-228.5 49q-142 0 -228 -48.5t-86 -117.5q0 -68 86 -116.5t228 -48.5q143 0 228.5 49t85.5 116zM791 4q0 -54 -78.5 -88.5t-182.5 -34.5t-182.5 34t-78.5 89q0 56 79.5 90.5t181.5 34.5q104 0 182.5 -35
t78.5 -90zM613 680h-474v-40h418q-5 -73 -14.5 -138t-21.5 -130h49q16 77 26 147.5t17 160.5zM731 277v40q-62 -9 -201.5 -19t-184.5 -10v219h-50v-219h-225v-41h142q170 0 314 10.5t205 19.5z" />
    <glyph glyph-name="uniAD12" unicode="&#xad12;" 
 />
    <glyph glyph-name="uniAD13" unicode="&#xad13;" 
 />
    <glyph glyph-name="uniAD14" unicode="&#xad14;" 
 />
    <glyph glyph-name="uniAD15" unicode="&#xad15;" 
 />
    <glyph glyph-name="uniAD16" unicode="&#xad16;" 
 />
    <glyph glyph-name="uniAD17" unicode="&#xad17;" 
 />
    <glyph glyph-name="uniAD18" unicode="&#xad18;" 
d="M533 618h-394v-40h338q-2 -78 -12 -182t-20 -169h49q13 84 21 173.5t18 217.5zM880 -140v880h-50v-380h-140v360h-50v-820h50v420h140v-460h50zM602 68v40q-61 -10 -166.5 -15.5t-125.5 -5.5v283h-50v-283h-160v-42h74q129 0 245.5 6.5t182.5 16.5z" />
    <glyph glyph-name="uniAD19" unicode="&#xad19;" 
 />
    <glyph glyph-name="uniAD1A" unicode="&#xad1a;" 
 />
    <glyph glyph-name="uniAD1B" unicode="&#xad1b;" 
 />
    <glyph glyph-name="uniAD1C" unicode="&#xad1c;" 
d="M522 680h-362v-40h308q-4 -78 -12 -151.5t-19 -141.5h47q13 77 22.5 157.5t15.5 175.5zM880 65v675h-50v-302h-140v287h-50v-640h50v313h140v-333h50zM605 248v38q-46 -9 -143.5 -17t-141.5 -8v219h-50v-219h-180v-40h84q173 0 273 8.5t158 18.5zM915 -120v40h-595v214
h-50v-254h645z" />
    <glyph glyph-name="uniAD1D" unicode="&#xad1d;" 
 />
    <glyph glyph-name="uniAD1E" unicode="&#xad1e;" 
 />
    <glyph glyph-name="uniAD1F" unicode="&#xad1f;" 
 />
    <glyph glyph-name="uniAD20" unicode="&#xad20;" 
d="M522 680h-362v-40h308q-4 -78 -11.5 -134t-16.5 -109h47q13 60 22 131.5t13 151.5zM880 244v496h-50v-234h-140v219h-50v-481h50v222h140v-222h50zM605 308v38q-46 -9 -143.5 -17t-141.5 -8v197h-50v-197h-180v-40h84q173 0 273 8.5t158 18.5zM915 -130v40h-595v109h557
v180h-607v-40h557v-100h-557v-189h645z" />
    <glyph glyph-name="uniAD21" unicode="&#xad21;" 
 />
    <glyph glyph-name="uniAD22" unicode="&#xad22;" 
 />
    <glyph glyph-name="uniAD23" unicode="&#xad23;" 
 />
    <glyph glyph-name="uniAD24" unicode="&#xad24;" 
 />
    <glyph glyph-name="uniAD25" unicode="&#xad25;" 
 />
    <glyph glyph-name="uniAD26" unicode="&#xad26;" 
 />
    <glyph glyph-name="uniAD27" unicode="&#xad27;" 
 />
    <glyph glyph-name="uniAD28" unicode="&#xad28;" 
 />
    <glyph glyph-name="uniAD29" unicode="&#xad29;" 
d="M522 680h-362v-40h308q-4 -78 -11.5 -134t-16.5 -109h47q13 60 22 131.5t13 151.5zM880 241v499h-50v-234h-140v220h-50v-485h50v225h140v-225h50zM605 308v38q-46 -9 -143.5 -17t-141.5 -8v199h-50v-199h-180v-40h84q173 0 273 8.5t158 18.5zM877 -130v329h-50v-105
h-507v105h-50v-329h607zM827 -90h-507v144h507v-144z" />
    <glyph glyph-name="uniAD2A" unicode="&#xad2a;" 
 />
    <glyph glyph-name="uniAD2B" unicode="&#xad2b;" 
 />
    <glyph glyph-name="uniAD2C" unicode="&#xad2c;" 
d="M525 681h-362v-40h308q-4 -78 -13.5 -145t-18.5 -120h47q13 60 24 142.5t15 162.5zM880 215v525h-50v-254h-140v239h-50v-510h50v231h140v-231h50zM605 285v38q-46 -9 -143.5 -17t-141.5 -8v211h-50v-211h-180v-40h84q173 0 273 8.5t158 18.5zM564 -141q59 35 104.5 97
t63.5 111q11 -49 62 -111.5t110 -94.5l34 31q-86 47 -133.5 121.5t-47.5 162.5v12h-50v-12q0 -88 -45 -156.5t-99 -109.5q-54 41 -98.5 109.5t-44.5 156.5v12h-50v-12q0 -88 -47.5 -162.5t-133.5 -121.5l34 -31q59 32 110 94.5t62 111.5q18 -49 64 -112.5t105 -95.5z" />
    <glyph glyph-name="uniAD2D" unicode="&#xad2d;" 
d="M525 681h-362v-40h308q-4 -78 -13.5 -145t-18.5 -120h47q13 60 24 142.5t15 162.5zM880 184v556h-50v-254h-140v239h-50v-516h50v237h140v-262h50zM605 275v38q-46 -9 -143.5 -17t-141.5 -8v221h-50v-221h-180v-40h84q173 0 273 8.5t158 18.5zM570 171
q-147 0 -235.5 -47.5t-88.5 -118.5q0 -70 88.5 -117.5t235.5 -47.5q149 0 236.5 47.5t87.5 117.5q0 72 -88 119t-236 47zM841 4q0 -57 -82 -90t-189 -33q-106 0 -188.5 33t-82.5 90t82.5 91t188.5 34q107 0 189 -34.5t82 -90.5z" />
    <glyph glyph-name="uniAD2E" unicode="&#xad2e;" 
 />
    <glyph glyph-name="uniAD2F" unicode="&#xad2f;" 
 />
    <glyph glyph-name="uniAD30" unicode="&#xad30;" 
 />
    <glyph glyph-name="uniAD31" unicode="&#xad31;" 
 />
    <glyph glyph-name="uniAD32" unicode="&#xad32;" 
 />
    <glyph glyph-name="uniAD33" unicode="&#xad33;" 
 />
    <glyph glyph-name="uniAD34" unicode="&#xad34;" 
d="M870 -140v880h-50v-880h50zM658 623h-484v-40h428q-2 -78 -17.5 -189.5t-26.5 -176.5h49q15 84 28 181t23 225zM775 62v41q-78 -12 -199.5 -19t-195.5 -7v296h-50v-296h-220v-40h108q221 0 340 6.5t217 18.5z" />
    <glyph glyph-name="uniAD35" unicode="&#xad35;" 
d="M880 178v562h-50v-562h50zM877 -140v274h-617v-40h567v-234h50zM664 680h-477v-40h421q-4 -73 -14.5 -133l-21.5 -122h49q9 43 21 106.5t22 188.5zM792 271v41q-93 -13 -215 -19.5t-186 -6.5v208h-50v-210h-230v-41h120q224 0 352 9t209 19z" />
    <glyph glyph-name="uniAD36" unicode="&#xad36;" 
 />
    <glyph glyph-name="uniAD37" unicode="&#xad37;" 
 />
    <glyph glyph-name="uniAD38" unicode="&#xad38;" 
d="M880 80v660h-50v-660h50zM901 -120v40h-571v210h-50v-250h621zM665 680h-474v-40h418q-5 -73 -14.5 -140t-21.5 -132h49q17 77 26.5 149.5t16.5 162.5zM792 252v41q-70 -11 -204.5 -20t-196.5 -9v218h-50v-218h-230v-40h145q158 0 278 6t258 22z" />
    <glyph glyph-name="uniAD39" unicode="&#xad39;" 
 />
    <glyph glyph-name="uniAD3A" unicode="&#xad3a;" 
 />
    <glyph glyph-name="uniAD3B" unicode="&#xad3b;" 
 />
    <glyph glyph-name="uniAD3C" unicode="&#xad3c;" 
d="M880 244v496h-50v-496h50zM898 -130v40h-568v109h547v185h-597v-40h547v-105h-547v-189h618zM665 680h-479v-40h423q-4 -73 -20 -147.5l-16 -74.5h49l17 71.5t26 190.5zM792 324v41q-62 -9 -209 -17.5t-192 -8.5v190h-50v-190h-231v-40h203q137 0 277.5 8t201.5 17z" />
    <glyph glyph-name="uniAD3D" unicode="&#xad3d;" 
 />
    <glyph glyph-name="uniAD3E" unicode="&#xad3e;" 
 />
    <glyph glyph-name="uniAD3F" unicode="&#xad3f;" 
 />
    <glyph glyph-name="uniAD40" unicode="&#xad40;" 
 />
    <glyph glyph-name="uniAD41" unicode="&#xad41;" 
 />
    <glyph glyph-name="uniAD42" unicode="&#xad42;" 
 />
    <glyph glyph-name="uniAD43" unicode="&#xad43;" 
 />
    <glyph glyph-name="uniAD44" unicode="&#xad44;" 
d="M880 205v535h-50v-535h50zM877 -130v295h-597v-295h597zM827 -90h-497v215h497v-215zM661 680h-474v-40h418q-4 -73 -14 -139t-21 -128h49q11 60 21.5 129t20.5 178zM791 289v40q-93 -13 -215 -20t-186 -7v209h-50v-209h-230v-40h97q224 0 364.5 8t219.5 19z" />
    <glyph glyph-name="uniAD45" unicode="&#xad45;" 
d="M880 237v503h-50v-503h50zM880 -130v327h-50v-115h-500v115h-50v-327h600zM830 -90h-500v132h500v-132zM663 680h-474v-40h418q-4 -73 -14.5 -133l-21.5 -122h49q9 43 21 106.5t22 188.5zM791 296v39q-62 -9 -209 -18.5t-192 -9.5v215h-50v-215h-230v-40h132
q159 0 323.5 10t225.5 19z" />
    <glyph glyph-name="uniAD46" unicode="&#xad46;" 
 />
    <glyph glyph-name="uniAD47" unicode="&#xad47;" 
d="M880 126v614h-50v-614h50zM661 680h-474v-40h418q-4 -73 -14 -139t-21 -128h49q11 60 21.5 129t20.5 178zM791 277v40q-62 -9 -209 -19t-192 -10v219h-50v-219h-230v-41h147q170 0 321.5 10.5t212.5 19.5zM609 184h-60v-14q0 -79 -87.5 -161t-220.5 -118l38 -35
q76 19 170.5 87.5t129.5 142.5q32 -74 127 -142.5t171 -87.5l38 35q-133 36 -219.5 118t-86.5 161v14z" />
    <glyph glyph-name="uniAD48" unicode="&#xad48;" 
 />
    <glyph glyph-name="uniAD49" unicode="&#xad49;" 
d="M880 179v561h-50v-561h50zM661 680h-474v-40h418q-4 -73 -14 -139t-21 -128h49q11 60 21.5 129t20.5 178zM791 277v40q-62 -9 -209 -19t-192 -10v219h-50v-219h-230v-41h147q170 0 321.5 10.5t212.5 19.5zM570 171q-147 0 -235.5 -47.5t-88.5 -118.5q0 -70 88.5 -117.5
t235.5 -47.5q149 0 236.5 47.5t87.5 117.5q0 72 -88 119t-236 47zM841 4q0 -57 -82 -90t-189 -33q-106 0 -188.5 33t-82.5 90t82.5 91t188.5 34q107 0 189 -34.5t82 -90.5z" />
    <glyph glyph-name="uniAD4A" unicode="&#xad4a;" 
 />
    <glyph glyph-name="uniAD4B" unicode="&#xad4b;" 
 />
    <glyph glyph-name="uniAD4C" unicode="&#xad4c;" 
 />
    <glyph glyph-name="uniAD4D" unicode="&#xad4d;" 
 />
    <glyph glyph-name="uniAD4E" unicode="&#xad4e;" 
 />
    <glyph glyph-name="uniAD4F" unicode="&#xad4f;" 
 />
    <glyph glyph-name="uniAD50" unicode="&#xad50;" 
d="M705 152h49q29 137 43 236t24 238h-642v-40h588q-6 -97 -21 -206t-41 -228zM940 -5v40h-363v322h-50v-322h-177v322h-49v-322h-241v-40h880z" />
    <glyph glyph-name="uniAD51" unicode="&#xad51;" 
 />
    <glyph glyph-name="uniAD52" unicode="&#xad52;" 
 />
    <glyph glyph-name="uniAD53" unicode="&#xad53;" 
 />
    <glyph glyph-name="uniAD54" unicode="&#xad54;" 
d="M731 359h50q16 71 29.5 152t24.5 182h-664v-40h607q-7 -66 -20 -149.5t-27 -144.5zM940 226v40h-343v234h-50v-234h-181v234h-50v-234h-256v-40h880zM840 -120v40h-605v223h-50v-263h655z" />
    <glyph glyph-name="uniAD55" unicode="&#xad55;" 
 />
    <glyph glyph-name="uniAD56" unicode="&#xad56;" 
 />
    <glyph glyph-name="uniAD57" unicode="&#xad57;" 
 />
    <glyph glyph-name="uniAD58" unicode="&#xad58;" 
d="M733 409h48q20 71 30.5 134t23.5 151h-665v-40h608q-7 -64 -20 -131.5t-25 -113.5zM940 321v40h-343v168h-50v-168h-191v168h-50v-168h-246v-40h880zM831 -130v40h-596v119h580v190h-630v-40h580v-110h-580v-199h646z" />
    <glyph glyph-name="uniAD59" unicode="&#xad59;" 
 />
    <glyph glyph-name="uniAD5A" unicode="&#xad5a;" 
 />
    <glyph glyph-name="uniAD5B" unicode="&#xad5b;" 
 />
    <glyph glyph-name="uniAD5C" unicode="&#xad5c;" 
 />
    <glyph glyph-name="uniAD5D" unicode="&#xad5d;" 
 />
    <glyph glyph-name="uniAD5E" unicode="&#xad5e;" 
 />
    <glyph glyph-name="uniAD5F" unicode="&#xad5f;" 
 />
    <glyph glyph-name="uniAD60" unicode="&#xad60;" 
 />
    <glyph glyph-name="uniAD61" unicode="&#xad61;" 
d="M736 394h48q17 71 28.5 138.5t23.5 155.5h-665v-40h608q-6 -64 -19 -136t-24 -118zM940 287v40h-343v185h-50v-185h-191v185h-50v-185h-246v-40h880zM815 -130v350h-50v-120h-530v120h-50v-350h630zM765 -90h-530v150h530v-150z" />
    <glyph glyph-name="uniAD62" unicode="&#xad62;" 
 />
    <glyph glyph-name="uniAD63" unicode="&#xad63;" 
d="M730 363h50q13 54 27.5 140t26.5 187h-664v-40h607q-6 -66 -19.5 -146.5t-27.5 -140.5zM940 248v40h-343v206h-50v-206h-191v206h-50v-206h-246v-40h880zM529 198h-60v-26q0 -90 -107 -170t-237 -108l34 -37q106 27 209 95t131 146q34 -78 135 -147t207 -96l37 38
q-133 32 -241 110.5t-108 168.5v26z" />
    <glyph glyph-name="uniAD64" unicode="&#xad64;" 
 />
    <glyph glyph-name="uniAD65" unicode="&#xad65;" 
 />
    <glyph glyph-name="uniAD66" unicode="&#xad66;" 
 />
    <glyph glyph-name="uniAD67" unicode="&#xad67;" 
 />
    <glyph glyph-name="uniAD68" unicode="&#xad68;" 
 />
    <glyph glyph-name="uniAD69" unicode="&#xad69;" 
 />
    <glyph glyph-name="uniAD6A" unicode="&#xad6a;" 
 />
    <glyph glyph-name="uniAD6B" unicode="&#xad6b;" 
 />
    <glyph glyph-name="uniAD6C" unicode="&#xad6c;" 
d="M940 256v40h-170q17 95 30.5 178.5t26.5 205.5h-657v-40h600q-8 -82 -21 -170t-30 -174h-659v-40h395v-396h50v396h435z" />
    <glyph glyph-name="uniAD6D" unicode="&#xad6d;" 
d="M940 329v40h-165q5 16 29.5 146.5t30.5 177.5h-665v-40h606q-9 -77 -27 -166t-25 -118h-664v-40h404v-209h-292v-40h593v-220h50v260h-301v209h426z" />
    <glyph glyph-name="uniAD6E" unicode="&#xad6e;" 
 />
    <glyph glyph-name="uniAD6F" unicode="&#xad6f;" 
 />
    <glyph glyph-name="uniAD70" unicode="&#xad70;" 
d="M940 294v40h-165q8 35 28 150.5t32 208.5h-665v-40h606q-7 -77 -26 -183t-26 -136h-664v-40h421v-258h50v258h409zM850 -120v40h-615v224h-50v-264h665z" />
    <glyph glyph-name="uniAD71" unicode="&#xad71;" 
 />
    <glyph glyph-name="uniAD72" unicode="&#xad72;" 
 />
    <glyph glyph-name="uniAD73" unicode="&#xad73;" 
d="M940 344v40h-163q5 18 28.5 140.5t29.5 168.5h-665v-40h606q-6 -71 -24 -154t-26 -115h-666v-40h415v-171h-290v-293h655v40h-605v213h585v40h-295v171h415z" />
    <glyph glyph-name="uniAD74" unicode="&#xad74;" 
d="M940 380v40h-163q18 65 31.5 127t26.5 147h-665v-40h606q-6 -65 -24 -133.5l-26 -100.5h-666v-40h415v-134h-290v-40h580v-123h-580v-213h660v40h-610v133h580v203h-290v134h415z" />
    <glyph glyph-name="uniAD75" unicode="&#xad75;" 
d="M775 -130h50v378h-289v-40h239v-338zM475 248h-300v-40h267v-124h-267v-214h136q30 0 113.5 4t101.5 8v39q-19 -4 -102 -7.5t-113 -3.5h-86v134h267v164h33v174h415v40h-163l26.5 98.5t31.5 173.5h-665v-40h606q-6 -65 -24 -132.5l-26 -99.5h-666v-40h415v-134z" />
    <glyph glyph-name="uniAD76" unicode="&#xad76;" 
d="M574 208h201v-298h-201v298zM825 -130v378h-301v-378h301zM726 422h-666v-40h415v-116h50v116h415v40h-163l26.5 98.5t31.5 173.5h-665v-40h606q-6 -65 -24 -132.5zM494 -118v39q-19 -4 -83 -7.5t-94 -3.5h-92v134h250v204h-300v-40h250v-124h-250v-214h142q30 0 94.5 4
t82.5 8z" />
    <glyph glyph-name="uniAD77" unicode="&#xad77;" 
 />
    <glyph glyph-name="uniAD78" unicode="&#xad78;" 
 />
    <glyph glyph-name="uniAD79" unicode="&#xad79;" 
 />
    <glyph glyph-name="uniAD7A" unicode="&#xad7a;" 
 />
    <glyph glyph-name="uniAD7B" unicode="&#xad7b;" 
d="M726 424h-666v-40h409v-154h50v154h421v40h-163l26.5 97.5t31.5 172.5h-665v-40h606q-6 -65 -24 -131.5t-26 -98.5zM484 -118v39q-19 -4 -81.5 -7.5t-92.5 -3.5h-85v135h240v205h-290v-40h240v-125h-240v-215h135q30 0 93 4t81 8zM683 33q47 0 84 -19.5t37 -51.5
q0 -33 -36.5 -51t-84.5 -18q-49 0 -85 19t-36 50q0 32 36 51.5t85 19.5zM683 70q-79 0 -126.5 -30.5t-47.5 -76.5t47 -76.5t127 -30.5t127 30.5t47 76.5q0 45 -47 76t-127 31zM487 166v-41h400v41h-400zM574 279v-40h218v40h-218z" />
    <glyph glyph-name="uniAD7C" unicode="&#xad7c;" 
d="M940 344v40h-163q17 70 31 138.5t27 170.5h-665v-40h606q-6 -71 -24 -154t-26 -115h-666v-40h411v-171h-286v-303h630v303h-294v171h419zM765 -90h-530v223h530v-223z" />
    <glyph glyph-name="uniAD7D" unicode="&#xad7d;" 
d="M940 339v40h-165q9 29 29 128t31 186h-665v-40h606q-7 -70 -26.5 -159.5t-25.5 -114.5h-664v-40h415v-170h50v170h415zM815 -130v350h-50v-120h-530v120h-50v-350h630zM765 -90h-530v150h530v-150z" />
    <glyph glyph-name="uniAD7E" unicode="&#xad7e;" 
 />
    <glyph glyph-name="uniAD7F" unicode="&#xad7f;" 
d="M940 327v40h-167q7 28 28.5 133t32.5 193h-664v-40h605q-8 -72 -28 -167.5l-25 -118.5h-662v-40h410v-132h60v132h410zM469 159q0 -92 -107 -166t-237 -102l34 -37q106 26 207 87t133 139q36 -77 136 -139t206 -89l37 38q-133 32 -241 105.5t-108 163.5h-60z" />
    <glyph glyph-name="uniAD80" unicode="&#xad80;" 
 />
    <glyph glyph-name="uniAD81" unicode="&#xad81;" 
d="M940 319v40h-164q9 38 28.5 143t30.5 191h-665v-40h606q-7 -67 -25.5 -164.5t-25.5 -129.5h-665v-40h415v-136q-147 -4 -228.5 -52.5t-81.5 -119.5q0 -74 88 -122.5t247 -48.5q160 0 247.5 48.5t87.5 122.5q0 71 -81 119.5t-229 52.5v136h415zM783 11q0 -59 -80.5 -93
t-202.5 -34q-123 0 -203 34t-80 93q0 61 80 95t203 34q122 0 202.5 -34t80.5 -95z" />
    <glyph glyph-name="uniAD82" unicode="&#xad82;" 
d="M940 346v40h-165q13 53 33 157.5t26 149.5h-664v-40h605q-7 -68 -25.5 -153t-26.5 -114h-663v-40h415v-140h50v140h415zM526 120v15h304v40h-661v-40h306v-15q0 -72 -113 -141t-236 -80l31 -41q125 23 218 76.5t126 114.5q35 -61 126.5 -115t215.5 -77l31 42
q-115 11 -231.5 80t-116.5 141z" />
    <glyph glyph-name="uniAD83" unicode="&#xad83;" 
 />
    <glyph glyph-name="uniAD84" unicode="&#xad84;" 
 />
    <glyph glyph-name="uniAD85" unicode="&#xad85;" 
 />
    <glyph glyph-name="uniAD86" unicode="&#xad86;" 
 />
    <glyph glyph-name="uniAD87" unicode="&#xad87;" 
 />
    <glyph glyph-name="uniAD88" unicode="&#xad88;" 
d="M865 -140v880h-50v-606h-256v-40h256v-234h50zM637 650h-472v-40h414q-5 -72 -19 -168.5t-21 -126.5q-10 -1 -46 -3t-66 -2h-322v-40h255v-390h50v391q99 1 206 9t159 17v41q-26 -4 -77 -10t-107 -10q3 17 22.5 150t23.5 182z" />
    <glyph glyph-name="uniAD89" unicode="&#xad89;" 
d="M870 166v574h-50v-457h-256v-40h256v-77h50zM780 398v40q-24 -5 -78 -11.5t-106 -9.5q13 59 23 114.5t21 148.5h-470v-40h410q-6 -69 -17 -130t-19 -95q-19 -1 -54 -3t-60 -2h-330v-40h241v-204h50v205q118 0 227.5 9t161.5 18zM870 -140v256h-632v-40h582v-216h50z" />
    <glyph glyph-name="uniAD8A" unicode="&#xad8a;" 
 />
    <glyph glyph-name="uniAD8B" unicode="&#xad8b;" 
 />
    <glyph glyph-name="uniAD8C" unicode="&#xad8c;" 
d="M780 393v40q-52 -9 -92 -13.5t-92 -7.5q12 59 22.5 117t21.5 151h-470v-40h410q-6 -69 -15.5 -121.5l-20.5 -108.5q-19 -1 -54 -3t-60 -2h-330v-40h241v-213h50v214q118 0 227.5 9t161.5 18zM870 70v670h-50v-497h-256v-40h256v-133h50zM890 -120v40h-570v200h-50v-240
h620z" />
    <glyph glyph-name="uniAD8D" unicode="&#xad8d;" 
 />
    <glyph glyph-name="uniAD8E" unicode="&#xad8e;" 
 />
    <glyph glyph-name="uniAD8F" unicode="&#xad8f;" 
 />
    <glyph glyph-name="uniAD90" unicode="&#xad90;" 
d="M870 234v506h-50v-408h-256v-40h256v-58h50zM782 428v40q-24 -5 -78 -11.5t-106 -9.5l23 103.5t21 137.5h-470v-40h410q-6 -69 -17 -119l-19 -84q-19 -1 -54 -3t-60 -2h-330v-40h237v-166h50v167q118 0 229.5 9t163.5 18zM887 -130v40h-567v104h547v180h-597v-40h547
v-100h-547v-184h617z" />
    <glyph glyph-name="uniAD91" unicode="&#xad91;" 
 />
    <glyph glyph-name="uniAD92" unicode="&#xad92;" 
 />
    <glyph glyph-name="uniAD93" unicode="&#xad93;" 
 />
    <glyph glyph-name="uniAD94" unicode="&#xad94;" 
 />
    <glyph glyph-name="uniAD95" unicode="&#xad95;" 
 />
    <glyph glyph-name="uniAD96" unicode="&#xad96;" 
 />
    <glyph glyph-name="uniAD97" unicode="&#xad97;" 
 />
    <glyph glyph-name="uniAD98" unicode="&#xad98;" 
 />
    <glyph glyph-name="uniAD99" unicode="&#xad99;" 
 />
    <glyph glyph-name="uniAD9A" unicode="&#xad9a;" 
 />
    <glyph glyph-name="uniAD9B" unicode="&#xad9b;" 
 />
    <glyph glyph-name="uniAD9C" unicode="&#xad9c;" 
d="M782 410v40q-24 -5 -78 -11.5t-106 -9.5q13 59 23 109t21 143h-470v-40h410q-6 -69 -17 -124.5t-19 -89.5q-19 -1 -54 -3t-60 -2h-330v-40h237v-196h50v197q118 0 229.5 9t163.5 18zM870 189v551h-50v-437h-256v-40h256v-74h50zM572 -139q53 27 104.5 79t67.5 107
q18 -50 63.5 -100.5t106.5 -85.5l36 28q-65 35 -123 99.5t-58 153.5v13h-50v-13q0 -88 -51.5 -148t-95.5 -82q-34 23 -88.5 81t-54.5 149v13h-50v-13q0 -89 -58 -153.5t-123 -99.5l36 -28q61 35 106.5 85.5t63.5 100.5q18 -52 66.5 -104.5t101.5 -81.5z" />
    <glyph glyph-name="uniAD9D" unicode="&#xad9d;" 
d="M870 189v551h-50v-437h-256v-40h256v-74h50zM782 410v40q-24 -5 -78 -11.5t-106 -9.5q13 59 23 109t21 143h-470v-40h410q-6 -69 -17 -124.5t-19 -89.5q-19 -1 -54 -3t-60 -2h-330v-40h237v-196h50v197q118 0 229.5 9t163.5 18zM897 5q0 73 -90.5 119.5t-233.5 46.5
q-142 0 -233 -46.5t-91 -119.5q0 -72 91 -118.5t233 -46.5q143 0 233.5 46t90.5 119zM844 4q0 -58 -83.5 -90.5t-187.5 -32.5t-187.5 32.5t-83.5 90.5t84.5 91.5t186.5 33.5q104 0 187.5 -33.5t83.5 -91.5z" />
    <glyph glyph-name="uniAD9E" unicode="&#xad9e;" 
 />
    <glyph glyph-name="uniAD9F" unicode="&#xad9f;" 
 />
    <glyph glyph-name="uniADA0" unicode="&#xada0;" 
 />
    <glyph glyph-name="uniADA1" unicode="&#xada1;" 
 />
    <glyph glyph-name="uniADA2" unicode="&#xada2;" 
 />
    <glyph glyph-name="uniADA3" unicode="&#xada3;" 
 />
    <glyph glyph-name="uniADA4" unicode="&#xada4;" 
d="M695 -100v820h-50v-576h-186v-40h186v-204h50zM875 -140v880h-50v-880h50zM517 645h-362v-40h304q-5 -72 -15.5 -144t-24.5 -138q-38 -1 -65.5 -2t-65.5 -1h-193v-40h209v-370h50v372q56 0 139.5 5.5t116.5 12.5v39q-18 -4 -56 -7t-84 -6q17 75 27 146.5t20 172.5z" />
    <glyph glyph-name="uniADA5" unicode="&#xada5;" 
 />
    <glyph glyph-name="uniADA6" unicode="&#xada6;" 
 />
    <glyph glyph-name="uniADA7" unicode="&#xada7;" 
 />
    <glyph glyph-name="uniADA8" unicode="&#xada8;" 
 />
    <glyph glyph-name="uniADA9" unicode="&#xada9;" 
 />
    <glyph glyph-name="uniADAA" unicode="&#xadaa;" 
 />
    <glyph glyph-name="uniADAB" unicode="&#xadab;" 
 />
    <glyph glyph-name="uniADAC" unicode="&#xadac;" 
 />
    <glyph glyph-name="uniADAD" unicode="&#xadad;" 
 />
    <glyph glyph-name="uniADAE" unicode="&#xadae;" 
 />
    <glyph glyph-name="uniADAF" unicode="&#xadaf;" 
 />
    <glyph glyph-name="uniADB0" unicode="&#xadb0;" 
 />
    <glyph glyph-name="uniADB1" unicode="&#xadb1;" 
 />
    <glyph glyph-name="uniADB2" unicode="&#xadb2;" 
 />
    <glyph glyph-name="uniADB3" unicode="&#xadb3;" 
 />
    <glyph glyph-name="uniADB4" unicode="&#xadb4;" 
 />
    <glyph glyph-name="uniADB5" unicode="&#xadb5;" 
 />
    <glyph glyph-name="uniADB6" unicode="&#xadb6;" 
 />
    <glyph glyph-name="uniADB7" unicode="&#xadb7;" 
d="M875 105v635h-49v-635h49zM696 125v600h-50v-430h-187v-40h187v-130h50zM615 390v39q-17 -4 -56.5 -8t-83.5 -6q13 59 23.5 126.5t17.5 143.5h-361v-40h304q-4 -60 -15.5 -129.5t-19.5 -107.5h-339v-40h200v-243h50v245q47 0 147 6.5t133 13.5zM582 180h-60v-14
q0 -79 -90 -161t-223 -118l38 -35q76 19 173 87.5t132 142.5q32 -74 130 -142.5t174 -87.5l38 35q-133 36 -222.5 118t-89.5 161v14z" />
    <glyph glyph-name="uniADB8" unicode="&#xadb8;" 
 />
    <glyph glyph-name="uniADB9" unicode="&#xadb9;" 
 />
    <glyph glyph-name="uniADBA" unicode="&#xadba;" 
 />
    <glyph glyph-name="uniADBB" unicode="&#xadbb;" 
 />
    <glyph glyph-name="uniADBC" unicode="&#xadbc;" 
 />
    <glyph glyph-name="uniADBD" unicode="&#xadbd;" 
 />
    <glyph glyph-name="uniADBE" unicode="&#xadbe;" 
 />
    <glyph glyph-name="uniADBF" unicode="&#xadbf;" 
 />
    <glyph glyph-name="uniADC0" unicode="&#xadc0;" 
d="M860 -140v880h-50v-880h50zM633 649h-472v-40h414q-5 -72 -19 -171t-21 -129q-10 -1 -46 -3t-66 -2h-322v-40h264v-390h50v391q99 1 201.5 9t154.5 17v41q-26 -4 -77 -10t-107 -10q3 17 22.5 152.5t23.5 184.5z" />
    <glyph glyph-name="uniADC1" unicode="&#xadc1;" 
d="M870 170v570h-50v-570h50zM780 376v40q-24 -5 -78 -11.5t-106 -9.5q13 59 23 125.5t21 159.5h-470v-40h410q-6 -69 -17 -141t-19 -106q-19 -1 -54 -3t-60 -2h-330v-40h251v-179h50v180q118 0 222.5 9t156.5 18zM870 -140v260h-632v-40h582v-220h50z" />
    <glyph glyph-name="uniADC2" unicode="&#xadc2;" 
 />
    <glyph glyph-name="uniADC3" unicode="&#xadc3;" 
 />
    <glyph glyph-name="uniADC4" unicode="&#xadc4;" 
d="M780 371v40q-52 -9 -92 -13t-92 -8q11 59 22 128t22 162h-470v-40h410q-6 -69 -15.5 -132.5t-20.5 -119.5q-19 -1 -54 -3t-60 -2h-330v-40h249v-191h50v192q118 0 223.5 9t157.5 18zM870 70v670h-50v-670h50zM895 -120v40h-575v200h-50v-240h625z" />
    <glyph glyph-name="uniADC5" unicode="&#xadc5;" 
 />
    <glyph glyph-name="uniADC6" unicode="&#xadc6;" 
 />
    <glyph glyph-name="uniADC7" unicode="&#xadc7;" 
 />
    <glyph glyph-name="uniADC8" unicode="&#xadc8;" 
d="M870 234v506h-50v-506h50zM782 409v40q-24 -5 -78 -11.5t-106 -9.5l21 113t23 143h-470v-40h410q-7 -69 -17.5 -124.5t-18.5 -93.5l-56 -3t-90 -2h-298v-40h246v-147h50v148q118 0 225 9t159 18zM895 -130v40h-575v104h547v180h-597v-40h547v-100h-547v-184h625z" />
    <glyph glyph-name="uniADC9" unicode="&#xadc9;" 
 />
    <glyph glyph-name="uniADCA" unicode="&#xadca;" 
 />
    <glyph glyph-name="uniADCB" unicode="&#xadcb;" 
 />
    <glyph glyph-name="uniADCC" unicode="&#xadcc;" 
 />
    <glyph glyph-name="uniADCD" unicode="&#xadcd;" 
 />
    <glyph glyph-name="uniADCE" unicode="&#xadce;" 
 />
    <glyph glyph-name="uniADCF" unicode="&#xadcf;" 
 />
    <glyph glyph-name="uniADD0" unicode="&#xadd0;" 
d="M870 194v546h-50v-546h50zM782 405v40q-24 -5 -78 -11t-106 -10l21 112.5t23 142.5h-470v-40h410q-7 -69 -17.5 -124t-18.5 -93l-56 -3t-90 -2h-298v-40h248v-184h50v185q109 0 219.5 9t162.5 18zM870 -130v284h-600v-284h600zM820 -90h-500v204h500v-204z" />
    <glyph glyph-name="uniADD1" unicode="&#xadd1;" 
d="M870 234v506h-50v-506h50zM867 -130v323h-50v-111h-497v111h-50v-323h597zM817 -90h-497v132h497v-132zM782 409v40q-24 -5 -78 -12t-106 -9l21 113t23 143h-470v-40h410q-7 -69 -17.5 -124.5t-18.5 -93.5l-56 -3t-90 -2h-298v-40h246v-147h50v148q118 0 225 9t159 18z
" />
    <glyph glyph-name="uniADD2" unicode="&#xadd2;" 
 />
    <glyph glyph-name="uniADD3" unicode="&#xadd3;" 
d="M870 110v630h-50v-630h50zM780 371v40q-52 -9 -92 -13t-92 -8q11 59 22 128t22 162h-470v-40h410q-6 -69 -15.5 -132.5t-20.5 -119.5q-19 -1 -54 -3t-60 -2h-330v-40h241v-209h50v210q118 0 227.5 9t161.5 18zM601 188h-60v-14q0 -79 -91 -162t-224 -119l38 -35
q76 19 174 88.5t133 143.5q32 -74 130 -142.5t174 -87.5l38 35q-133 36 -222.5 118t-89.5 161v14z" />
    <glyph glyph-name="uniADD4" unicode="&#xadd4;" 
 />
    <glyph glyph-name="uniADD5" unicode="&#xadd5;" 
 />
    <glyph glyph-name="uniADD6" unicode="&#xadd6;" 
 />
    <glyph glyph-name="uniADD7" unicode="&#xadd7;" 
 />
    <glyph glyph-name="uniADD8" unicode="&#xadd8;" 
 />
    <glyph glyph-name="uniADD9" unicode="&#xadd9;" 
 />
    <glyph glyph-name="uniADDA" unicode="&#xadda;" 
 />
    <glyph glyph-name="uniADDB" unicode="&#xaddb;" 
 />
    <glyph glyph-name="uniADDC" unicode="&#xaddc;" 
d="M940 256v40h-167q7 38 26.5 160.5t31.5 223.5h-663v-40h605q-8 -82 -25.5 -196.5t-25.5 -147.5h-662v-40h261v-386h50v386h265v-396h50v396h254z" />
    <glyph glyph-name="uniADDD" unicode="&#xaddd;" 
 />
    <glyph glyph-name="uniADDE" unicode="&#xadde;" 
 />
    <glyph glyph-name="uniADDF" unicode="&#xaddf;" 
 />
    <glyph glyph-name="uniADE0" unicode="&#xade0;" 
d="M940 309v40h-165q10 38 29.5 144.5t30.5 199.5h-655v-40h596q-7 -77 -26 -175.5t-26 -128.5h-664v-40h312v-254h50v254h233v-254h50v254h235zM845 -120v40h-610v224h-50v-264h660z" />
    <glyph glyph-name="uniADE1" unicode="&#xade1;" 
 />
    <glyph glyph-name="uniADE2" unicode="&#xade2;" 
 />
    <glyph glyph-name="uniADE3" unicode="&#xade3;" 
 />
    <glyph glyph-name="uniADE4" unicode="&#xade4;" 
d="M940 377v40h-163q17 57 31.5 127t26.5 150h-665v-40h606q-7 -65 -24.5 -135l-25.5 -102h-666v-40h254v-137h-129v-40h580v-120h-580v-210h645v40h-595v130h580v200h-125v137h250zM640 240h-276v137h276v-137z" />
    <glyph glyph-name="uniADE5" unicode="&#xade5;" 
 />
    <glyph glyph-name="uniADE6" unicode="&#xade6;" 
 />
    <glyph glyph-name="uniADE7" unicode="&#xade7;" 
 />
    <glyph glyph-name="uniADE8" unicode="&#xade8;" 
 />
    <glyph glyph-name="uniADE9" unicode="&#xade9;" 
 />
    <glyph glyph-name="uniADEA" unicode="&#xadea;" 
 />
    <glyph glyph-name="uniADEB" unicode="&#xadeb;" 
 />
    <glyph glyph-name="uniADEC" unicode="&#xadec;" 
 />
    <glyph glyph-name="uniADED" unicode="&#xaded;" 
 />
    <glyph glyph-name="uniADEE" unicode="&#xadee;" 
 />
    <glyph glyph-name="uniADEF" unicode="&#xadef;" 
 />
    <glyph glyph-name="uniADF0" unicode="&#xadf0;" 
 />
    <glyph glyph-name="uniADF1" unicode="&#xadf1;" 
 />
    <glyph glyph-name="uniADF2" unicode="&#xadf2;" 
 />
    <glyph glyph-name="uniADF3" unicode="&#xadf3;" 
 />
    <glyph glyph-name="uniADF4" unicode="&#xadf4;" 
 />
    <glyph glyph-name="uniADF5" unicode="&#xadf5;" 
 />
    <glyph glyph-name="uniADF6" unicode="&#xadf6;" 
 />
    <glyph glyph-name="uniADF7" unicode="&#xadf7;" 
 />
    <glyph glyph-name="uniADF8" unicode="&#xadf8;" 
d="M940 18v40h-210q6 28 35.5 202.5t36.5 339.5h-627v-40h573q-4 -106 -30.5 -277t-36.5 -225h-621v-40h880z" />
    <glyph glyph-name="uniADF9" unicode="&#xadf9;" 
d="M940 320v40h-165q4 17 26.5 122.5t33.5 210.5h-649v-40h590q-7 -78 -26.5 -169.5t-25.5 -123.5h-664v-40h880zM815 -140v307h-643v-40h593v-267h50z" />
    <glyph glyph-name="uniADFA" unicode="&#xadfa;" 
 />
    <glyph glyph-name="uniADFB" unicode="&#xadfb;" 
 />
    <glyph glyph-name="uniADFC" unicode="&#xadfc;" 
d="M940 273v40h-165l27.5 162.5t32.5 217.5h-650v-40h591q-8 -79 -27 -192l-25 -148h-664v-40h880zM850 -120v40h-615v264h-50v-304h665z" />
    <glyph glyph-name="uniADFD" unicode="&#xadfd;" 
 />
    <glyph glyph-name="uniADFE" unicode="&#xadfe;" 
 />
    <glyph glyph-name="uniADFF" unicode="&#xadff;" 
d="M940 315v40h-165q5 20 29 153t31 185h-651v-40h592q-7 -78 -26 -172t-26 -126h-664v-40h880zM840 -120v40h-605v227h585v40h-635v-307h655z" />
    <glyph glyph-name="uniAE00" unicode="&#xae00;" 
d="M940 364v40h-164q20 65 37 154.5t22 135.5h-655v-40h596q-7 -73 -26 -147l-26 -103h-664v-40h880zM842 -130v40h-607v132h580v200h-630v-40h580v-120h-580v-212h657z" />
    <glyph glyph-name="uniAE01" unicode="&#xae01;" 
d="M940 365v40h-164q18 66 35.5 153t23.5 136h-655v-40h596q-7 -73 -26 -146.5t-26 -102.5h-664v-40h880zM825 -130v370h-289v-40h239v-330h50zM526 -119v40q-19 -4 -101.5 -7.5t-112.5 -3.5h-86v127h267v202h-317v-40h267v-122h-267v-208h136q30 0 113 4t101 8z" />
    <glyph glyph-name="uniAE02" unicode="&#xae02;" 
 />
    <glyph glyph-name="uniAE03" unicode="&#xae03;" 
 />
    <glyph glyph-name="uniAE04" unicode="&#xae04;" 
 />
    <glyph glyph-name="uniAE05" unicode="&#xae05;" 
 />
    <glyph glyph-name="uniAE06" unicode="&#xae06;" 
 />
    <glyph glyph-name="uniAE07" unicode="&#xae07;" 
 />
    <glyph glyph-name="uniAE08" unicode="&#xae08;" 
d="M940 322v40h-165q19 81 33 161t27 170h-655v-40h596q-7 -78 -26 -168.5l-26 -122.5h-664v-40h880zM817 -130v320h-630v-320h630zM767 -90h-530v240h530v-240z" />
    <glyph glyph-name="uniAE09" unicode="&#xae09;" 
d="M940 328v40h-165q17 62 32.5 147.5t27.5 177.5h-655v-40h596q-7 -77 -26 -166t-26 -119h-664v-40h880zM815 -130v370h-50v-130h-530v130h-50v-370h630zM765 -90h-530v160h530v-160z" />
    <glyph glyph-name="uniAE0A" unicode="&#xae0a;" 
 />
    <glyph glyph-name="uniAE0B" unicode="&#xae0b;" 
d="M940 288v40h-165q8 41 28 156t32 209h-655v-40h596q-7 -79 -26.5 -185.5l-25.5 -139.5h-664v-40h880zM529 190h-60v-18q0 -90 -107 -170t-237 -108l34 -37q106 27 209 95t131 146q34 -78 135 -147t207 -96l37 38q-133 32 -241 110.5t-108 168.5v18z" />
    <glyph glyph-name="uniAE0C" unicode="&#xae0c;" 
 />
    <glyph glyph-name="uniAE0D" unicode="&#xae0d;" 
d="M940 304v40h-169q17 77 31 162t28 187h-650v-40h591q-8 -76 -21 -154t-30 -155h-660v-40h880zM830 19q0 78 -85 129t-245 51q-159 0 -244.5 -51t-85.5 -129t85.5 -129t244.5 -51q160 0 245 51t85 129zM778 19q0 -64 -78 -101.5t-200 -37.5q-123 0 -200.5 37.5
t-77.5 101.5q0 65 77.5 102.5t200.5 37.5q122 0 200 -37.5t78 -102.5z" />
    <glyph glyph-name="uniAE0E" unicode="&#xae0e;" 
 />
    <glyph glyph-name="uniAE0F" unicode="&#xae0f;" 
 />
    <glyph glyph-name="uniAE10" unicode="&#xae10;" 
 />
    <glyph glyph-name="uniAE11" unicode="&#xae11;" 
 />
    <glyph glyph-name="uniAE12" unicode="&#xae12;" 
 />
    <glyph glyph-name="uniAE13" unicode="&#xae13;" 
 />
    <glyph glyph-name="uniAE14" unicode="&#xae14;" 
d="M780 88v40q-43 -7 -105 -13t-104 -8q22 115 38 242t28 256h-473v-40h418q-7 -96 -23 -228.5t-38 -231.5q-39 -1 -72 -2t-56 -1h-288v-40h215q143 0 277 9.5t183 16.5zM865 -140v880h-50v-880h50z" />
    <glyph glyph-name="uniAE15" unicode="&#xae15;" 
 />
    <glyph glyph-name="uniAE16" unicode="&#xae16;" 
 />
    <glyph glyph-name="uniAE17" unicode="&#xae17;" 
 />
    <glyph glyph-name="uniAE18" unicode="&#xae18;" 
 />
    <glyph glyph-name="uniAE19" unicode="&#xae19;" 
 />
    <glyph glyph-name="uniAE1A" unicode="&#xae1a;" 
 />
    <glyph glyph-name="uniAE1B" unicode="&#xae1b;" 
 />
    <glyph glyph-name="uniAE1C" unicode="&#xae1c;" 
 />
    <glyph glyph-name="uniAE1D" unicode="&#xae1d;" 
 />
    <glyph glyph-name="uniAE1E" unicode="&#xae1e;" 
 />
    <glyph glyph-name="uniAE1F" unicode="&#xae1f;" 
 />
    <glyph glyph-name="uniAE20" unicode="&#xae20;" 
 />
    <glyph glyph-name="uniAE21" unicode="&#xae21;" 
 />
    <glyph glyph-name="uniAE22" unicode="&#xae22;" 
 />
    <glyph glyph-name="uniAE23" unicode="&#xae23;" 
 />
    <glyph glyph-name="uniAE24" unicode="&#xae24;" 
 />
    <glyph glyph-name="uniAE25" unicode="&#xae25;" 
 />
    <glyph glyph-name="uniAE26" unicode="&#xae26;" 
 />
    <glyph glyph-name="uniAE27" unicode="&#xae27;" 
 />
    <glyph glyph-name="uniAE28" unicode="&#xae28;" 
 />
    <glyph glyph-name="uniAE29" unicode="&#xae29;" 
 />
    <glyph glyph-name="uniAE2A" unicode="&#xae2a;" 
 />
    <glyph glyph-name="uniAE2B" unicode="&#xae2b;" 
 />
    <glyph glyph-name="uniAE2C" unicode="&#xae2c;" 
 />
    <glyph glyph-name="uniAE2D" unicode="&#xae2d;" 
 />
    <glyph glyph-name="uniAE2E" unicode="&#xae2e;" 
 />
    <glyph glyph-name="uniAE2F" unicode="&#xae2f;" 
 />
    <glyph glyph-name="uniAE30" unicode="&#xae30;" 
d="M810 740v-880h50v880h-50zM116 52l41 -31q167 83 281 238t133 371h-401v-40h345q-15 -157 -117.5 -307.5t-281.5 -230.5z" />
    <glyph glyph-name="uniAE31" unicode="&#xae31;" 
d="M815 740v-546h50v546h-50zM246 149v-40h567v-249h50v289h-617zM171 630h360q-10 -123 -131 -228t-288 -145l33 -36q177 50 302.5 163t142.5 286h-419v-40z" />
    <glyph glyph-name="uniAE32" unicode="&#xae32;" 
 />
    <glyph glyph-name="uniAE33" unicode="&#xae33;" 
 />
    <glyph glyph-name="uniAE34" unicode="&#xae34;" 
d="M815 740v-640h50v640h-50zM265 150v-270h621v40h-571v230h-50zM170 630h360q-2 -131 -125 -243t-294 -162l33 -36q191 68 312.5 188t132.5 293h-419v-40z" />
    <glyph glyph-name="uniAE35" unicode="&#xae35;" 
 />
    <glyph glyph-name="uniAE36" unicode="&#xae36;" 
 />
    <glyph glyph-name="uniAE37" unicode="&#xae37;" 
d="M882 -130v40h-567v232h547v40h-597v-312h617zM815 740v-508h50v508h-50zM169 631h360q-10 -123 -131 -228t-288 -145l33 -36q177 50 302.5 163t142.5 286h-419v-40z" />
    <glyph glyph-name="uniAE38" unicode="&#xae38;" 
d="M884 -130v40h-569v119h547v195h-597v-40h547v-115h-547v-199h619zM815 740v-466h50v466h-50zM170 629h360q-14 -103 -128 -201t-281 -136l33 -36q177 54 298 158t137 255h-419v-40z" />
    <glyph glyph-name="uniAE39" unicode="&#xae39;" 
 />
    <glyph glyph-name="uniAE3A" unicode="&#xae3a;" 
d="M546 -118v40q-19 -4 -91 -7.5t-102 -3.5h-57v118h240v195h-290v-40h240v-115h-240v-199h107q30 0 102.5 4t90.5 8zM862 -130v354h-282v-354h282zM630 184h182v-274h-182v274zM815 740v-466h50v466h-50zM168 630h365q-20 -111 -133.5 -199t-280.5 -130l33 -36
q177 52 301 157.5t139 247.5h-424v-40z" />
    <glyph glyph-name="uniAE3B" unicode="&#xae3b;" 
 />
    <glyph glyph-name="uniAE3C" unicode="&#xae3c;" 
 />
    <glyph glyph-name="uniAE3D" unicode="&#xae3d;" 
 />
    <glyph glyph-name="uniAE3E" unicode="&#xae3e;" 
 />
    <glyph glyph-name="uniAE3F" unicode="&#xae3f;" 
 />
    <glyph glyph-name="uniAE40" unicode="&#xae40;" 
d="M865 229v511h-50v-511h50zM167 630h360q-10 -123 -131 -228t-288 -145l33 -36q177 50 302.5 163t142.5 286h-419v-40zM315 140h497v-230h-497v230zM862 -130v310h-597v-310h597z" />
    <glyph glyph-name="uniAE41" unicode="&#xae41;" 
d="M862 -130v344h-50v-125h-497v125h-50v-344h597zM315 49h497v-139h-497v139zM815 740v-476h50v476h-50zM169 629h362q-14 -97 -130 -192.5t-283 -133.5l33 -36q177 54 300 158.5t139 243.5h-421v-40z" />
    <glyph glyph-name="uniAE42" unicode="&#xae42;" 
 />
    <glyph glyph-name="uniAE43" unicode="&#xae43;" 
d="M815 740v-604h50v604h-50zM170 630h360q-10 -123 -129.5 -243.5t-286.5 -160.5l33 -36q177 50 301 178.5t141 301.5h-419v-40zM589 209h-60v-12q0 -92 -90.5 -179t-223.5 -125l38 -35q76 19 177 95.5t129 155.5q29 -79 129.5 -155.5t176.5 -95.5l38 35
q-133 38 -223.5 125t-90.5 179v12z" />
    <glyph glyph-name="uniAE44" unicode="&#xae44;" 
 />
    <glyph glyph-name="uniAE45" unicode="&#xae45;" 
d="M865 209v531h-50v-531h50zM167 631h360q-10 -123 -131 -228t-288 -145l33 -36q177 50 302.5 163t142.5 286h-419v-40zM879 10q0 74 -84 122.5t-230 48.5q-144 0 -229 -48.5t-85 -122.5t85 -122t229 -48q146 0 230 48t84 122zM826 9q0 -60 -76.5 -93.5t-183.5 -33.5
q-106 0 -184 33.5t-78 93.5q0 62 77.5 95.5t184.5 33.5q108 0 184 -33.5t76 -95.5z" />
    <glyph glyph-name="uniAE46" unicode="&#xae46;" 
d="M815 740v-507h50v507h-50zM167 632h360q-2 -105 -122 -202t-287 -135l33 -36q177 54 304.5 158t130.5 255h-419v-40zM592 133v15h278v40h-618v-40h289v-15q0 -75 -118 -149t-203 -85l35 -36q83 17 181 79.5t131 123.5q33 -61 131 -123.5t180 -79.5l35 36q-85 11 -203 85
t-118 149z" />
    <glyph glyph-name="uniAE47" unicode="&#xae47;" 
 />
    <glyph glyph-name="uniAE48" unicode="&#xae48;" 
 />
    <glyph glyph-name="uniAE49" unicode="&#xae49;" 
 />
    <glyph glyph-name="uniAE4A" unicode="&#xae4a;" 
d="M815 740v-491h50v491h-50zM902 -130v40h-145l19 244h114v40h-637v-40h114l19 -244h-143v-40h659zM726 154l-18 -244h-273l-18 244h309zM164 632h360q-2 -105 -122 -202t-287 -135l33 -36q177 54 304.5 158t130.5 255h-419v-40z" />
    <glyph glyph-name="uniAE4B" unicode="&#xae4b;" 
 />
    <glyph glyph-name="uniAE4C" unicode="&#xae4c;" 
d="M845 310h135v42h-135v388h-50v-880h50v450zM428 620v-40h172q5 -172 -94 -332t-176 -228l44 -24q112 108 193.5 266t88.5 358h-228zM389 620h-254v-40h199q-1 -84 -51 -229t-193 -276l43 -22q119 113 185 261.5t71 305.5z" />
    <glyph glyph-name="uniAE4D" unicode="&#xae4d;" 
d="M245 150v-40h550v-250h50v290h-600zM845 450h139v40h-139v250h-50v-536h50v246zM383 228q110 74 191 191.5t84 250.5h-228v-40h173q-4 -106 -86.5 -215t-170.5 -161zM123 268q110 74 191 179t84 223h-253v-40h198q-4 -93 -86.5 -188.5t-170.5 -147.5z" />
    <glyph glyph-name="uniAE4E" unicode="&#xae4e;" 
d="M225 154v-40h246v-254h50v294h-296zM560 154v-40h235v-254h50v294h-285zM845 450h139v40h-139v250h-50v-536h50v246zM383 228q110 74 191 191.5t84 250.5h-228v-40h173q-4 -106 -86.5 -215t-170.5 -161zM123 268q110 74 191 179t84 223h-253v-40h198q-4 -93 -86.5 -188.5
t-170.5 -147.5z" />
    <glyph glyph-name="uniAE4F" unicode="&#xae4f;" 
 />
    <glyph glyph-name="uniAE50" unicode="&#xae50;" 
d="M265 150v-270h605v40h-555v230h-50zM845 406h139v40h-139v294h-50v-640h50v306zM379 207q110 74 193 202t86 261h-228v-40h173q-4 -106 -88.5 -225.5t-172.5 -171.5zM128 256q127 83 198 191t72 223h-253v-40h198q-1 -88 -73 -186t-179 -162z" />
    <glyph glyph-name="uniAE51" unicode="&#xae51;" 
 />
    <glyph glyph-name="uniAE52" unicode="&#xae52;" 
 />
    <glyph glyph-name="uniAE53" unicode="&#xae53;" 
 />
    <glyph glyph-name="uniAE54" unicode="&#xae54;" 
d="M845 469h140v40h-140v231h-50v-466h50v195zM867 -130v40h-552v119h530v195h-580v-40h530v-115h-530v-199h602zM378 274q128 68 200 177.5t82 217.5h-231v-40h176q-9 -78 -79.5 -175.5t-183.5 -151.5zM132 314q128 68 191.5 157.5t73.5 197.5h-253v-40h198
q-9 -78 -72.5 -156t-174.5 -133z" />
    <glyph glyph-name="uniAE55" unicode="&#xae55;" 
 />
    <glyph glyph-name="uniAE56" unicode="&#xae56;" 
d="M620 184h175v-274h-175v274zM845 -130v354h-275v-354h275zM845 509v231h-50v-466h50v195h140v40h-140zM537 -119v40q-19 -4 -74.5 -7.5t-85.5 -3.5h-82v121h232v192h-282v-40h232v-112h-232v-202h132q30 0 86 4t74 8zM378 274q128 68 200 177.5t82 217.5h-231v-40h176
q-9 -78 -79.5 -175.5t-183.5 -151.5zM132 314q128 68 191.5 157.5t73.5 197.5h-253v-40h198q-9 -78 -72.5 -156t-174.5 -133z" />
    <glyph glyph-name="uniAE57" unicode="&#xae57;" 
 />
    <glyph glyph-name="uniAE58" unicode="&#xae58;" 
 />
    <glyph glyph-name="uniAE59" unicode="&#xae59;" 
 />
    <glyph glyph-name="uniAE5A" unicode="&#xae5a;" 
 />
    <glyph glyph-name="uniAE5B" unicode="&#xae5b;" 
 />
    <glyph glyph-name="uniAE5C" unicode="&#xae5c;" 
d="M315 140h480v-230h-480v230zM845 -130v310h-580v-310h580zM845 459h139v40h-139v241h-50v-510h50v229zM383 243q128 68 197.5 193t79.5 233h-231v-40h176q-8 -78 -76.5 -191t-181.5 -167zM127 295q128 68 195.5 169.5t74.5 204.5h-252v-40h197q-7 -78 -74 -165.5
t-178 -142.5z" />
    <glyph glyph-name="uniAE5D" unicode="&#xae5d;" 
d="M315 59h480v-149h-480v149zM845 -130v344h-50v-115h-480v115h-50v-344h580zM845 469h140v40h-140v231h-50v-476h50v205zM378 274q128 68 200 177.5t82 217.5h-231v-40h176q-9 -78 -79.5 -175.5t-183.5 -151.5zM132 314q128 68 191.5 157.5t73.5 197.5h-253v-40h198
q-9 -78 -72.5 -156t-174.5 -133z" />
    <glyph glyph-name="uniAE5E" unicode="&#xae5e;" 
 />
    <glyph glyph-name="uniAE5F" unicode="&#xae5f;" 
d="M379 207q110 74 193 202t86 261h-228v-40h173q-4 -106 -88.5 -225.5t-172.5 -171.5zM795 156h50v276h140v40h-140v268h-50v-584zM128 256q127 83 198 191t72 223h-253v-40h198q-1 -88 -73 -186t-179 -162zM581 211h-60v-12q0 -92 -90.5 -179t-223.5 -125l38 -35
q76 19 177 95.5t129 155.5q29 -79 129.5 -155.5t176.5 -95.5l38 35q-133 38 -223.5 125t-90.5 179v12z" />
    <glyph glyph-name="uniAE60" unicode="&#xae60;" 
d="M845 464h139v40h-139v236h-50v-508h50v232zM383 243q128 68 197.5 193t79.5 233h-231v-40h176q-8 -78 -76.5 -191t-181.5 -167zM127 295q128 68 195.5 169.5t74.5 204.5h-252v-40h197q-7 -78 -74 -165.5t-178 -142.5zM571 -143q59 35 104.5 97t63.5 111q11 -49 62 -111.5
t110 -94.5l34 31q-86 47 -133.5 123.5t-47.5 164.5v12h-50v-12q0 -88 -45 -158.5t-99 -111.5q-54 41 -98.5 111.5t-44.5 158.5v12h-50v-12q0 -88 -47.5 -164.5t-133.5 -123.5l34 -31q59 32 110 94.5t62 111.5q18 -49 64 -112.5t105 -95.5z" />
    <glyph glyph-name="uniAE61" unicode="&#xae61;" 
d="M984 449v40h-139v251h-50v-541h50v250h139zM859 10q0 74 -84 122.5t-230 48.5q-144 0 -229 -48.5t-85 -122.5t85 -122t229 -48q146 0 230 48t84 122zM806 9q0 -60 -76.5 -93.5t-183.5 -33.5q-106 0 -184 33.5t-78 93.5q0 62 77.5 95.5t184.5 33.5q108 0 184 -33.5
t76 -95.5zM380 228q110 74 191 191.5t84 250.5h-228v-40h173q-4 -106 -86.5 -215t-170.5 -161zM120 268q110 74 191 179t84 223h-253v-40h198q-4 -93 -86.5 -188.5t-170.5 -147.5z" />
    <glyph glyph-name="uniAE62" unicode="&#xae62;" 
 />
    <glyph glyph-name="uniAE63" unicode="&#xae63;" 
 />
    <glyph glyph-name="uniAE64" unicode="&#xae64;" 
 />
    <glyph glyph-name="uniAE65" unicode="&#xae65;" 
d="M845 469h140v40h-140v231h-50v-466h50v195zM315 -90v116h527v40h-527v110h530v40h-580v-346h602v40h-552zM378 274q128 68 200 177.5t82 217.5h-231v-40h176q-9 -78 -79.5 -175.5t-183.5 -151.5zM132 314q128 68 191.5 157.5t73.5 197.5h-253v-40h198q-9 -78 -72.5 -156
t-174.5 -133z" />
    <glyph glyph-name="uniAE66" unicode="&#xae66;" 
 />
    <glyph glyph-name="uniAE67" unicode="&#xae67;" 
 />
    <glyph glyph-name="uniAE68" unicode="&#xae68;" 
d="M840 374h-130v346h-50v-820h50v430h130v-470h50v880h-50v-366zM572 613h-181v-40h130q-2 -116 -66.5 -276.5t-172.5 -273.5l40 -20q113 119 181 296t69 314zM365 614h-219v-40h168q-2 -116 -59.5 -247.5t-165.5 -244.5l40 -20q113 119 174 267t62 285z" />
    <glyph glyph-name="uniAE69" unicode="&#xae69;" 
d="M362 670h-222v-40h169q-3 -82 -72 -175t-164 -148l36 -27q101 55 176 167t77 223zM890 740h-50v-238h-130v223h-50v-521h50v256h130v-256h50v536zM572 670h-188v-40h135q-1 -97 -73 -212.5t-167 -170.5l36 -27q101 55 178.5 190.5t78.5 259.5zM887 -140v284h-637v-40h587
v-244h50z" />
    <glyph glyph-name="uniAE6A" unicode="&#xae6a;" 
 />
    <glyph glyph-name="uniAE6B" unicode="&#xae6b;" 
 />
    <glyph glyph-name="uniAE6C" unicode="&#xae6c;" 
d="M270 150v-270h650v40h-600v230h-50zM840 452h-130v273h-50v-620h50v305h130v-315h50v645h-50v-288zM358 671h-222v-40h169q-3 -73 -66.5 -180.5t-159.5 -162.5l36 -27q101 68 170 184.5t73 225.5zM568 671h-188v-40h135q-1 -97 -68.5 -221t-162.5 -179l36 -27
q107 74 177 205t71 262z" />
    <glyph glyph-name="uniAE6D" unicode="&#xae6d;" 
 />
    <glyph glyph-name="uniAE6E" unicode="&#xae6e;" 
 />
    <glyph glyph-name="uniAE6F" unicode="&#xae6f;" 
 />
    <glyph glyph-name="uniAE70" unicode="&#xae70;" 
d="M917 -130v40h-597v119h567v195h-617v-40h567v-115h-567v-199h647zM840 531h-130v194h-50v-451h50v215h130v-215h50v466h-50v-209zM362 670h-222v-40h168q-19 -82 -76.5 -153t-152.5 -126l36 -27q101 55 171 155t76 191zM569 670h-185v-40h132q-10 -79 -69.5 -170.5
t-154.5 -146.5l36 -27q101 55 170.5 172t70.5 212z" />
    <glyph glyph-name="uniAE71" unicode="&#xae71;" 
 />
    <glyph glyph-name="uniAE72" unicode="&#xae72;" 
 />
    <glyph glyph-name="uniAE73" unicode="&#xae73;" 
 />
    <glyph glyph-name="uniAE74" unicode="&#xae74;" 
 />
    <glyph glyph-name="uniAE75" unicode="&#xae75;" 
 />
    <glyph glyph-name="uniAE76" unicode="&#xae76;" 
 />
    <glyph glyph-name="uniAE77" unicode="&#xae77;" 
 />
    <glyph glyph-name="uniAE78" unicode="&#xae78;" 
d="M320 140h517v-230h-517v230zM887 -130v310h-617v-310h617zM840 516h-130v209h-50v-495h50v244h130v-244h50v510h-50v-224zM362 670h-222v-40h169q-3 -71 -72 -161.5t-164 -140.5l36 -27q101 58 174.5 157.5t78.5 211.5zM572 670h-188v-40h135q-1 -94 -73 -200.5
t-167 -161.5l36 -27q107 69 181 183.5t76 245.5z" />
    <glyph glyph-name="uniAE79" unicode="&#xae79;" 
d="M320 59h517v-149h-517v149zM887 -130v344h-50v-115h-517v115h-50v-344h617zM840 530h-130v195h-50v-461h50v224h130v-224h50v476h-50v-210zM362 672h-222v-40h168q-19 -82 -76.5 -153t-152.5 -126l36 -27q101 55 171 155t76 191zM569 672h-185v-40h132
q-10 -79 -69.5 -170.5t-154.5 -146.5l36 -27q101 55 170.5 172t70.5 212z" />
    <glyph glyph-name="uniAE7A" unicode="&#xae7a;" 
 />
    <glyph glyph-name="uniAE7B" unicode="&#xae7b;" 
d="M840 488h-130v237h-50v-540h50v261h130v-311h50v605h-50v-252zM358 671h-222v-40h169q-3 -73 -66.5 -180.5t-159.5 -162.5l36 -27q101 68 170 184.5t73 225.5zM568 671h-188v-40h135q-1 -97 -68.5 -221t-162.5 -179l36 -27q107 74 177 205t71 262zM577 185h-60v-14
q0 -79 -87.5 -161t-220.5 -118l38 -35q76 19 170.5 87.5t129.5 142.5q32 -74 127 -142.5t171 -87.5l38 35q-133 36 -219.5 118t-86.5 161v14z" />
    <glyph glyph-name="uniAE7C" unicode="&#xae7c;" 
d="M840 507h-130v218h-50v-502h50v242h130v-242h50v517h-50v-233zM359 670h-222v-40h169q-3 -71 -72 -161.5t-164 -140.5l36 -27q101 58 174.5 157.5t78.5 211.5zM569 670h-188v-40h135q-1 -94 -73 -200.5t-167 -161.5l36 -27q107 69 181 183.5t76 245.5zM575 -141
q59 35 104.5 97t63.5 111q11 -49 62 -111.5t110 -94.5l34 31q-86 47 -133.5 125.5t-47.5 166.5h-50q0 -88 -45 -160.5t-99 -113.5q-54 41 -98.5 113.5t-44.5 160.5h-50q0 -88 -47.5 -166.5t-133.5 -125.5l34 -31q59 32 110 94.5t62 111.5q18 -49 64 -112.5t105 -95.5z" />
    <glyph glyph-name="uniAE7D" unicode="&#xae7d;" 
d="M840 496h-130v229h-50v-503h50v232h130v-252h50v538h-50v-244zM362 671h-222v-40h169q-3 -82 -72 -175t-164 -148l36 -27q101 55 176 167t77 223zM572 671h-188v-40h135q-1 -97 -73 -212.5t-167 -170.5l36 -27q101 55 178.5 190.5t78.5 259.5zM566 137q108 0 189.5 -33.5
t81.5 -95.5q0 -60 -81 -93.5t-190 -33.5t-190 33.5t-81 93.5q0 62 81 95.5t190 33.5zM566 180q-146 0 -235 -48.5t-89 -122.5t89.5 -122t234.5 -48q146 0 235 48t89 122t-89.5 122.5t-234.5 48.5z" />
    <glyph glyph-name="uniAE7E" unicode="&#xae7e;" 
 />
    <glyph glyph-name="uniAE7F" unicode="&#xae7f;" 
 />
    <glyph glyph-name="uniAE80" unicode="&#xae80;" 
 />
    <glyph glyph-name="uniAE81" unicode="&#xae81;" 
 />
    <glyph glyph-name="uniAE82" unicode="&#xae82;" 
 />
    <glyph glyph-name="uniAE83" unicode="&#xae83;" 
 />
    <glyph glyph-name="uniAE84" unicode="&#xae84;" 
d="M835 456h140v40h-140v244h-50v-880h50v326h140v40h-140v230zM417 620v-40h172q5 -172 -94 -332t-176 -228l44 -24q112 108 193.5 266t88.5 358h-228zM378 620h-254v-40h199q-1 -84 -51 -229t-193 -276l43 -22q119 113 185 261.5t71 305.5z" />
    <glyph glyph-name="uniAE85" unicode="&#xae85;" 
d="M835 553h139v40h-139v147h-50v-536h50v167h139v40h-139v142zM235 150v-40h550v-250h50v290h-600zM371 228q110 74 191 191.5t84 250.5h-228v-40h173q-4 -106 -86.5 -215t-170.5 -161zM111 268q110 74 191 179t84 223h-253v-40h198q-4 -93 -86.5 -188.5t-170.5 -147.5z
" />
    <glyph glyph-name="uniAE86" unicode="&#xae86;" 
 />
    <glyph glyph-name="uniAE87" unicode="&#xae87;" 
 />
    <glyph glyph-name="uniAE88" unicode="&#xae88;" 
 />
    <glyph glyph-name="uniAE89" unicode="&#xae89;" 
 />
    <glyph glyph-name="uniAE8A" unicode="&#xae8a;" 
 />
    <glyph glyph-name="uniAE8B" unicode="&#xae8b;" 
 />
    <glyph glyph-name="uniAE8C" unicode="&#xae8c;" 
d="M835 568h139v40h-139v132h-50v-466h50v130h139v40h-139v124zM865 -130v40h-560v119h531v195h-581v-40h531v-115h-531v-199h610zM370 274q128 68 200 177.5t82 217.5h-231v-40h176q-9 -78 -79.5 -175.5t-183.5 -151.5zM124 314q128 68 191.5 157.5t73.5 197.5h-253v-40
h198q-9 -78 -72.5 -156t-174.5 -133z" />
    <glyph glyph-name="uniAE8D" unicode="&#xae8d;" 
 />
    <glyph glyph-name="uniAE8E" unicode="&#xae8e;" 
 />
    <glyph glyph-name="uniAE8F" unicode="&#xae8f;" 
 />
    <glyph glyph-name="uniAE90" unicode="&#xae90;" 
 />
    <glyph glyph-name="uniAE91" unicode="&#xae91;" 
 />
    <glyph glyph-name="uniAE92" unicode="&#xae92;" 
 />
    <glyph glyph-name="uniAE93" unicode="&#xae93;" 
 />
    <glyph glyph-name="uniAE94" unicode="&#xae94;" 
 />
    <glyph glyph-name="uniAE95" unicode="&#xae95;" 
 />
    <glyph glyph-name="uniAE96" unicode="&#xae96;" 
 />
    <glyph glyph-name="uniAE97" unicode="&#xae97;" 
 />
    <glyph glyph-name="uniAE98" unicode="&#xae98;" 
 />
    <glyph glyph-name="uniAE99" unicode="&#xae99;" 
 />
    <glyph glyph-name="uniAE9A" unicode="&#xae9a;" 
 />
    <glyph glyph-name="uniAE9B" unicode="&#xae9b;" 
 />
    <glyph glyph-name="uniAE9C" unicode="&#xae9c;" 
 />
    <glyph glyph-name="uniAE9D" unicode="&#xae9d;" 
 />
    <glyph glyph-name="uniAE9E" unicode="&#xae9e;" 
 />
    <glyph glyph-name="uniAE9F" unicode="&#xae9f;" 
 />
    <glyph glyph-name="uniAEA0" unicode="&#xaea0;" 
 />
    <glyph glyph-name="uniAEA1" unicode="&#xaea1;" 
 />
    <glyph glyph-name="uniAEA2" unicode="&#xaea2;" 
 />
    <glyph glyph-name="uniAEA3" unicode="&#xaea3;" 
 />
    <glyph glyph-name="uniAEA4" unicode="&#xaea4;" 
 />
    <glyph glyph-name="uniAEA5" unicode="&#xaea5;" 
 />
    <glyph glyph-name="uniAEA6" unicode="&#xaea6;" 
 />
    <glyph glyph-name="uniAEA7" unicode="&#xaea7;" 
 />
    <glyph glyph-name="uniAEA8" unicode="&#xaea8;" 
 />
    <glyph glyph-name="uniAEA9" unicode="&#xaea9;" 
 />
    <glyph glyph-name="uniAEAA" unicode="&#xaeaa;" 
 />
    <glyph glyph-name="uniAEAB" unicode="&#xaeab;" 
 />
    <glyph glyph-name="uniAEAC" unicode="&#xaeac;" 
 />
    <glyph glyph-name="uniAEAD" unicode="&#xaead;" 
 />
    <glyph glyph-name="uniAEAE" unicode="&#xaeae;" 
 />
    <glyph glyph-name="uniAEAF" unicode="&#xaeaf;" 
 />
    <glyph glyph-name="uniAEB0" unicode="&#xaeb0;" 
 />
    <glyph glyph-name="uniAEB1" unicode="&#xaeb1;" 
 />
    <glyph glyph-name="uniAEB2" unicode="&#xaeb2;" 
 />
    <glyph glyph-name="uniAEB3" unicode="&#xaeb3;" 
 />
    <glyph glyph-name="uniAEB4" unicode="&#xaeb4;" 
 />
    <glyph glyph-name="uniAEB5" unicode="&#xaeb5;" 
 />
    <glyph glyph-name="uniAEB6" unicode="&#xaeb6;" 
 />
    <glyph glyph-name="uniAEB7" unicode="&#xaeb7;" 
 />
    <glyph glyph-name="uniAEB8" unicode="&#xaeb8;" 
 />
    <glyph glyph-name="uniAEB9" unicode="&#xaeb9;" 
 />
    <glyph glyph-name="uniAEBA" unicode="&#xaeba;" 
 />
    <glyph glyph-name="uniAEBB" unicode="&#xaebb;" 
 />
    <glyph glyph-name="uniAEBC" unicode="&#xaebc;" 
d="M835 376h-165v-41h165v-475h50v880h-50v-364zM436 620v-40h172q5 -172 -94 -332t-176 -228l44 -24q112 108 193.5 266t88.5 358h-228zM397 620h-254v-40h199q-1 -84 -51 -229t-193 -276l43 -22q119 113 185 261.5t71 305.5z" />
    <glyph glyph-name="uniAEBD" unicode="&#xaebd;" 
d="M265 151v-40h567v-251h50v291h-617zM835 495h-165v-40h165v-251h50v536h-50v-245zM393 228q110 74 191 191.5t84 250.5h-228v-40h173q-4 -106 -86.5 -215t-170.5 -161zM133 268q110 74 191 179t84 223h-253v-40h198q-4 -93 -86.5 -188.5t-170.5 -147.5z" />
    <glyph glyph-name="uniAEBE" unicode="&#xaebe;" 
d="M245 156v-40h254v-256h50v296h-304zM588 156v-40h244v-256h50v296h-294zM835 496h-166v-40h166v-252h50v536h-50v-244zM393 228q110 74 191 191.5t84 250.5h-228v-40h173q-4 -106 -86.5 -215t-170.5 -161zM133 268q110 74 191 179t84 223h-253v-40h198
q-4 -93 -86.5 -188.5t-170.5 -147.5z" />
    <glyph glyph-name="uniAEBF" unicode="&#xaebf;" 
 />
    <glyph glyph-name="uniAEC0" unicode="&#xaec0;" 
d="M275 150v-270h640v40h-590v230h-50zM835 465h-165v-40h165v-325h50v640h-50v-275zM390 207q110 74 193 202t86 261h-228v-40h173q-4 -106 -88.5 -225.5t-172.5 -171.5zM139 256q127 83 198 191t72 223h-253v-40h198q-1 -88 -73 -186t-179 -162z" />
    <glyph glyph-name="uniAEC1" unicode="&#xaec1;" 
 />
    <glyph glyph-name="uniAEC2" unicode="&#xaec2;" 
 />
    <glyph glyph-name="uniAEC3" unicode="&#xaec3;" 
 />
    <glyph glyph-name="uniAEC4" unicode="&#xaec4;" 
d="M835 507h-165v-40h165v-193h50v466h-50v-233zM917 -130v40h-592v119h557v195h-607v-40h557v-115h-557v-199h642zM386 274q128 68 200 177.5t82 217.5h-231v-40h176q-9 -78 -79.5 -175.5t-183.5 -151.5zM140 314q128 68 191.5 157.5t73.5 197.5h-253v-40h198
q-9 -78 -72.5 -156t-174.5 -133z" />
    <glyph glyph-name="uniAEC5" unicode="&#xaec5;" 
 />
    <glyph glyph-name="uniAEC6" unicode="&#xaec6;" 
 />
    <glyph glyph-name="uniAEC7" unicode="&#xaec7;" 
 />
    <glyph glyph-name="uniAEC8" unicode="&#xaec8;" 
 />
    <glyph glyph-name="uniAEC9" unicode="&#xaec9;" 
 />
    <glyph glyph-name="uniAECA" unicode="&#xaeca;" 
 />
    <glyph glyph-name="uniAECB" unicode="&#xaecb;" 
 />
    <glyph glyph-name="uniAECC" unicode="&#xaecc;" 
d="M325 140h507v-230h-507v230zM882 -130v310h-607v-310h607zM835 492h-165v-40h165v-222h50v510h-50v-248zM393 243q128 68 197.5 193t79.5 233h-231v-40h176q-8 -78 -76.5 -191t-181.5 -167zM137 295q128 68 195.5 169.5t74.5 204.5h-252v-40h197q-7 -78 -74 -165.5
t-178 -142.5z" />
    <glyph glyph-name="uniAECD" unicode="&#xaecd;" 
d="M325 69h507v-159h-507v159zM882 -130v344h-50v-105h-507v105h-50v-344h607zM835 507h-165v-40h165v-203h50v476h-50v-233zM386 274q128 68 200 177.5t82 217.5h-231v-40h176q-9 -78 -79.5 -175.5t-183.5 -151.5zM140 314q128 68 191.5 157.5t73.5 197.5h-253v-40h198
q-9 -78 -72.5 -156t-174.5 -133z" />
    <glyph glyph-name="uniAECE" unicode="&#xaece;" 
 />
    <glyph glyph-name="uniAECF" unicode="&#xaecf;" 
d="M835 487h-165v-40h165v-301h50v594h-50v-253zM390 207q110 74 193 202t86 261h-228v-40h173q-4 -106 -88.5 -225.5t-172.5 -171.5zM139 256q127 83 198 191t72 223h-253v-40h198q-1 -88 -73 -186t-179 -162zM608 207h-60v-12q0 -92 -90.5 -179t-223.5 -125l38 -35
q76 19 177 95.5t129 155.5q29 -79 129.5 -155.5t176.5 -95.5l38 35q-133 38 -223.5 125t-90.5 179v12z" />
    <glyph glyph-name="uniAED0" unicode="&#xaed0;" 
d="M835 493h-165v-40h165v-231h50v518h-50v-247zM393 243q128 68 197.5 193t79.5 233h-231v-40h176q-8 -78 -76.5 -191t-181.5 -167zM137 295q128 68 195.5 169.5t74.5 204.5h-252v-40h197q-7 -78 -74 -165.5t-178 -142.5zM581 -144q59 35 104.5 97t63.5 111
q11 -49 62 -111.5t110 -94.5l34 31q-86 47 -133.5 123.5t-47.5 164.5v12h-50v-12q0 -88 -45 -158.5t-99 -111.5q-54 41 -98.5 111.5t-44.5 158.5v12h-50v-12q0 -88 -47.5 -164.5t-133.5 -123.5l34 -31q59 32 110 94.5t62 111.5q18 -49 64 -112.5t105 -95.5z" />
    <glyph glyph-name="uniAED1" unicode="&#xaed1;" 
d="M835 484h-165v-41h165v-234h50v531h-50v-256zM394 228q110 74 191 191.5t84 250.5h-228v-40h173q-4 -106 -86.5 -215t-170.5 -161zM576 138q108 0 184 -33.5t76 -95.5q0 -60 -76.5 -93.5t-183.5 -33.5q-106 0 -184 33.5t-78 93.5q0 62 77.5 95.5t184.5 33.5zM575 181
q-144 0 -229 -48.5t-85 -122.5t85 -122t229 -48q146 0 230 48t84 122t-84 122.5t-230 48.5zM134 268q110 74 191 179t84 223h-253v-40h198q-4 -93 -86.5 -188.5t-170.5 -147.5z" />
    <glyph glyph-name="uniAED2" unicode="&#xaed2;" 
 />
    <glyph glyph-name="uniAED3" unicode="&#xaed3;" 
 />
    <glyph glyph-name="uniAED4" unicode="&#xaed4;" 
 />
    <glyph glyph-name="uniAED5" unicode="&#xaed5;" 
 />
    <glyph glyph-name="uniAED6" unicode="&#xaed6;" 
 />
    <glyph glyph-name="uniAED7" unicode="&#xaed7;" 
 />
    <glyph glyph-name="uniAED8" unicode="&#xaed8;" 
d="M675 377h-115v-40h115v-437h50v820h-50v-343zM845 740v-880h50v880h-50zM576 613h-181v-40h130q-2 -116 -66.5 -276.5t-172.5 -273.5l40 -20q113 119 181 296t69 314zM369 614h-219v-40h168q-2 -116 -59.5 -247.5t-165.5 -244.5l40 -20q113 119 174 267t62 285z" />
    <glyph glyph-name="uniAED9" unicode="&#xaed9;" 
d="M680 492h-115v-42h115v-245h50v515h-50v-228zM850 740v-535h50v535h-50zM260 144v-40h587v-244h50v284h-637zM369 670h-222v-40h169q-3 -82 -72 -175t-164 -148l36 -27q101 55 176 167t77 223zM579 670h-188v-40h135q-1 -97 -73 -212.5t-167 -170.5l36 -27
q101 55 178.5 190.5t78.5 259.5z" />
    <glyph glyph-name="uniAEDA" unicode="&#xaeda;" 
 />
    <glyph glyph-name="uniAEDB" unicode="&#xaedb;" 
 />
    <glyph glyph-name="uniAEDC" unicode="&#xaedc;" 
d="M280 150v-270h650v40h-600v230h-50zM680 470h-115v-43h115v-322h50v615h-50v-250zM850 740v-645h50v645h-50zM369 671h-222v-40h169q-3 -73 -66.5 -180.5t-159.5 -162.5l36 -27q101 68 170 184.5t73 225.5zM579 671h-188v-40h135q-1 -97 -68.5 -221t-162.5 -179l36 -27
q107 74 177 205t71 262z" />
    <glyph glyph-name="uniAEDD" unicode="&#xaedd;" 
 />
    <glyph glyph-name="uniAEDE" unicode="&#xaede;" 
 />
    <glyph glyph-name="uniAEDF" unicode="&#xaedf;" 
 />
    <glyph glyph-name="uniAEE0" unicode="&#xaee0;" 
 />
    <glyph glyph-name="uniAEE1" unicode="&#xaee1;" 
 />
    <glyph glyph-name="uniAEE2" unicode="&#xaee2;" 
 />
    <glyph glyph-name="uniAEE3" unicode="&#xaee3;" 
 />
    <glyph glyph-name="uniAEE4" unicode="&#xaee4;" 
 />
    <glyph glyph-name="uniAEE5" unicode="&#xaee5;" 
 />
    <glyph glyph-name="uniAEE6" unicode="&#xaee6;" 
 />
    <glyph glyph-name="uniAEE7" unicode="&#xaee7;" 
 />
    <glyph glyph-name="uniAEE8" unicode="&#xaee8;" 
d="M330 140h517v-230h-517v230zM897 -130v310h-617v-310h617zM685 494h-120v-43h120v-221h49v490h-49v-226zM850 740v-510h50v510h-50zM371 670h-222v-40h169q-3 -71 -72 -161.5t-164 -140.5l36 -27q101 58 174.5 157.5t78.5 211.5zM581 670h-188v-40h135q-1 -94 -73 -200.5
t-167 -161.5l36 -27q107 69 181 183.5t76 245.5z" />
    <glyph glyph-name="uniAEE9" unicode="&#xaee9;" 
 />
    <glyph glyph-name="uniAEEA" unicode="&#xaeea;" 
 />
    <glyph glyph-name="uniAEEB" unicode="&#xaeeb;" 
d="M680 476h-115v-40h115v-251h50v535h-50v-244zM850 740v-605h50v605h-50zM369 671h-222v-40h169q-3 -73 -66.5 -180.5t-159.5 -162.5l36 -27q101 68 170 184.5t73 225.5zM579 671h-188v-40h135q-1 -97 -68.5 -221t-162.5 -179l36 -27q107 74 177 205t71 262zM526 182
q0 -92 -90.5 -171.5t-223.5 -117.5l38 -35q76 19 177 87t129 147q29 -79 129.5 -147t176.5 -87l38 35q-133 38 -223.5 117.5t-90.5 171.5h-60z" />
    <glyph glyph-name="uniAEEC" unicode="&#xaeec;" 
 />
    <glyph glyph-name="uniAEED" unicode="&#xaeed;" 
d="M680 485h-115v-40h115v-209h50v484h-50v-235zM850 740v-538h50v538h-50zM369 670h-222v-40h169q-3 -82 -72 -175t-164 -148l36 -27q101 55 176 167t77 223zM579 670h-188v-40h135q-1 -97 -73 -212.5t-167 -170.5l36 -27q101 55 178.5 190.5t78.5 259.5zM576 137
q108 0 192 -33.5t84 -95.5q0 -60 -83.5 -93.5t-192.5 -33.5t-192.5 33.5t-83.5 93.5q0 62 83.5 95.5t192.5 33.5zM576 180q-146 0 -237.5 -48.5t-91.5 -122.5t92 -122t237 -48q146 0 237.5 48t91.5 122t-92 122.5t-237 48.5z" />
    <glyph glyph-name="uniAEEE" unicode="&#xaeee;" 
 />
    <glyph glyph-name="uniAEEF" unicode="&#xaeef;" 
 />
    <glyph glyph-name="uniAEF0" unicode="&#xaef0;" 
 />
    <glyph glyph-name="uniAEF1" unicode="&#xaef1;" 
 />
    <glyph glyph-name="uniAEF2" unicode="&#xaef2;" 
 />
    <glyph glyph-name="uniAEF3" unicode="&#xaef3;" 
 />
    <glyph glyph-name="uniAEF4" unicode="&#xaef4;" 
d="M830 495h-160v-42h160v-200h-178v-42h178v-351h50v880h-50v-245zM430 620v-40h172q5 -172 -94 -332t-176 -228l44 -24q112 108 193.5 266t88.5 358h-228zM391 620h-254v-40h199q-1 -84 -51 -229t-193 -276l43 -22q119 113 185 261.5t71 305.5z" />
    <glyph glyph-name="uniAEF5" unicode="&#xaef5;" 
 />
    <glyph glyph-name="uniAEF6" unicode="&#xaef6;" 
 />
    <glyph glyph-name="uniAEF7" unicode="&#xaef7;" 
 />
    <glyph glyph-name="uniAEF8" unicode="&#xaef8;" 
d="M275 150v-270h640v40h-590v230h-50zM835 574h-140v-42h140v-145h-160v-42h160v-245h50v640h-50v-166zM390 207q110 74 193 202t86 261h-228v-40h173q-4 -106 -88.5 -225.5t-172.5 -171.5zM139 256q127 83 198 191t72 223h-253v-40h198q-1 -88 -73 -186t-179 -162z" />
    <glyph glyph-name="uniAEF9" unicode="&#xaef9;" 
 />
    <glyph glyph-name="uniAEFA" unicode="&#xaefa;" 
 />
    <glyph glyph-name="uniAEFB" unicode="&#xaefb;" 
 />
    <glyph glyph-name="uniAEFC" unicode="&#xaefc;" 
d="M835 590h-140v-40h140v-109h-155v-40h155v-127h50v466h-50v-150zM922 -130v40h-597v119h557v195h-607v-40h557v-115h-557v-199h647zM386 274q128 68 200 177.5t82 217.5h-231v-40h176q-9 -78 -79.5 -175.5t-183.5 -151.5zM140 314q128 68 191.5 157.5t73.5 197.5h-253
v-40h198q-9 -78 -72.5 -156t-174.5 -133z" />
    <glyph glyph-name="uniAEFD" unicode="&#xaefd;" 
 />
    <glyph glyph-name="uniAEFE" unicode="&#xaefe;" 
 />
    <glyph glyph-name="uniAEFF" unicode="&#xaeff;" 
 />
    <glyph glyph-name="uniAF00" unicode="&#xaf00;" 
 />
    <glyph glyph-name="uniAF01" unicode="&#xaf01;" 
 />
    <glyph glyph-name="uniAF02" unicode="&#xaf02;" 
 />
    <glyph glyph-name="uniAF03" unicode="&#xaf03;" 
 />
    <glyph glyph-name="uniAF04" unicode="&#xaf04;" 
 />
    <glyph glyph-name="uniAF05" unicode="&#xaf05;" 
 />
    <glyph glyph-name="uniAF06" unicode="&#xaf06;" 
 />
    <glyph glyph-name="uniAF07" unicode="&#xaf07;" 
d="M835 574h-140v-40h140v-137h-155v-40h155v-211h50v594h-50v-166zM390 207q110 74 193 202t86 261h-228v-40h173q-4 -106 -88.5 -225.5t-172.5 -171.5zM139 256q127 83 198 191t72 223h-253v-40h198q-1 -88 -73 -186t-179 -162zM608 210h-60v-12q0 -92 -90.5 -179
t-223.5 -125l38 -35q76 19 177 95.5t129 155.5q29 -79 129.5 -155.5t176.5 -95.5l38 35q-133 38 -223.5 125t-90.5 179v12z" />
    <glyph glyph-name="uniAF08" unicode="&#xaf08;" 
d="M835 584h-140v-40h140v-131h-155v-41h155v-150h50v518h-50v-156zM393 243q128 68 197.5 193t79.5 233h-231v-40h176q-8 -78 -76.5 -191t-181.5 -167zM137 295q128 68 195.5 169.5t74.5 204.5h-252v-40h197q-7 -78 -74 -165.5t-178 -142.5zM581 -142q59 35 104.5 97
t63.5 111q11 -49 62 -111.5t110 -94.5l34 31q-86 47 -133.5 123.5t-47.5 164.5v12h-50v-12q0 -88 -45 -158.5t-99 -111.5q-54 41 -98.5 111.5t-44.5 158.5v12h-50v-12q0 -88 -47.5 -164.5t-133.5 -123.5l34 -31q59 32 110 94.5t62 111.5q18 -49 64 -112.5t105 -95.5z" />
    <glyph glyph-name="uniAF09" unicode="&#xaf09;" 
 />
    <glyph glyph-name="uniAF0A" unicode="&#xaf0a;" 
 />
    <glyph glyph-name="uniAF0B" unicode="&#xaf0b;" 
 />
    <glyph glyph-name="uniAF0C" unicode="&#xaf0c;" 
 />
    <glyph glyph-name="uniAF0D" unicode="&#xaf0d;" 
d="M835 585h-140v-40h140v-119h-155v-40h155v-112h50v466h-50v-155zM325 -90v115h554v40h-554v108h557v40h-607v-343h637v40h-587zM386 274q128 68 200 177.5t82 217.5h-231v-40h176q-9 -78 -79.5 -175.5t-183.5 -151.5zM140 314q128 68 191.5 157.5t73.5 197.5h-253v-40
h198q-9 -78 -72.5 -156t-174.5 -133z" />
    <glyph glyph-name="uniAF0E" unicode="&#xaf0e;" 
 />
    <glyph glyph-name="uniAF0F" unicode="&#xaf0f;" 
 />
    <glyph glyph-name="uniAF10" unicode="&#xaf10;" 
d="M845 740v-880h50v880h-50zM576 500v-42h109v-195h-127v-41h127v-322h50v820h-50v-220h-109zM576 613h-181v-40h130q-2 -116 -66.5 -276.5t-172.5 -273.5l40 -20q113 119 181 296t69 314zM369 614h-219v-40h168q-2 -116 -59.5 -247.5t-165.5 -244.5l40 -20
q113 119 174 267t62 285z" />
    <glyph glyph-name="uniAF11" unicode="&#xaf11;" 
 />
    <glyph glyph-name="uniAF12" unicode="&#xaf12;" 
 />
    <glyph glyph-name="uniAF13" unicode="&#xaf13;" 
 />
    <glyph glyph-name="uniAF14" unicode="&#xaf14;" 
 />
    <glyph glyph-name="uniAF15" unicode="&#xaf15;" 
 />
    <glyph glyph-name="uniAF16" unicode="&#xaf16;" 
 />
    <glyph glyph-name="uniAF17" unicode="&#xaf17;" 
 />
    <glyph glyph-name="uniAF18" unicode="&#xaf18;" 
 />
    <glyph glyph-name="uniAF19" unicode="&#xaf19;" 
 />
    <glyph glyph-name="uniAF1A" unicode="&#xaf1a;" 
 />
    <glyph glyph-name="uniAF1B" unicode="&#xaf1b;" 
 />
    <glyph glyph-name="uniAF1C" unicode="&#xaf1c;" 
 />
    <glyph glyph-name="uniAF1D" unicode="&#xaf1d;" 
 />
    <glyph glyph-name="uniAF1E" unicode="&#xaf1e;" 
 />
    <glyph glyph-name="uniAF1F" unicode="&#xaf1f;" 
 />
    <glyph glyph-name="uniAF20" unicode="&#xaf20;" 
 />
    <glyph glyph-name="uniAF21" unicode="&#xaf21;" 
 />
    <glyph glyph-name="uniAF22" unicode="&#xaf22;" 
 />
    <glyph glyph-name="uniAF23" unicode="&#xaf23;" 
 />
    <glyph glyph-name="uniAF24" unicode="&#xaf24;" 
 />
    <glyph glyph-name="uniAF25" unicode="&#xaf25;" 
 />
    <glyph glyph-name="uniAF26" unicode="&#xaf26;" 
 />
    <glyph glyph-name="uniAF27" unicode="&#xaf27;" 
 />
    <glyph glyph-name="uniAF28" unicode="&#xaf28;" 
 />
    <glyph glyph-name="uniAF29" unicode="&#xaf29;" 
 />
    <glyph glyph-name="uniAF2A" unicode="&#xaf2a;" 
 />
    <glyph glyph-name="uniAF2B" unicode="&#xaf2b;" 
 />
    <glyph glyph-name="uniAF2C" unicode="&#xaf2c;" 
d="M540 35v314h-50v-314h-430v-40h880v40h-400zM490 627v-40h293q-10 -145 -28 -266.5t-26 -163.5h48q8 42 26 157.5t34 312.5h-347zM360 157q11 36 39.5 165t42.5 305h-302v-40h252q-7 -115 -37.5 -253.5t-42.5 -176.5h48z" />
    <glyph glyph-name="uniAF2D" unicode="&#xaf2d;" 
d="M171 130v-40h594v-230h50v270h-644zM523 286v199h-50v-199h-413v-40h880v40h-417zM493 693v-40h291q-5 -60 -21.5 -141t-32.5 -140h48q20 69 36 148t26 173h-347zM371 372q10 26 38.5 123.5t40.5 197.5h-301v-40h247q-10 -76 -37.5 -165.5t-36.5 -115.5h49z" />
    <glyph glyph-name="uniAF2E" unicode="&#xaf2e;" 
 />
    <glyph glyph-name="uniAF2F" unicode="&#xaf2f;" 
 />
    <glyph glyph-name="uniAF30" unicode="&#xaf30;" 
d="M523 270v205h-50v-205h-413v-40h880v40h-417zM185 148v-268h661v40h-611v228h-50zM493 693v-40h291q-5 -60 -19.5 -145t-29.5 -144h48q17 69 32 153.5t25 175.5h-347zM370 364q10 26 39 127.5t41 201.5h-301v-40h247q-10 -76 -38 -169.5t-37 -119.5h49z" />
    <glyph glyph-name="uniAF31" unicode="&#xaf31;" 
 />
    <glyph glyph-name="uniAF32" unicode="&#xaf32;" 
d="M675 15q50 0 87 -17.5t37 -49.5q0 -31 -37 -47t-87 -16q-51 0 -87.5 16t-36.5 47q0 32 36.5 49.5t87.5 17.5zM675 53q-81 0 -129.5 -29t-48.5 -75t48 -75t130 -29t130 29t48 75q0 45 -48 74.5t-130 29.5zM472 -118v39q-19 -4 -76.5 -7.5t-87.5 -3.5h-83v304h-50v-344h133
q30 0 88 4t76 8zM524 331v175h-50v-175h-414v-40h880v40h-416zM466 134v-42h418v42h-418zM556 233v-42h238v42h-238zM493 696v-40h291q-5 -60 -21.5 -135.5t-32.5 -134.5h48q19 69 34.5 142.5t27.5 167.5h-347zM371 386q10 26 38 118t41 192h-301v-40h247
q-10 -76 -37.5 -160l-36.5 -110h49z" />
    <glyph glyph-name="uniAF33" unicode="&#xaf33;" 
 />
    <glyph glyph-name="uniAF34" unicode="&#xaf34;" 
d="M524 346v168h-50v-168h-414v-40h880v40h-416zM840 -130v40h-606v114h581v186h-631v-40h581v-106h-581v-194h656zM493 693v-40h291q-5 -60 -18 -125.5t-30 -124.5h48q19 69 31.5 132.5t24.5 157.5h-347zM377 403q10 26 35 108t38 182h-301v-40h247q-10 -76 -33.5 -150
t-34.5 -100h49z" />
    <glyph glyph-name="uniAF35" unicode="&#xaf35;" 
 />
    <glyph glyph-name="uniAF36" unicode="&#xaf36;" 
 />
    <glyph glyph-name="uniAF37" unicode="&#xaf37;" 
 />
    <glyph glyph-name="uniAF38" unicode="&#xaf38;" 
 />
    <glyph glyph-name="uniAF39" unicode="&#xaf39;" 
 />
    <glyph glyph-name="uniAF3A" unicode="&#xaf3a;" 
 />
    <glyph glyph-name="uniAF3B" unicode="&#xaf3b;" 
 />
    <glyph glyph-name="uniAF3C" unicode="&#xaf3c;" 
d="M235 -90v215h530v-215h-530zM185 -130h630v295h-630v-295zM523 317v189h-50v-189h-413v-40h880v40h-417zM493 696v-40h291q-5 -60 -21.5 -135.5t-32.5 -134.5h48q19 69 34.5 142.5t27.5 167.5h-347zM371 386q10 26 38 118t41 192h-301v-40h247q-10 -76 -37.5 -160
l-36.5 -110h49z" />
    <glyph glyph-name="uniAF3D" unicode="&#xaf3d;" 
d="M235 -90v145h530v-145h-530zM185 -130h630v344h-50v-119h-530v119h-50v-344zM523 330v181h-50v-181h-413v-40h880v40h-417zM493 693v-40h291q-5 -60 -18.5 -128t-30.5 -127h48q19 69 32.5 135t24.5 160h-347zM376 398q10 26 35.5 110.5t38.5 184.5h-301v-40h247
q-10 -76 -34 -152.5t-35 -102.5h49z" />
    <glyph glyph-name="uniAF3E" unicode="&#xaf3e;" 
 />
    <glyph glyph-name="uniAF3F" unicode="&#xaf3f;" 
d="M523 285v199h-50v-199h-413v-40h880v40h-417zM493 693v-40h291q-5 -60 -22 -138.5t-33 -137.5h48q19 69 35 145.5t28 170.5h-347zM370 377q10 26 38.5 121t41.5 195h-301v-40h247q-10 -76 -38 -163t-37 -113h49zM529 167h-60v-19q0 -79 -107 -153.5t-237 -102.5l34 -37
q106 27 209 87t131 138q35 -78 135.5 -139t206.5 -88l37 38q-133 32 -241 105t-108 152v19z" />
    <glyph glyph-name="uniAF40" unicode="&#xaf40;" 
 />
    <glyph glyph-name="uniAF41" unicode="&#xaf41;" 
d="M522 297v194h-50v-194h-412v-40h880v40h-418zM500 135q122 0 202.5 -32.5t80.5 -93.5q0 -59 -80.5 -92t-202.5 -33q-123 0 -203 33t-80 92q0 61 80 93.5t203 32.5zM500 178q-159 0 -247 -47.5t-88 -121.5t88 -121.5t247 -47.5q160 0 247.5 47.5t87.5 121.5t-87.5 121.5
t-247.5 47.5zM493 693v-40h291q-5 -60 -21.5 -138t-32.5 -137h48q20 69 35.5 145t26.5 170h-347zM371 378q10 26 38.5 120.5t40.5 194.5h-301v-40h247q-10 -76 -37.5 -162.5t-36.5 -112.5h49z" />
    <glyph glyph-name="uniAF42" unicode="&#xaf42;" 
d="M525 315v190h-50v-190h-415v-40h880v40h-415zM493 693v-40h291q-5 -60 -19 -131t-31 -130h48q19 69 32.5 138t25.5 163h-347zM375 392q10 26 36 113.5t39 187.5h-301v-40h247q-10 -76 -34.5 -155.5t-35.5 -105.5h49zM526 120v15h304v40h-661v-40h306v-15q0 -72 -113 -141
t-236 -80l31 -41q125 23 218 76.5t126 114.5q35 -61 126.5 -115t215.5 -77l31 42q-115 11 -231.5 80t-116.5 141z" />
    <glyph glyph-name="uniAF43" unicode="&#xaf43;" 
d="M493 693v-40h291q-5 -60 -18 -125.5t-30 -124.5h48q18 69 31 132.5t25 157.5h-347zM377 403q10 26 35 108t38 182h-301v-40h247q-10 -76 -33.5 -150t-34.5 -100h49zM940 309v40h-416v165h-50v-165h-414v-40h880zM686 189v43h-372v-43h372zM879 -104q-73 1 -211 53
t-142 128h315v41h-685v-41h316q-4 -80 -140 -131t-209 -50l35 -39q82 8 193 55t148 109q40 -61 151.5 -108.5t193.5 -55.5z" />
    <glyph glyph-name="uniAF44" unicode="&#xaf44;" 
 />
    <glyph glyph-name="uniAF45" unicode="&#xaf45;" 
 />
    <glyph glyph-name="uniAF46" unicode="&#xaf46;" 
 />
    <glyph glyph-name="uniAF47" unicode="&#xaf47;" 
 />
    <glyph glyph-name="uniAF48" unicode="&#xaf48;" 
d="M370 630v-40h213q-5 -90 -19 -194t-24 -168h49q10 65 24.5 175.5t21.5 226.5h-265zM279 228l33 177.5t31 224.5h-233v-40h182q-10 -109 -27.5 -196l-34.5 -166h49zM770 740v-880h50v452h145v41h-145v387h-50zM725 59v41q-59 -10 -163.5 -17t-149.5 -7v277h-50v-278h-282
v-40h240q127 0 240 8.5t165 15.5z" />
    <glyph glyph-name="uniAF49" unicode="&#xaf49;" 
d="M205 133v-40h565v-233h50v273h-615zM373 685v-40h203q-9 -91 -22 -162t-24 -120h49q12 53 25 125.5t26 196.5h-257zM274 363q17 64 35.5 145.5t31.5 176.5h-221v-40h167q-13 -88 -30 -158t-32 -124h49zM770 740v-564h50v262h136v40h-136v262h-50zM731 267v42
q-60 -10 -167.5 -18t-153.5 -8v207h-50v-208h-290v-40h222q151 0 269 9t170 16z" />
    <glyph glyph-name="uniAF4A" unicode="&#xaf4a;" 
 />
    <glyph glyph-name="uniAF4B" unicode="&#xaf4b;" 
 />
    <glyph glyph-name="uniAF4C" unicode="&#xaf4c;" 
 />
    <glyph glyph-name="uniAF4D" unicode="&#xaf4d;" 
 />
    <glyph glyph-name="uniAF4E" unicode="&#xaf4e;" 
 />
    <glyph glyph-name="uniAF4F" unicode="&#xaf4f;" 
 />
    <glyph glyph-name="uniAF50" unicode="&#xaf50;" 
d="M856 -130v40h-576v109h540v185h-590v-40h540v-105h-540v-189h626zM373 689v-40h204q-5 -59 -16.5 -117.5t-29.5 -120.5h49q14 52 28 121.5t23 156.5h-258zM281 411q22 69 36.5 132.5t27.5 145.5h-228v-40h174q-7 -55 -24 -122.5t-35 -115.5h49zM770 740v-486h50v215h136
v40h-136v231h-50zM730 316v41q-58 -9 -155.5 -17t-164.5 -8v186h-50v-187h-290v-40h181q215 0 321 9t158 16z" />
    <glyph glyph-name="uniAF51" unicode="&#xaf51;" 
 />
    <glyph glyph-name="uniAF52" unicode="&#xaf52;" 
 />
    <glyph glyph-name="uniAF53" unicode="&#xaf53;" 
 />
    <glyph glyph-name="uniAF54" unicode="&#xaf54;" 
 />
    <glyph glyph-name="uniAF55" unicode="&#xaf55;" 
 />
    <glyph glyph-name="uniAF56" unicode="&#xaf56;" 
 />
    <glyph glyph-name="uniAF57" unicode="&#xaf57;" 
 />
    <glyph glyph-name="uniAF58" unicode="&#xaf58;" 
 />
    <glyph glyph-name="uniAF59" unicode="&#xaf59;" 
 />
    <glyph glyph-name="uniAF5A" unicode="&#xaf5a;" 
 />
    <glyph glyph-name="uniAF5B" unicode="&#xaf5b;" 
 />
    <glyph glyph-name="uniAF5C" unicode="&#xaf5c;" 
d="M373 685v-40h203q-9 -91 -22.5 -159t-23.5 -113h49q11 50 24.5 119t26.5 193h-257zM274 373q11 50 32.5 133.5t34.5 178.5h-221v-40h167q-13 -88 -31.5 -156t-30.5 -116h49zM770 740v-537h50v247h136v40h-136v250h-50zM731 266v42q-60 -10 -167.5 -17.5t-153.5 -7.5v207
h-50v-208h-290v-40h222q151 0 269 8.5t170 15.5zM534 -139q53 27 104.5 79t67.5 107q18 -50 63.5 -100.5t106.5 -85.5l36 28q-65 35 -123 99.5t-58 153.5v24h-50v-24q0 -88 -51.5 -148t-95.5 -82q-34 23 -88.5 81t-54.5 149v24h-50v-24q0 -89 -58 -153.5t-123 -99.5l36 -28
q61 35 106.5 85.5t63.5 100.5q18 -52 66.5 -104.5t101.5 -81.5z" />
    <glyph glyph-name="uniAF5D" unicode="&#xaf5d;" 
d="M520 125q114 0 190 -31.5t76 -91.5q0 -58 -76 -90.5t-190 -32.5q-115 0 -190.5 32.5t-75.5 90.5q0 60 75.5 91.5t190.5 31.5zM520 167q-154 0 -236.5 -46t-82.5 -118t82.5 -118.5t236.5 -46.5q155 0 237 46.5t82 118.5t-82 118t-237 46zM770 740v-561h50v266h136v40h-136
v255h-50zM373 685v-40h203q-9 -91 -22 -156.5t-24 -114.5h49q12 53 25 120t26 191h-257zM274 374l35.5 140t31.5 171h-221v-40h167q-13 -88 -30 -152.5l-32 -118.5h49zM731 266v42q-60 -10 -167.5 -17.5t-153.5 -7.5v207h-50v-208h-290v-40h222q151 0 269 8.5t170 15.5z" />
    <glyph glyph-name="uniAF5E" unicode="&#xaf5e;" 
 />
    <glyph glyph-name="uniAF5F" unicode="&#xaf5f;" 
 />
    <glyph glyph-name="uniAF60" unicode="&#xaf60;" 
 />
    <glyph glyph-name="uniAF61" unicode="&#xaf61;" 
 />
    <glyph glyph-name="uniAF62" unicode="&#xaf62;" 
 />
    <glyph glyph-name="uniAF63" unicode="&#xaf63;" 
 />
    <glyph glyph-name="uniAF64" unicode="&#xaf64;" 
d="M660 720v-820h50v420h120v-460h50v880h-50v-380h-120v360h-50zM620 68v40q-36 -6 -117.5 -13.5t-122.5 -7.5v271h-49v-272h-231v-42h180q113 0 214 10t126 14zM358 622v-40h151q-4 -88 -15 -187t-21 -167h49q9 58 22.5 181.5t17.5 212.5h-204zM246 228q22 84 43 176
t36 218h-195v-40h140q-7 -79 -29.5 -174.5t-45.5 -179.5h51z" />
    <glyph glyph-name="uniAF65" unicode="&#xaf65;" 
d="M245 130v-40h587v-230h50v270h-637zM665 725v-549h50v270h120v-270h50v564h-50v-254h-120v239h-50zM630 254v40q-42 -7 -130.5 -14.5t-121.5 -7.5v203h-50v-203h-233v-41h149q138 0 238 7.5t148 15.5zM351 685v-40h161q-7 -85 -16.5 -157.5t-19.5 -128.5h49l18.5 131.5
t21.5 194.5h-214zM254 359q20 72 38.5 154t32.5 172h-190v-40h135q-7 -58 -27.5 -141t-40.5 -145h52z" />
    <glyph glyph-name="uniAF66" unicode="&#xaf66;" 
 />
    <glyph glyph-name="uniAF67" unicode="&#xaf67;" 
 />
    <glyph glyph-name="uniAF68" unicode="&#xaf68;" 
 />
    <glyph glyph-name="uniAF69" unicode="&#xaf69;" 
 />
    <glyph glyph-name="uniAF6A" unicode="&#xaf6a;" 
 />
    <glyph glyph-name="uniAF6B" unicode="&#xaf6b;" 
 />
    <glyph glyph-name="uniAF6C" unicode="&#xaf6c;" 
 />
    <glyph glyph-name="uniAF6D" unicode="&#xaf6d;" 
 />
    <glyph glyph-name="uniAF6E" unicode="&#xaf6e;" 
 />
    <glyph glyph-name="uniAF6F" unicode="&#xaf6f;" 
 />
    <glyph glyph-name="uniAF70" unicode="&#xaf70;" 
 />
    <glyph glyph-name="uniAF71" unicode="&#xaf71;" 
 />
    <glyph glyph-name="uniAF72" unicode="&#xaf72;" 
 />
    <glyph glyph-name="uniAF73" unicode="&#xaf73;" 
 />
    <glyph glyph-name="uniAF74" unicode="&#xaf74;" 
 />
    <glyph glyph-name="uniAF75" unicode="&#xaf75;" 
 />
    <glyph glyph-name="uniAF76" unicode="&#xaf76;" 
 />
    <glyph glyph-name="uniAF77" unicode="&#xaf77;" 
 />
    <glyph glyph-name="uniAF78" unicode="&#xaf78;" 
 />
    <glyph glyph-name="uniAF79" unicode="&#xaf79;" 
d="M351 689v-40h161q-7 -85 -16.5 -154t-19.5 -125h49q8 59 18.5 128t21.5 191h-214zM254 370q20 72 38.5 150.5t32.5 168.5h-190v-40h135q-8 -58 -28 -137.5t-40 -141.5h52zM885 184v556h-50v-247h-120v232h-50v-516h50v243h120v-268h50zM630 274v38q-43 -8 -131 -16
t-121 -8v194h-50v-194h-233v-40h149q138 0 237.5 8.5t148.5 17.5zM888 4q0 72 -88 119t-236 47q-147 0 -235.5 -47.5t-88.5 -118.5q0 -70 88.5 -117.5t235.5 -47.5q149 0 236.5 47.5t87.5 117.5zM835 3q0 -57 -82 -90t-189 -33q-106 0 -188.5 33t-82.5 90t82.5 91t188.5 34
q107 0 189 -34.5t82 -90.5z" />
    <glyph glyph-name="uniAF7A" unicode="&#xaf7a;" 
 />
    <glyph glyph-name="uniAF7B" unicode="&#xaf7b;" 
 />
    <glyph glyph-name="uniAF7C" unicode="&#xaf7c;" 
 />
    <glyph glyph-name="uniAF7D" unicode="&#xaf7d;" 
 />
    <glyph glyph-name="uniAF7E" unicode="&#xaf7e;" 
 />
    <glyph glyph-name="uniAF7F" unicode="&#xaf7f;" 
 />
    <glyph glyph-name="uniAF80" unicode="&#xaf80;" 
d="M820 740v-880h50v880h-50zM407 630v-40h229q-5 -90 -19 -194t-24 -168h49q10 65 24.5 175.5t21.5 226.5h-281zM314 228l33 177.5t31 224.5h-229v-40h178q-10 -109 -27.5 -196l-34.5 -166h49zM775 62v41q-59 -10 -163.5 -17t-149.5 -7v274h-50v-275h-302v-40h250
q127 0 245 8.5t170 15.5z" />
    <glyph glyph-name="uniAF81" unicode="&#xaf81;" 
 />
    <glyph glyph-name="uniAF82" unicode="&#xaf82;" 
 />
    <glyph glyph-name="uniAF83" unicode="&#xaf83;" 
 />
    <glyph glyph-name="uniAF84" unicode="&#xaf84;" 
d="M260 130v-250h640v40h-590v210h-50zM820 740v-660h50v660h-50zM419 685v-40h212q-4 -69 -16.5 -147t-29.5 -146h49q17 76 30.5 164t20.5 169h-266zM319 352q17 64 35.5 151t31.5 182h-226v-40h172q-13 -88 -30 -163.5t-32 -129.5h49zM781 236v42q-60 -10 -167.5 -17.5
t-153.5 -7.5v205h-50v-206h-310v-40h222q151 0 279 8.5t180 15.5z" />
    <glyph glyph-name="uniAF85" unicode="&#xaf85;" 
 />
    <glyph glyph-name="uniAF86" unicode="&#xaf86;" 
 />
    <glyph glyph-name="uniAF87" unicode="&#xaf87;" 
 />
    <glyph glyph-name="uniAF88" unicode="&#xaf88;" 
d="M900 -130v40h-590v109h560v185h-610v-40h560v-105h-560v-189h640zM820 740v-486h50v486h-50zM420 689v-40h211q-5 -59 -16.5 -117.5t-29.5 -120.5h49q14 52 28 121.5t23 156.5h-265zM324 411q22 69 36.5 132.5t27.5 145.5h-228v-40h174q-7 -55 -24 -122.5t-35 -115.5h49z
M780 316v41q-58 -9 -155.5 -17t-164.5 -8v186h-50v-187h-310v-40h181q215 0 331 9t168 16z" />
    <glyph glyph-name="uniAF89" unicode="&#xaf89;" 
 />
    <glyph glyph-name="uniAF8A" unicode="&#xaf8a;" 
 />
    <glyph glyph-name="uniAF8B" unicode="&#xaf8b;" 
 />
    <glyph glyph-name="uniAF8C" unicode="&#xaf8c;" 
 />
    <glyph glyph-name="uniAF8D" unicode="&#xaf8d;" 
 />
    <glyph glyph-name="uniAF8E" unicode="&#xaf8e;" 
 />
    <glyph glyph-name="uniAF8F" unicode="&#xaf8f;" 
 />
    <glyph glyph-name="uniAF90" unicode="&#xaf90;" 
d="M310 120h507v-210h-507v210zM867 -130v290h-607v-290h607zM419 685v-40h212q-7 -93 -21.5 -158.5t-24.5 -100.5h49l25 109.5t26 189.5h-266zM320 386q10 33 32 112.5t33 186.5h-225v-40h174q-11 -99 -31.5 -161.5l-31.5 -97.5h49zM820 740v-530h50v530h-50zM780 286v42
q-60 -10 -167.5 -17.5t-153.5 -7.5v194h-50v-195h-309v-40h222q151 0 278.5 8.5t179.5 15.5z" />
    <glyph glyph-name="uniAF91" unicode="&#xaf91;" 
d="M310 47h510v-137h-510v137zM870 -130v327h-50v-110h-510v110h-50v-327h610zM820 740v-497h50v497h-50zM415 688v-40h212q-7 -93 -21.5 -158.5t-24.5 -100.5h49l25 109.5t26 189.5h-266zM316 389q10 33 32 112.5t33 186.5h-225v-40h174q-11 -99 -31.5 -161.5l-31.5 -97.5
h49zM780 295v42q-60 -10 -167.5 -17.5t-153.5 -7.5v185h-50v-186h-309v-40h222q151 0 278.5 8.5t179.5 15.5z" />
    <glyph glyph-name="uniAF92" unicode="&#xaf92;" 
 />
    <glyph glyph-name="uniAF93" unicode="&#xaf93;" 
 />
    <glyph glyph-name="uniAF94" unicode="&#xaf94;" 
 />
    <glyph glyph-name="uniAF95" unicode="&#xaf95;" 
d="M820 740v-561h50v561h-50zM560 125q114 0 190 -31.5t76 -91.5q0 -58 -76 -90.5t-190 -32.5q-115 0 -190.5 32.5t-75.5 90.5q0 60 75.5 91.5t190.5 31.5zM560 167q-154 0 -236.5 -46t-82.5 -118t82.5 -118.5t236.5 -46.5q155 0 237 46.5t82 118.5t-82 118t-237 46z
M415 688v-40h212q-7 -93 -21.5 -158.5t-24.5 -100.5h49l25 109.5t26 189.5h-266zM316 389q10 33 32 112.5t33 186.5h-225v-40h174q-11 -99 -31.5 -161.5l-31.5 -97.5h49zM780 276v42q-60 -10 -167.5 -17.5t-153.5 -7.5v204h-50v-205h-309v-40h222q151 0 278.5 8.5
t179.5 15.5z" />
    <glyph glyph-name="uniAF96" unicode="&#xaf96;" 
 />
    <glyph glyph-name="uniAF97" unicode="&#xaf97;" 
 />
    <glyph glyph-name="uniAF98" unicode="&#xaf98;" 
 />
    <glyph glyph-name="uniAF99" unicode="&#xaf99;" 
 />
    <glyph glyph-name="uniAF9A" unicode="&#xaf9a;" 
 />
    <glyph glyph-name="uniAF9B" unicode="&#xaf9b;" 
 />
    <glyph glyph-name="uniAF9C" unicode="&#xaf9c;" 
d="M597 34h-150v283h-50v-283h-337v-40h880v40h-293v283h-50v-283zM476 627v-40h307q-10 -145 -28 -266.5t-26 -163.5h48q8 42 26 157.5t34 312.5h-361zM343 157q11 36 39.5 165t42.5 305h-285v-40h235q-7 -115 -37.5 -253.5t-42.5 -176.5h48z" />
    <glyph glyph-name="uniAF9D" unicode="&#xaf9d;" 
 />
    <glyph glyph-name="uniAF9E" unicode="&#xaf9e;" 
 />
    <glyph glyph-name="uniAF9F" unicode="&#xaf9f;" 
 />
    <glyph glyph-name="uniAFA0" unicode="&#xafa0;" 
 />
    <glyph glyph-name="uniAFA1" unicode="&#xafa1;" 
 />
    <glyph glyph-name="uniAFA2" unicode="&#xafa2;" 
 />
    <glyph glyph-name="uniAFA3" unicode="&#xafa3;" 
 />
    <glyph glyph-name="uniAFA4" unicode="&#xafa4;" 
 />
    <glyph glyph-name="uniAFA5" unicode="&#xafa5;" 
 />
    <glyph glyph-name="uniAFA6" unicode="&#xafa6;" 
 />
    <glyph glyph-name="uniAFA7" unicode="&#xafa7;" 
 />
    <glyph glyph-name="uniAFA8" unicode="&#xafa8;" 
 />
    <glyph glyph-name="uniAFA9" unicode="&#xafa9;" 
 />
    <glyph glyph-name="uniAFAA" unicode="&#xafaa;" 
 />
    <glyph glyph-name="uniAFAB" unicode="&#xafab;" 
 />
    <glyph glyph-name="uniAFAC" unicode="&#xafac;" 
 />
    <glyph glyph-name="uniAFAD" unicode="&#xafad;" 
 />
    <glyph glyph-name="uniAFAE" unicode="&#xafae;" 
 />
    <glyph glyph-name="uniAFAF" unicode="&#xafaf;" 
 />
    <glyph glyph-name="uniAFB0" unicode="&#xafb0;" 
 />
    <glyph glyph-name="uniAFB1" unicode="&#xafb1;" 
 />
    <glyph glyph-name="uniAFB2" unicode="&#xafb2;" 
 />
    <glyph glyph-name="uniAFB3" unicode="&#xafb3;" 
 />
    <glyph glyph-name="uniAFB4" unicode="&#xafb4;" 
 />
    <glyph glyph-name="uniAFB5" unicode="&#xafb5;" 
 />
    <glyph glyph-name="uniAFB6" unicode="&#xafb6;" 
 />
    <glyph glyph-name="uniAFB7" unicode="&#xafb7;" 
 />
    <glyph glyph-name="uniAFB8" unicode="&#xafb8;" 
d="M407 286q6 29 23.5 149.5t30.5 244.5h-311v-40h255q-5 -79 -23.5 -198.5t-24.5 -155.5h-297v-40h415v-386h50v386h415v40h-171q7 33 26 150t30 244h-325v-40h267q-5 -79 -23.5 -198.5t-24.5 -155.5h-312z" />
    <glyph glyph-name="uniAFB9" unicode="&#xafb9;" 
d="M406 365q7 31 24 126.5t28 201.5h-308v-40h254q-6 -64 -20.5 -148t-28.5 -140h-295v-40h415v-205h-308v-40h603v-220h50v260h-295v205h415v40h-169q8 35 24 126t30 202h-325v-40h267q-7 -73 -22.5 -162t-23.5 -126h-315z" />
    <glyph glyph-name="uniAFBA" unicode="&#xafba;" 
 />
    <glyph glyph-name="uniAFBB" unicode="&#xafbb;" 
 />
    <glyph glyph-name="uniAFBC" unicode="&#xafbc;" 
d="M180 140v-260h665v40h-615v220h-50zM404 335q5 24 24 132t31 226h-309v-40h252q-7 -79 -25 -184l-23 -134h-294v-40h425v-254h50v254h405v40h-171q5 27 23 132t33 226h-325v-40h267q-7 -79 -25 -184l-23 -134h-315z" />
    <glyph glyph-name="uniAFBD" unicode="&#xafbd;" 
 />
    <glyph glyph-name="uniAFBE" unicode="&#xafbe;" 
 />
    <glyph glyph-name="uniAFBF" unicode="&#xafbf;" 
 />
    <glyph glyph-name="uniAFC0" unicode="&#xafc0;" 
d="M406 394q7 31 23 115.5t28 184.5h-307v-40h252q-6 -70 -21.5 -147t-23.5 -113h-297v-40h415v-134h-295v-40h590v-110h-590v-200h664v40h-614v120h590v190h-295v134h415v40h-168q8 36 25 118.5t28 181.5h-325v-40h267q-7 -70 -22 -147t-23 -113h-316z" />
    <glyph glyph-name="uniAFC1" unicode="&#xafc1;" 
 />
    <glyph glyph-name="uniAFC2" unicode="&#xafc2;" 
 />
    <glyph glyph-name="uniAFC3" unicode="&#xafc3;" 
 />
    <glyph glyph-name="uniAFC4" unicode="&#xafc4;" 
 />
    <glyph glyph-name="uniAFC5" unicode="&#xafc5;" 
 />
    <glyph glyph-name="uniAFC6" unicode="&#xafc6;" 
 />
    <glyph glyph-name="uniAFC7" unicode="&#xafc7;" 
d="M492 -119v40q-19 -4 -88 -7.5t-99 -3.5h-86v127h248v195h-298v-40h248v-115h-248v-208h136q30 0 99.5 4t87.5 8zM683 32q47 0 84 -19.5t37 -51.5q0 -34 -37 -51t-84 -17q-49 0 -85.5 18.5t-36.5 49.5q0 32 36.5 51.5t85.5 19.5zM683 70q-79 0 -126.5 -31t-47.5 -77
t47 -76t127 -30t127 30t47 76q0 45 -47 76.5t-127 31.5zM487 165v-40h400v40h-400zM575 284v-40h216v40h-216zM408 402q7 31 22 113t28 179h-308v-40h254q-6 -70 -21.5 -143l-23.5 -109h-299v-40h415v-158h50v158h415v40h-168l25 114.5t28 177.5h-325v-40h267
q-7 -70 -22 -143t-23 -109h-314z" />
    <glyph glyph-name="uniAFC8" unicode="&#xafc8;" 
d="M230 -90v220h540v-220h-540zM406 378q6 29 22.5 122t29.5 193h-308v-40h252q-6 -73 -22 -156.5t-24 -118.5h-296v-40h415v-168h-295v-300h640v300h-295v168h415v40h-169q8 35 25 125t29 190h-325v-40h267q-8 -72 -23.5 -156t-22.5 -119h-315z" />
    <glyph glyph-name="uniAFC9" unicode="&#xafc9;" 
d="M230 -90v150h540v-150h-540zM180 -130h640v349h-50v-119h-540v119h-50v-349zM406 384q6 29 23.5 124t27.5 185h-307v-40h252q-6 -73 -22 -154.5t-24 -114.5h-296v-40h415v-168h50v168h415v40h-169q8 33 25.5 119.5t28.5 189.5h-325v-40h267q-7 -73 -22.5 -154t-23.5 -115
h-315z" />
    <glyph glyph-name="uniAFCA" unicode="&#xafca;" 
 />
    <glyph glyph-name="uniAFCB" unicode="&#xafcb;" 
d="M404 363q8 29 25 127t28 203h-307v-40h253q-7 -78 -22.5 -168t-26.5 -122h-294v-40h410v-123h60v123h410v40h-171q6 28 25 124.5t31 205.5h-325v-40h267q-7 -77 -24.5 -169.5t-23.5 -120.5h-315zM469 159q0 -92 -107 -166t-237 -102l34 -37q106 26 207 87t133 139
q36 -77 136 -139t206 -89l37 38q-133 32 -241 105.5t-108 163.5h-60z" />
    <glyph glyph-name="uniAFCC" unicode="&#xafcc;" 
 />
    <glyph glyph-name="uniAFCD" unicode="&#xafcd;" 
d="M500 137q122 0 203 -34.5t81 -93.5q0 -58 -81 -91.5t-203 -33.5q-123 0 -203.5 33.5t-80.5 91.5q0 59 80.5 93.5t203.5 34.5zM405 362q5 26 22.5 125.5t29.5 205.5h-307v-40h252q-6 -75 -22.5 -167.5t-24.5 -123.5h-295v-40h414v-142q-147 -4 -228.5 -52t-81.5 -119
q0 -73 88.5 -121t247.5 -48q160 0 248 48t88 121q0 71 -81.5 119t-229.5 52v142h415v40h-170q8 31 25.5 128.5t29.5 202.5h-325v-40h267q-7 -74 -23.5 -166.5t-23.5 -124.5h-315z" />
    <glyph glyph-name="uniAFCE" unicode="&#xafce;" 
d="M402 386q8 32 26.5 124.5t27.5 182.5h-306v-40h253q-7 -71 -22 -149.5t-26 -117.5h-295v-40h415v-140h50v140h415v40h-173q11 39 29.5 124t28.5 183h-325v-40h267q-6 -70 -22.5 -149.5t-27.5 -117.5h-315zM526 120v15h304v40h-661v-40h306v-15q0 -72 -113 -141t-236 -80
l31 -41q125 23 218 76.5t126 114.5q35 -61 126.5 -115t215.5 -77l31 42q-115 11 -231.5 80t-116.5 141z" />
    <glyph glyph-name="uniAFCF" unicode="&#xafcf;" 
 />
    <glyph glyph-name="uniAFD0" unicode="&#xafd0;" 
 />
    <glyph glyph-name="uniAFD1" unicode="&#xafd1;" 
 />
    <glyph glyph-name="uniAFD2" unicode="&#xafd2;" 
 />
    <glyph glyph-name="uniAFD3" unicode="&#xafd3;" 
 />
    <glyph glyph-name="uniAFD4" unicode="&#xafd4;" 
d="M820 94v-234h50v880h-50v-606h-256v-40h256zM323 311q8 29 30 135.5t35 208.5h-228v-40h173q-7 -73 -30 -172.5t-31 -131.5h-162v-40h255v-391h50v392q91 0 202 9t163 18v40q-22 -4 -68.5 -10.5t-99.5 -9.5q7 39 22.5 136t25.5 200h-235v-40h178q-4 -58 -19 -158.5
t-23 -140.5l-40.5 -3t-41.5 -2h-156z" />
    <glyph glyph-name="uniAFD5" unicode="&#xafd5;" 
 />
    <glyph glyph-name="uniAFD6" unicode="&#xafd6;" 
 />
    <glyph glyph-name="uniAFD7" unicode="&#xafd7;" 
 />
    <glyph glyph-name="uniAFD8" unicode="&#xafd8;" 
 />
    <glyph glyph-name="uniAFD9" unicode="&#xafd9;" 
 />
    <glyph glyph-name="uniAFDA" unicode="&#xafda;" 
 />
    <glyph glyph-name="uniAFDB" unicode="&#xafdb;" 
 />
    <glyph glyph-name="uniAFDC" unicode="&#xafdc;" 
d="M883 -130v40h-583v104h557v180h-607v-40h557v-100h-557v-184h633zM810 327h-256v-40h256v-53h50v506h-50v-413zM316 426q7 24 26.5 104.5t32.5 159.5h-225v-40h168q-10 -63 -27.5 -130t-25.5 -94h-175v-40h241v-152h50v153q107 0 223.5 7.5t165.5 16.5v41
q-22 -4 -65 -9.5t-96 -8.5q7 31 20 99t26 157h-242v-40h185q-5 -52 -18.5 -119.5t-21.5 -99.5q-13 -1 -33 -3t-40 -2h-169z" />
    <glyph glyph-name="uniAFDD" unicode="&#xafdd;" 
 />
    <glyph glyph-name="uniAFDE" unicode="&#xafde;" 
 />
    <glyph glyph-name="uniAFDF" unicode="&#xafdf;" 
 />
    <glyph glyph-name="uniAFE0" unicode="&#xafe0;" 
 />
    <glyph glyph-name="uniAFE1" unicode="&#xafe1;" 
 />
    <glyph glyph-name="uniAFE2" unicode="&#xafe2;" 
 />
    <glyph glyph-name="uniAFE3" unicode="&#xafe3;" 
 />
    <glyph glyph-name="uniAFE4" unicode="&#xafe4;" 
 />
    <glyph glyph-name="uniAFE5" unicode="&#xafe5;" 
 />
    <glyph glyph-name="uniAFE6" unicode="&#xafe6;" 
 />
    <glyph glyph-name="uniAFE7" unicode="&#xafe7;" 
 />
    <glyph glyph-name="uniAFE8" unicode="&#xafe8;" 
d="M810 300h-256v-40h256v-71h50v551h-50v-440zM411 685v-40h187q-4 -53 -16.5 -114t-24.5 -113q-13 -1 -48 -3t-76 -2h-120l27 106.5t36 165.5h-226v-40h166q-10 -64 -28.5 -135.5t-25.5 -96.5h-172v-40h241v-188h50v189q130 0 233.5 9.5t155.5 18.5v38q-24 -4 -69.5 -10
t-92.5 -9q14 54 25 115t22 149h-244zM562 -139q53 27 104.5 79t67.5 107q18 -50 63.5 -100.5t106.5 -85.5l36 28q-65 35 -123 103t-58 157h-50q0 -88 -53 -151.5t-94 -85.5q-34 23 -88.5 84.5t-54.5 152.5h-50q0 -89 -58 -157t-123 -103l36 -28q61 35 106.5 85.5t63.5 100.5
q18 -52 66.5 -104.5t101.5 -81.5z" />
    <glyph glyph-name="uniAFE9" unicode="&#xafe9;" 
d="M809 299h-256v-40h256v-74h50v555h-50v-441zM413 685v-40h182q-4 -53 -18.5 -125t-22.5 -102q-13 -1 -37 -3t-54 -2h-148l27 106.5t36 165.5h-228v-40h168q-10 -64 -28.5 -135.5t-25.5 -96.5h-174v-40h241v-188h50v189q130 0 233.5 9.5t155.5 18.5v38q-24 -4 -71 -10
t-94 -9q8 30 22 103t25 161h-239zM887 5q0 73 -90.5 119.5t-233.5 46.5q-142 0 -233 -46.5t-91 -119.5q0 -72 91 -118.5t233 -46.5q143 0 233.5 46t90.5 119zM834 4q0 -58 -83.5 -90.5t-187.5 -32.5t-187.5 32.5t-83.5 90.5t84.5 91.5t186.5 33.5q104 0 187.5 -33.5
t83.5 -91.5z" />
    <glyph glyph-name="uniAFEA" unicode="&#xafea;" 
 />
    <glyph glyph-name="uniAFEB" unicode="&#xafeb;" 
 />
    <glyph glyph-name="uniAFEC" unicode="&#xafec;" 
 />
    <glyph glyph-name="uniAFED" unicode="&#xafed;" 
 />
    <glyph glyph-name="uniAFEE" unicode="&#xafee;" 
 />
    <glyph glyph-name="uniAFEF" unicode="&#xafef;" 
 />
    <glyph glyph-name="uniAFF0" unicode="&#xaff0;" 
d="M663 139h-206v-40h206v-199h50v820h-50v-581zM823 740v-880h50v880h-50zM267 321q8 31 31 137.5t32 191.5h-187v-40h133q-7 -63 -27.5 -158.5l-28.5 -130.5h-127v-41h215v-370h50v371q96 0 166 7.5t104 14.5v40q-16 -3 -53 -8t-71 -7l22.5 133.5t25.5 188.5h-191v-40h134
q-4 -58 -19 -151t-21 -134q-10 -1 -39 -2.5t-59 -1.5h-90z" />
    <glyph glyph-name="uniAFF1" unicode="&#xaff1;" 
d="M240 120v-40h587v-220h50v260h-637zM670 289h-201v-41h201v-82h50v559h-50v-436zM830 740v-574h50v574h-50zM278 409q7 25 25.5 112t30.5 169h-184v-40h126q-10 -67 -26 -140.5t-23 -100.5h-137v-40h210v-193h50v194q47 0 149 8t136 15v39q-15 -3 -50 -8t-72 -7
q6 33 18.5 109t22.5 164h-196v-40h139q-4 -55 -16 -129.5t-18 -106.5q-11 -1 -31 -3t-46 -2h-108z" />
    <glyph glyph-name="uniAFF2" unicode="&#xaff2;" 
 />
    <glyph glyph-name="uniAFF3" unicode="&#xaff3;" 
 />
    <glyph glyph-name="uniAFF4" unicode="&#xaff4;" 
d="M260 119v-239h642v40h-592v199h-50zM670 263h-201v-44h201v-129h50v636h-50v-463zM830 740v-680h50v680h-50zM278 399q7 25 25.5 117t30.5 174h-184v-40h126q-10 -67 -26 -145.5t-23 -105.5h-137v-40h210v-206h50v207q78 0 164.5 7.5t120.5 14.5v40q-15 -3 -50 -8t-72 -7
q6 33 18.5 114t22.5 169h-196v-40h139q-4 -55 -16 -134.5t-18 -111.5q-11 -1 -38.5 -3t-57.5 -2h-89z" />
    <glyph glyph-name="uniAFF5" unicode="&#xaff5;" 
 />
    <glyph glyph-name="uniAFF6" unicode="&#xaff6;" 
 />
    <glyph glyph-name="uniAFF7" unicode="&#xaff7;" 
 />
    <glyph glyph-name="uniAFF8" unicode="&#xaff8;" 
d="M903 -130v40h-593v104h567v180h-617v-40h567v-100h-567v-184h643zM670 327h-201v-40h201v-53h50v491h-50v-398zM830 740v-506h50v506h-50zM278 427q7 25 25.5 105t30.5 162h-184v-40h126q-10 -67 -26 -133.5t-23 -93.5h-137v-40h210v-144h50v145q76 0 163.5 8.5
t121.5 15.5v39q-15 -3 -50 -8.5t-72 -7.5l18.5 102t22.5 157h-196v-40h139q-4 -55 -16 -122.5l-18 -99.5q-11 -1 -41 -3t-65 -2h-79z" />
    <glyph glyph-name="uniAFF9" unicode="&#xaff9;" 
 />
    <glyph glyph-name="uniAFFA" unicode="&#xaffa;" 
 />
    <glyph glyph-name="uniAFFB" unicode="&#xaffb;" 
 />
    <glyph glyph-name="uniAFFC" unicode="&#xaffc;" 
 />
    <glyph glyph-name="uniAFFD" unicode="&#xaffd;" 
 />
    <glyph glyph-name="uniAFFE" unicode="&#xaffe;" 
 />
    <glyph glyph-name="uniAFFF" unicode="&#xafff;" 
 />
    <glyph glyph-name="uniB000" unicode="&#xb000;" 
d="M310 109h517v-199h-517v199zM877 -130v279h-617v-279h617zM670 310h-201v-40h201v-76h50v531h-50v-415zM830 740v-546h50v546h-50zM278 419q7 25 25.5 107t30.5 164h-184v-40h126q-10 -67 -26 -135.5t-23 -95.5h-137v-40h210v-176h50v177q71 0 161 8t124 15v39
q-15 -3 -50 -8t-72 -7l18.5 104t22.5 159h-196v-40h139q-4 -55 -16 -124.5t-18 -101.5q-11 -1 -43 -2l-67 -2z" />
    <glyph glyph-name="uniB001" unicode="&#xb001;" 
d="M310 42h517v-132h-517v132zM877 -130v314h-50v-102h-517v102h-50v-314h617zM670 329h-201v-40h201v-70h50v506h-50v-396zM830 740v-520h50v520h-50zM278 425q7 25 25.5 104t30.5 161h-184v-40h126q-10 -67 -26 -132.5l-23 -92.5h-137v-40h210v-162h50v163q68 0 159.5 7.5
t125.5 14.5v40q-15 -3 -54 -8t-68 -7l18.5 101t22.5 156h-196v-40h139q-4 -55 -16 -121.5l-18 -98.5q-11 -1 -46.5 -3t-63.5 -2h-75z" />
    <glyph glyph-name="uniB002" unicode="&#xb002;" 
 />
    <glyph glyph-name="uniB003" unicode="&#xb003;" 
 />
    <glyph glyph-name="uniB004" unicode="&#xb004;" 
d="M670 309h-201v-40h201v-77h50v533h-50v-416zM830 740v-558h50v558h-50zM278 419q7 25 25.5 107t30.5 164h-184v-40h126q-10 -67 -26 -135.5t-23 -95.5h-137v-40h210v-190h50v191q71 0 161 8t124 15v39q-15 -3 -50 -8t-72 -7l18.5 104t22.5 159h-196v-40h139
q-4 -55 -16 -124.5t-18 -101.5q-11 -1 -37.5 -3t-61.5 -2h-86zM562 -139q53 27 104.5 79t67.5 107q18 -50 63.5 -100.5t106.5 -85.5l36 28q-65 35 -123 103t-58 157h-50q0 -88 -53 -151.5t-94 -85.5q-34 23 -88.5 84.5t-54.5 152.5h-50q0 -89 -58 -157t-123 -103l36 -28
q61 35 106.5 85.5t63.5 100.5q18 -52 66.5 -104.5t101.5 -81.5z" />
    <glyph glyph-name="uniB005" unicode="&#xb005;" 
 />
    <glyph glyph-name="uniB006" unicode="&#xb006;" 
 />
    <glyph glyph-name="uniB007" unicode="&#xb007;" 
 />
    <glyph glyph-name="uniB008" unicode="&#xb008;" 
 />
    <glyph glyph-name="uniB009" unicode="&#xb009;" 
 />
    <glyph glyph-name="uniB00A" unicode="&#xb00a;" 
 />
    <glyph glyph-name="uniB00B" unicode="&#xb00b;" 
 />
    <glyph glyph-name="uniB00C" unicode="&#xb00c;" 
d="M820 740v-880h50v880h-50zM323 300q8 29 30 141t35 214h-228v-40h173q-7 -73 -30 -178t-31 -137h-162v-40h267v-391h50v392q91 0 196 9t157 18v40q-22 -4 -68.5 -10.5t-99.5 -9.5q7 39 22.5 141.5t25.5 205.5h-235v-40h178q-4 -58 -19 -164t-23 -146l-40.5 -3t-41.5 -2
h-156z" />
    <glyph glyph-name="uniB00D" unicode="&#xb00d;" 
 />
    <glyph glyph-name="uniB00E" unicode="&#xb00e;" 
 />
    <glyph glyph-name="uniB00F" unicode="&#xb00f;" 
 />
    <glyph glyph-name="uniB010" unicode="&#xb010;" 
d="M270 120v-240h632v40h-582v200h-50zM820 740v-670h50v670h-50zM780 368v38q-30 -5 -77 -10t-76 -7q8 41 22 122.5t24 173.5h-237v-40h180q-5 -52 -18.5 -134t-21.5 -124q-27 -1 -55.5 -1.5t-63.5 -0.5h-120q8 35 27.5 128t32.5 172h-237v-40h178q-10 -69 -27 -146
l-25 -114h-186v-41h251v-190h50v190q159 0 240 8t139 16z" />
    <glyph glyph-name="uniB011" unicode="&#xb011;" 
 />
    <glyph glyph-name="uniB012" unicode="&#xb012;" 
 />
    <glyph glyph-name="uniB013" unicode="&#xb013;" 
 />
    <glyph glyph-name="uniB014" unicode="&#xb014;" 
d="M897 -130v40h-577v104h547v180h-597v-40h547v-100h-547v-184h627zM820 740v-506h50v506h-50zM338 426q7 24 26.5 104.5t32.5 159.5h-237v-40h180q-10 -63 -27.5 -130t-25.5 -94h-187v-40h251v-152h50v153q122 0 226 8.5t153 17.5v40q-22 -4 -59.5 -10t-90.5 -9
q7 31 20 99t26 157h-241v-40h184q-5 -52 -18.5 -119.5t-21.5 -99.5q-26 -1 -68 -3t-84 -2h-89z" />
    <glyph glyph-name="uniB015" unicode="&#xb015;" 
 />
    <glyph glyph-name="uniB016" unicode="&#xb016;" 
 />
    <glyph glyph-name="uniB017" unicode="&#xb017;" 
 />
    <glyph glyph-name="uniB018" unicode="&#xb018;" 
 />
    <glyph glyph-name="uniB019" unicode="&#xb019;" 
 />
    <glyph glyph-name="uniB01A" unicode="&#xb01a;" 
 />
    <glyph glyph-name="uniB01B" unicode="&#xb01b;" 
 />
    <glyph glyph-name="uniB01C" unicode="&#xb01c;" 
d="M320 114h497v-204h-497v204zM867 -130v284h-597v-284h597zM820 740v-546h50v546h-50zM780 395v40q-31 -5 -64.5 -9.5t-89.5 -9.5q8 33 22 104t25 165h-237v-40h180q-5 -53 -19 -125t-22 -106q-34 -1 -64.5 -2t-71.5 -1h-103q8 28 27.5 113t32.5 161h-236v-40h178
q-10 -71 -27.5 -138l-25.5 -96h-185v-40h251v-177h50v177q107 0 215 7.5t164 16.5z" />
    <glyph glyph-name="uniB01D" unicode="&#xb01d;" 
d="M320 47h500v-137h-500v137zM870 -130v323h-50v-106h-500v106h-50v-323h600zM820 740v-507h50v507h-50zM780 401v38q-31 -4 -62.5 -8.5t-90.5 -9.5q8 33 22 101.5t25 162.5h-239v-40h182q-5 -53 -19 -122.5t-22 -103.5q-1 0 -59.5 -1.5t-86.5 -1.5h-93q8 28 27.5 110.5
t32.5 158.5h-231v-40h173q-10 -71 -27.5 -135.5l-25.5 -93.5h-186v-40h251v-142h50v142q90 0 205.5 7.5t173.5 17.5z" />
    <glyph glyph-name="uniB01E" unicode="&#xb01e;" 
 />
    <glyph glyph-name="uniB01F" unicode="&#xb01f;" 
 />
    <glyph glyph-name="uniB020" unicode="&#xb020;" 
 />
    <glyph glyph-name="uniB021" unicode="&#xb021;" 
 />
    <glyph glyph-name="uniB022" unicode="&#xb022;" 
 />
    <glyph glyph-name="uniB023" unicode="&#xb023;" 
 />
    <glyph glyph-name="uniB024" unicode="&#xb024;" 
 />
    <glyph glyph-name="uniB025" unicode="&#xb025;" 
 />
    <glyph glyph-name="uniB026" unicode="&#xb026;" 
 />
    <glyph glyph-name="uniB027" unicode="&#xb027;" 
 />
    <glyph glyph-name="uniB028" unicode="&#xb028;" 
d="M407 296q6 29 23.5 145.5t30.5 238.5h-311v-40h255q-5 -79 -23.5 -193.5l-24.5 -150.5h-297v-40h261v-386h50v386h265v-396h50v396h254v40h-171q7 33 26 145t30 239h-325v-40h267q-5 -79 -23.5 -193.5l-24.5 -150.5h-312z" />
    <glyph glyph-name="uniB029" unicode="&#xb029;" 
 />
    <glyph glyph-name="uniB02A" unicode="&#xb02a;" 
 />
    <glyph glyph-name="uniB02B" unicode="&#xb02b;" 
 />
    <glyph glyph-name="uniB02C" unicode="&#xb02c;" 
 />
    <glyph glyph-name="uniB02D" unicode="&#xb02d;" 
 />
    <glyph glyph-name="uniB02E" unicode="&#xb02e;" 
 />
    <glyph glyph-name="uniB02F" unicode="&#xb02f;" 
 />
    <glyph glyph-name="uniB030" unicode="&#xb030;" 
 />
    <glyph glyph-name="uniB031" unicode="&#xb031;" 
 />
    <glyph glyph-name="uniB032" unicode="&#xb032;" 
 />
    <glyph glyph-name="uniB033" unicode="&#xb033;" 
 />
    <glyph glyph-name="uniB034" unicode="&#xb034;" 
 />
    <glyph glyph-name="uniB035" unicode="&#xb035;" 
 />
    <glyph glyph-name="uniB036" unicode="&#xb036;" 
 />
    <glyph glyph-name="uniB037" unicode="&#xb037;" 
 />
    <glyph glyph-name="uniB038" unicode="&#xb038;" 
 />
    <glyph glyph-name="uniB039" unicode="&#xb039;" 
 />
    <glyph glyph-name="uniB03A" unicode="&#xb03a;" 
 />
    <glyph glyph-name="uniB03B" unicode="&#xb03b;" 
 />
    <glyph glyph-name="uniB03C" unicode="&#xb03c;" 
 />
    <glyph glyph-name="uniB03D" unicode="&#xb03d;" 
 />
    <glyph glyph-name="uniB03E" unicode="&#xb03e;" 
 />
    <glyph glyph-name="uniB03F" unicode="&#xb03f;" 
 />
    <glyph glyph-name="uniB040" unicode="&#xb040;" 
 />
    <glyph glyph-name="uniB041" unicode="&#xb041;" 
 />
    <glyph glyph-name="uniB042" unicode="&#xb042;" 
 />
    <glyph glyph-name="uniB043" unicode="&#xb043;" 
 />
    <glyph glyph-name="uniB044" unicode="&#xb044;" 
d="M382 55l33 194t40 352h-305v-40h252q-4 -106 -33 -277.5t-37 -228.5h-272v-40h880v40h-183q7 49 30 190.5t37 355.5h-328v-40h274q-4 -106 -29.5 -277.5l-33.5 -228.5h-325z" />
    <glyph glyph-name="uniB045" unicode="&#xb045;" 
d="M173 153v-40h593v-253h50v293h-643zM409 341q9 41 26.5 144.5t24.5 207.5h-310v-40h255q-4 -75 -19.5 -164t-29.5 -148h-296v-40h880v40h-164l25 147t29 205h-330v-40h272q-7 -70 -22.5 -167.5l-23.5 -144.5h-317z" />
    <glyph glyph-name="uniB046" unicode="&#xb046;" 
 />
    <glyph glyph-name="uniB047" unicode="&#xb047;" 
 />
    <glyph glyph-name="uniB048" unicode="&#xb048;" 
d="M185 188v-308h665v40h-615v268h-50zM401 306q7 29 27 148.5t32 238.5h-309v-40h256q-6 -82 -25.5 -196.5t-29.5 -150.5h-292v-40h880v40h-168q5 31 22.5 147t30.5 240h-325v-40h270q-7 -85 -20 -195.5t-25 -151.5h-324z" />
    <glyph glyph-name="uniB049" unicode="&#xb049;" 
 />
    <glyph glyph-name="uniB04A" unicode="&#xb04a;" 
d="M482 -118v39q-19 -4 -81.5 -7.5t-92.5 -3.5h-88v320h-50v-360h138q30 0 93 4t81 8zM411 367l24 132t26 195h-311v-40h257q-4 -71 -20.5 -157l-24.5 -130h-302v-40h880v40h-163q8 41 25.5 140.5t24.5 186.5h-327v-40h272q-1 -55 -19 -150.5l-26 -136.5h-316zM787 222v40
h-228v-40h228zM882 109v41h-410v-41h410zM852 -49q0 45 -49.5 74.5t-129.5 29.5q-79 0 -129 -29t-50 -75t49.5 -75t129.5 -29t129.5 29t49.5 75zM799 -50q0 -33 -39.5 -49.5t-86.5 -16.5q-49 0 -87.5 17.5t-38.5 48.5q0 32 38.5 50t87.5 18q47 0 86.5 -18t39.5 -50z" />
    <glyph glyph-name="uniB04B" unicode="&#xb04b;" 
 />
    <glyph glyph-name="uniB04C" unicode="&#xb04c;" 
d="M835 -130v40h-605v127h590v197h-640v-40h590v-117h-590v-207h655zM414 379q7 35 23.5 125t26.5 190h-314v-40h259q-6 -70 -21 -152t-24 -123h-304v-40h880v40h-161q9 41 25.5 129.5t27.5 185.5h-332v-40h274q-6 -69 -21.5 -151.5l-23.5 -123.5h-315z" />
    <glyph glyph-name="uniB04D" unicode="&#xb04d;" 
 />
    <glyph glyph-name="uniB04E" unicode="&#xb04e;" 
d="M573 204h204v-294h-204v294zM827 -130v374h-304v-374h304zM489 -119v40q-19 -4 -88 -7.5t-99 -3.5h-86v132h251v201h-301v-40h251v-121h-251v-213h136q30 0 99.5 4t87.5 8zM412 386l23 120t28 188h-313v-40h257q-6 -70 -21 -148.5t-24 -119.5h-302v-40h880v40h-163
q9 41 25.5 126t27.5 182h-330v-40h272q-6 -69 -21.5 -148l-23.5 -120h-315z" />
    <glyph glyph-name="uniB04F" unicode="&#xb04f;" 
 />
    <glyph glyph-name="uniB050" unicode="&#xb050;" 
 />
    <glyph glyph-name="uniB051" unicode="&#xb051;" 
 />
    <glyph glyph-name="uniB052" unicode="&#xb052;" 
 />
    <glyph glyph-name="uniB053" unicode="&#xb053;" 
d="M477 -120v40q-19 -4 -88 -7.5t-99 -3.5h-70v143h234v202h-284v-40h234v-122h-234v-224h120q30 0 99.5 4t87.5 8zM412 391l24 117.5t24 185.5h-310v-40h257q-6 -70 -21 -146t-24 -117h-302v-40h880v40h-163q9 41 25.5 123.5t27.5 179.5h-330v-40h272q-6 -69 -21.5 -145.5
l-23.5 -117.5h-315zM784 227v40h-218v-40h218zM879 113v41h-400v-41h400zM849 -45q0 45 -47 74.5t-127 29.5q-79 0 -126.5 -29t-47.5 -75t47 -75t127 -29t127 29t47 75zM796 -46q0 -33 -37 -49.5t-84 -16.5q-49 0 -85 17.5t-36 48.5q0 32 36 50t85 18q47 0 84 -18t37 -50z
" />
    <glyph glyph-name="uniB054" unicode="&#xb054;" 
d="M230 -90v230h540v-230h-540zM180 -130h640v310h-640v-310zM406 349q7 38 23.5 139t29.5 205h-309v-40h252q-6 -71 -21.5 -165l-23.5 -139h-297v-40h880v40h-169l25 142t29 202h-325v-40h267q-7 -70 -22.5 -164l-23.5 -140h-315z" />
    <glyph glyph-name="uniB055" unicode="&#xb055;" 
d="M230 -90v157h540v-157h-540zM180 -130h640v362h-50v-125h-540v125h-50v-362zM405 350l24.5 139.5t27.5 203.5h-307v-40h252q-6 -76 -23 -173t-24 -130h-295v-40h880v40h-170q7 33 24.5 135t30.5 208h-325v-40h267q-7 -75 -23.5 -172.5t-23.5 -130.5h-315z" />
    <glyph glyph-name="uniB056" unicode="&#xb056;" 
 />
    <glyph glyph-name="uniB057" unicode="&#xb057;" 
d="M404 319q5 27 22 141.5l33 232.5h-309v-40h253q-7 -79 -25.5 -190.5l-23.5 -143.5h-294v-40h880v40h-171l24 144.5t32 229.5h-325v-40h267q-7 -79 -25 -190.5l-23 -143.5h-315zM529 191h-60v-19q0 -90 -107 -170t-237 -108l34 -37q106 27 209 95t131 146q34 -78 135 -147
t207 -96l37 38q-133 32 -241 110.5t-108 168.5v19z" />
    <glyph glyph-name="uniB058" unicode="&#xb058;" 
 />
    <glyph glyph-name="uniB059" unicode="&#xb059;" 
d="M406 336q7 39 23.5 145t29.5 212h-309v-40h252q-6 -71 -22 -171t-24 -146h-296v-40h880v40h-169q8 44 25 148t29 209h-325v-40h267q-7 -71 -22.5 -171t-23.5 -146h-315zM830 16q0 78 -85 127.5t-245 49.5q-159 0 -244.5 -49.5t-85.5 -127.5t85.5 -127.5t244.5 -49.5
q160 0 245 49.5t85 127.5zM778 16q0 -64 -78 -100t-200 -36q-123 0 -200.5 36t-77.5 100q0 65 77.5 101t200.5 36q122 0 200 -36t78 -101z" />
    <glyph glyph-name="uniB05A" unicode="&#xb05a;" 
 />
    <glyph glyph-name="uniB05B" unicode="&#xb05b;" 
 />
    <glyph glyph-name="uniB05C" unicode="&#xb05c;" 
 />
    <glyph glyph-name="uniB05D" unicode="&#xb05d;" 
d="M230 -90v127h590v40h-590v117h593v40h-643v-364h660v40h-610zM407 381l23.5 122t26.5 187h-307v-40h252q-6 -70 -21 -149t-24 -120h-297v-40h880v40h-168q9 41 25.5 126.5t27.5 182.5h-325v-40h267q-6 -69 -21.5 -148.5l-23.5 -120.5h-315z" />
    <glyph glyph-name="uniB05E" unicode="&#xb05e;" 
 />
    <glyph glyph-name="uniB05F" unicode="&#xb05f;" 
 />
    <glyph glyph-name="uniB060" unicode="&#xb060;" 
 />
    <glyph glyph-name="uniB061" unicode="&#xb061;" 
 />
    <glyph glyph-name="uniB062" unicode="&#xb062;" 
 />
    <glyph glyph-name="uniB063" unicode="&#xb063;" 
 />
    <glyph glyph-name="uniB064" unicode="&#xb064;" 
 />
    <glyph glyph-name="uniB065" unicode="&#xb065;" 
 />
    <glyph glyph-name="uniB066" unicode="&#xb066;" 
 />
    <glyph glyph-name="uniB067" unicode="&#xb067;" 
 />
    <glyph glyph-name="uniB068" unicode="&#xb068;" 
 />
    <glyph glyph-name="uniB069" unicode="&#xb069;" 
 />
    <glyph glyph-name="uniB06A" unicode="&#xb06a;" 
 />
    <glyph glyph-name="uniB06B" unicode="&#xb06b;" 
 />
    <glyph glyph-name="uniB06C" unicode="&#xb06c;" 
 />
    <glyph glyph-name="uniB06D" unicode="&#xb06d;" 
 />
    <glyph glyph-name="uniB06E" unicode="&#xb06e;" 
 />
    <glyph glyph-name="uniB06F" unicode="&#xb06f;" 
 />
    <glyph glyph-name="uniB070" unicode="&#xb070;" 
 />
    <glyph glyph-name="uniB071" unicode="&#xb071;" 
 />
    <glyph glyph-name="uniB072" unicode="&#xb072;" 
 />
    <glyph glyph-name="uniB073" unicode="&#xb073;" 
 />
    <glyph glyph-name="uniB074" unicode="&#xb074;" 
 />
    <glyph glyph-name="uniB075" unicode="&#xb075;" 
 />
    <glyph glyph-name="uniB076" unicode="&#xb076;" 
 />
    <glyph glyph-name="uniB077" unicode="&#xb077;" 
 />
    <glyph glyph-name="uniB078" unicode="&#xb078;" 
 />
    <glyph glyph-name="uniB079" unicode="&#xb079;" 
 />
    <glyph glyph-name="uniB07A" unicode="&#xb07a;" 
 />
    <glyph glyph-name="uniB07B" unicode="&#xb07b;" 
 />
    <glyph glyph-name="uniB07C" unicode="&#xb07c;" 
d="M840 740v-880h50v880h-50zM445 620v-40h172q5 -172 -92.5 -332t-174.5 -228l44 -24q112 108 192 266t87 358h-228zM409 620h-254v-40h199q-1 -84 -50.5 -216.5t-192.5 -263.5l43 -22q119 113 184.5 249t70.5 293z" />
    <glyph glyph-name="uniB07D" unicode="&#xb07d;" 
d="M840 740v-537h50v537h-50zM270 150v-40h570v-250h50v290h-620zM401 228q110 74 191 191.5t84 250.5h-228v-40h173q-4 -106 -86.5 -215t-170.5 -161zM141 268q110 74 191 179t84 223h-253v-40h198q-4 -93 -86.5 -188.5t-170.5 -147.5z" />
    <glyph glyph-name="uniB07E" unicode="&#xb07e;" 
 />
    <glyph glyph-name="uniB07F" unicode="&#xb07f;" 
 />
    <glyph glyph-name="uniB080" unicode="&#xb080;" 
d="M290 150v-270h630v40h-580v230h-50zM840 740v-640h50v640h-50zM401 207q110 74 193 202t86 261h-228v-40h173q-4 -106 -88.5 -225.5t-172.5 -171.5zM150 256q127 83 198 191t72 223h-253v-40h198q-1 -88 -73 -186t-179 -162z" />
    <glyph glyph-name="uniB081" unicode="&#xb081;" 
 />
    <glyph glyph-name="uniB082" unicode="&#xb082;" 
 />
    <glyph glyph-name="uniB083" unicode="&#xb083;" 
 />
    <glyph glyph-name="uniB084" unicode="&#xb084;" 
d="M840 740v-466h50v466h-50zM917 -130v40h-577v119h547v195h-597v-40h547v-115h-547v-199h627zM399 274q128 68 200 177.5t82 217.5h-231v-40h176q-9 -78 -79.5 -175.5t-183.5 -151.5zM153 314q128 68 191.5 157.5t73.5 197.5h-253v-40h198q-9 -78 -72.5 -156t-174.5 -133z
" />
    <glyph glyph-name="uniB085" unicode="&#xb085;" 
 />
    <glyph glyph-name="uniB086" unicode="&#xb086;" 
 />
    <glyph glyph-name="uniB087" unicode="&#xb087;" 
 />
    <glyph glyph-name="uniB088" unicode="&#xb088;" 
 />
    <glyph glyph-name="uniB089" unicode="&#xb089;" 
 />
    <glyph glyph-name="uniB08A" unicode="&#xb08a;" 
 />
    <glyph glyph-name="uniB08B" unicode="&#xb08b;" 
 />
    <glyph glyph-name="uniB08C" unicode="&#xb08c;" 
d="M340 140h497v-230h-497v230zM887 -130v310h-597v-310h597zM840 740v-510h50v510h-50zM403 243q128 68 197.5 193t79.5 233h-231v-40h176q-8 -78 -76.5 -191t-181.5 -167zM147 295q128 68 195.5 169.5t74.5 204.5h-252v-40h197q-7 -78 -74 -165.5t-178 -142.5z" />
    <glyph glyph-name="uniB08D" unicode="&#xb08d;" 
d="M340 64h497v-154h-497v154zM887 -130v344h-50v-110h-497v110h-50v-344h597zM840 740v-476h50v476h-50zM398 275q128 68 200 177.5t82 217.5h-231v-40h176q-9 -78 -79.5 -175.5t-183.5 -151.5zM152 315q128 68 191.5 157.5t73.5 197.5h-253v-40h198q-9 -78 -72.5 -156
t-174.5 -133z" />
    <glyph glyph-name="uniB08E" unicode="&#xb08e;" 
 />
    <glyph glyph-name="uniB08F" unicode="&#xb08f;" 
d="M840 740v-584h50v584h-50zM400 207q110 74 193 202t86 261h-228v-40h173q-4 -106 -88.5 -225.5t-172.5 -171.5zM149 256q127 83 198 191t72 223h-253v-40h198q-1 -88 -73 -186t-179 -162zM617 211h-60v-12q0 -92 -90.5 -179t-223.5 -125l38 -35q76 19 177 95.5t129 155.5
q29 -79 129.5 -155.5t176.5 -95.5l38 35q-133 38 -223.5 125t-90.5 179v12z" />
    <glyph glyph-name="uniB090" unicode="&#xb090;" 
 />
    <glyph glyph-name="uniB091" unicode="&#xb091;" 
d="M840 740v-531h50v531h-50zM403 228q110 74 191 191.5t84 250.5h-228v-40h173q-4 -106 -86.5 -215t-170.5 -161zM586 138q108 0 184 -33.5t76 -95.5q0 -60 -76.5 -93.5t-183.5 -33.5q-106 0 -184 33.5t-78 93.5q0 62 77.5 95.5t184.5 33.5zM585 181q-144 0 -229 -48.5
t-85 -122.5t85 -122t229 -48q146 0 230 48t84 122t-84 122.5t-230 48.5zM143 268q110 74 191 179t84 223h-253v-40h198q-4 -93 -86.5 -188.5t-170.5 -147.5z" />
    <glyph glyph-name="uniB092" unicode="&#xb092;" 
 />
    <glyph glyph-name="uniB093" unicode="&#xb093;" 
 />
    <glyph glyph-name="uniB094" unicode="&#xb094;" 
 />
    <glyph glyph-name="uniB095" unicode="&#xb095;" 
 />
    <glyph glyph-name="uniB096" unicode="&#xb096;" 
 />
    <glyph glyph-name="uniB097" unicode="&#xb097;" 
 />
    <glyph glyph-name="uniB098" unicode="&#xb098;" 
d="M750 740v-880h50v495h140v40h-140v345h-50zM690 127v40q-46 -10 -170 -24t-218 -14h-112v525h-50v-565h138q124 0 245 15t167 23z" />
    <glyph glyph-name="uniB099" unicode="&#xb099;" 
d="M205 164v-40h550v-264h50v304h-600zM755 740v-525h50v285h139v40h-139v200h-50zM696 330v40q-46 -10 -171.5 -22.5t-247.5 -12.5h-101v357h-50v-397h134q163 0 276 13.5t160 21.5z" />
    <glyph glyph-name="uniB09A" unicode="&#xb09a;" 
d="M185 164v-40h242v-264h50v304h-292zM516 164v-40h239v-264h50v304h-289zM755 740v-525h50v285h139v40h-139v200h-50zM696 330v40q-46 -10 -171.5 -22.5t-247.5 -12.5h-101v357h-50v-397h134q163 0 276 13.5t160 21.5z" />
    <glyph glyph-name="uniB09B" unicode="&#xb09b;" 
 />
    <glyph glyph-name="uniB09C" unicode="&#xb09c;" 
d="M225 160v-280h605v40h-555v240h-50zM697 310v40q-46 -10 -171.5 -22.5t-247.5 -12.5h-101v381h-50v-421h134q163 0 276 13.5t160 21.5zM755 740v-640h50v370h149v40h-149v230h-50z" />
    <glyph glyph-name="uniB09D" unicode="&#xb09d;" 
 />
    <glyph glyph-name="uniB09E" unicode="&#xb09e;" 
 />
    <glyph glyph-name="uniB09F" unicode="&#xb09f;" 
d="M825 -130v40h-550v242h530v40h-580v-322h600zM755 740v-498h50v259h139v40h-139v199h-50zM696 357v40q-46 -10 -171.5 -22.5t-247.5 -12.5h-101v336h-50v-376h134q163 0 276 13.5t160 21.5z" />
    <glyph glyph-name="uniB0A0" unicode="&#xb0a0;" 
d="M825 -130v40h-550v127h530v200h-580v-40h530v-120h-530v-207h600zM696 382v40q-46 -10 -171.5 -22.5t-247.5 -12.5h-101v312h-50v-352h134q163 0 276 13.5t160 21.5zM755 740v-441h50v212h140v40h-140v189h-50z" />
    <glyph glyph-name="uniB0A1" unicode="&#xb0a1;" 
d="M755 -140h50v377h-270v-40h220v-337zM523 -118v40q-19 -4 -88 -7.5t-99 -3.5h-86v127h255v195h-305v-40h255v-115h-255v-208h136q30 0 99.5 4t87.5 8zM696 382v40q-46 -10 -171.5 -22.5t-247.5 -12.5h-101v312h-50v-352h126q163 0 280 13.5t164 21.5zM755 740v-441h50
v212h140v40h-140v189h-50z" />
    <glyph glyph-name="uniB0A2" unicode="&#xb0a2;" 
d="M580 197h175v-289h-175v289zM805 -130v367h-274v-367h274zM495 -118v40q-19 -4 -80.5 -7.5t-91.5 -3.5h-73v127h236v195h-286v-40h236v-115h-236v-208h123q30 0 92 4t80 8zM696 382v40q-46 -10 -171.5 -22.5t-247.5 -12.5h-101v312h-50v-352h126q163 0 280 13.5t164 21.5
zM755 740v-441h50v212h140v40h-140v189h-50z" />
    <glyph glyph-name="uniB0A3" unicode="&#xb0a3;" 
 />
    <glyph glyph-name="uniB0A4" unicode="&#xb0a4;" 
 />
    <glyph glyph-name="uniB0A5" unicode="&#xb0a5;" 
 />
    <glyph glyph-name="uniB0A6" unicode="&#xb0a6;" 
 />
    <glyph glyph-name="uniB0A7" unicode="&#xb0a7;" 
 />
    <glyph glyph-name="uniB0A8" unicode="&#xb0a8;" 
d="M275 150h480v-240h-480v240zM805 -130v320h-580v-320h580zM696 365v40q-46 -10 -171.5 -22.5t-247.5 -12.5h-101v329h-50v-369h126q163 0 280 13.5t164 21.5zM755 740v-500h50v261h139v41h-139v198h-50z" />
    <glyph glyph-name="uniB0A9" unicode="&#xb0a9;" 
d="M275 61h480v-151h-480v151zM805 -130v354h-50v-123h-480v123h-50v-354h580zM696 382v40q-46 -10 -171.5 -22.5t-247.5 -12.5h-101v311h-50v-351h126q163 0 280 13.5t164 21.5zM755 740v-461h50v240h140v41h-140v180h-50z" />
    <glyph glyph-name="uniB0AA" unicode="&#xb0aa;" 
 />
    <glyph glyph-name="uniB0AB" unicode="&#xb0ab;" 
d="M697 321v40q-46 -10 -171.5 -22.5t-247.5 -12.5h-101v373h-50v-413h134q163 0 276 13.5t160 21.5zM755 740v-594h50v334h140v40h-140v220h-50zM549 185h-60v-14q0 -79 -87.5 -161t-220.5 -118l38 -35q76 19 170.5 87.5t129.5 142.5q32 -74 127 -142.5t171 -87.5l38 35
q-133 36 -219.5 118t-86.5 161v14z" />
    <glyph glyph-name="uniB0AC" unicode="&#xb0ac;" 
d="M697 344v40q-46 -10 -171.5 -22.5t-247.5 -12.5h-101v347h-50v-387h134q163 0 276 13.5t160 21.5zM755 740v-501h50v240h139v40h-139v221h-50zM514 -140q59 35 104.5 97t63.5 111q11 -49 62 -111.5t110 -94.5l34 31q-86 47 -133.5 123.5t-47.5 164.5v12h-50v-12
q0 -88 -45 -158.5t-99 -111.5q-54 41 -98.5 111.5t-44.5 158.5v12h-50v-12q0 -88 -47.5 -164.5t-133.5 -123.5l34 -31q59 32 110 94.5t62 111.5q18 -49 64 -112.5t105 -95.5z" />
    <glyph glyph-name="uniB0AD" unicode="&#xb0ad;" 
d="M514 145q114 0 185 -34.5t71 -99.5q0 -63 -71 -98.5t-185 -35.5q-115 0 -190.5 35.5t-75.5 98.5q0 65 75.5 99.5t190.5 34.5zM514 185q-154 0 -236.5 -49t-82.5 -125t82.5 -124.5t236.5 -48.5q155 0 232 48.5t77 124.5t-77 125t-232 49zM755 740v-535h50v266h139v40h-139
v229h-50zM697 354v40q-46 -10 -171.5 -22.5t-247.5 -12.5h-101v337h-50v-377h134q163 0 276 13.5t160 21.5z" />
    <glyph glyph-name="uniB0AE" unicode="&#xb0ae;" 
d="M755 740v-497h50v245h139v40h-139v212h-50zM697 354v40q-46 -10 -171.5 -22.5t-247.5 -12.5h-101v337h-50v-377h134q163 0 276 13.5t160 21.5zM542 133v15h278v40h-608v-40h279v-15q0 -75 -118 -149t-203 -85l35 -36q83 17 181 79.5t131 123.5q33 -61 131 -123.5
t180 -79.5l35 36q-85 11 -203 85t-118 149z" />
    <glyph glyph-name="uniB0AF" unicode="&#xb0af;" 
d="M697 387v40q-46 -10 -171.5 -22.5t-247.5 -12.5h-101v304h-50v-344h134q163 0 276 13.5t160 21.5zM755 740v-499h50v272h139v40h-139v187h-50zM672 225v40h-321v-40h321zM863 -101q-73 1 -195 56t-126 127v11h282v41h-618v-41h282v-11q-4 -72 -126 -127t-195 -56l35 -39
q82 8 179 55t134 106q37 -59 134 -106t179 -55z" />
    <glyph glyph-name="uniB0B0" unicode="&#xb0b0;" 
 />
    <glyph glyph-name="uniB0B1" unicode="&#xb0b1;" 
d="M275 -90v119h527v40h-527v112h530v40h-580v-351h605v40h-555zM697 375v40q-46 -10 -171.5 -22.5t-247.5 -12.5h-101v316h-50v-356h134q163 0 276 13.5t160 21.5zM755 740v-446h50v215h140v40h-140v191h-50z" />
    <glyph glyph-name="uniB0B2" unicode="&#xb0b2;" 
 />
    <glyph glyph-name="uniB0B3" unicode="&#xb0b3;" 
d="M697 387v40q-46 -10 -171.5 -22.5t-247.5 -12.5h-101v304h-50v-344h134q163 0 276 13.5t160 21.5zM755 740v-478h50v247h140v40h-140v191h-50zM517 34q105 0 170.5 -22.5t65.5 -55.5q0 -31 -65.5 -52.5t-170.5 -21.5q-106 0 -171 21.5t-65 52.5q0 33 65 55.5t171 22.5z
M517 69q-142 0 -217 -32t-75 -80q0 -49 75 -80.5t217 -31.5q143 0 217.5 31.5t74.5 80.5q0 48 -74.5 80t-217.5 32zM166 159v-40h697v40h-697zM349 270v-40h326v40h-326z" />
    <glyph glyph-name="uniB0B4" unicode="&#xb0b4;" 
d="M600 720v-820h50v460h160v-500h50v880h-50v-338h-160v318h-50zM550 105v39q-31 -4 -106.5 -11.5t-151.5 -7.5h-92v525h-50v-565h139q83 0 159 8t102 12z" />
    <glyph glyph-name="uniB0B5" unicode="&#xb0b5;" 
d="M230 156v-40h577v-256h50v296h-627zM600 725v-509h50v267h160v-268h50v525h-50v-217h-160v202h-50zM550 320v39q-32 -6 -113.5 -16t-208.5 -10h-48v362h-50v-402h123q68 0 168.5 11t128.5 16z" />
    <glyph glyph-name="uniB0B6" unicode="&#xb0b6;" 
 />
    <glyph glyph-name="uniB0B7" unicode="&#xb0b7;" 
 />
    <glyph glyph-name="uniB0B8" unicode="&#xb0b8;" 
d="M250 160v-280h633v40h-583v240h-50zM600 725v-610h50v305h160v-325h50v645h-50v-280h-160v265h-50zM550 295v39q-32 -6 -113.5 -16t-208.5 -10h-48v387h-50v-427h123q68 0 168.5 11t128.5 16z" />
    <glyph glyph-name="uniB0B9" unicode="&#xb0b9;" 
 />
    <glyph glyph-name="uniB0BA" unicode="&#xb0ba;" 
 />
    <glyph glyph-name="uniB0BB" unicode="&#xb0bb;" 
 />
    <glyph glyph-name="uniB0BC" unicode="&#xb0bc;" 
d="M880 -130v40h-580v124h557v200h-607v-40h557v-120h-557v-204h630zM600 725v-434h50v214h160v-214h50v449h-50v-195h-160v180h-50zM549 364v39q-32 -6 -114.5 -16t-207.5 -10h-48v322h-50v-362h123q96 0 182.5 11t114.5 16z" />
    <glyph glyph-name="uniB0BD" unicode="&#xb0bd;" 
 />
    <glyph glyph-name="uniB0BE" unicode="&#xb0be;" 
 />
    <glyph glyph-name="uniB0BF" unicode="&#xb0bf;" 
 />
    <glyph glyph-name="uniB0C0" unicode="&#xb0c0;" 
 />
    <glyph glyph-name="uniB0C1" unicode="&#xb0c1;" 
 />
    <glyph glyph-name="uniB0C2" unicode="&#xb0c2;" 
 />
    <glyph glyph-name="uniB0C3" unicode="&#xb0c3;" 
 />
    <glyph glyph-name="uniB0C4" unicode="&#xb0c4;" 
d="M300 150h507v-240h-507v240zM857 -130v320h-607v-320h607zM600 725v-485h50v241h160v-241h50v500h-50v-219h-160v204h-50zM550 339v39q-32 -6 -113.5 -16t-208.5 -10h-48v346h-50v-386h123q68 0 168.5 11t128.5 16z" />
    <glyph glyph-name="uniB0C5" unicode="&#xb0c5;" 
d="M300 65h507v-155h-507v155zM857 -130v354h-50v-119h-507v119h-50v-354h607zM600 725v-451h50v219h160v-219h50v466h-50v-207h-160v192h-50zM551 357v39q-32 -6 -113.5 -16t-208.5 -10h-48v326h-50v-366h123q68 0 168.5 11t128.5 16z" />
    <glyph glyph-name="uniB0C6" unicode="&#xb0c6;" 
 />
    <glyph glyph-name="uniB0C7" unicode="&#xb0c7;" 
d="M600 725v-540h50v273h160v-323h50v605h-50v-242h-160v227h-50zM550 313v39q-32 -6 -113.5 -16t-208.5 -10h-48v369h-50v-409h123q68 0 168.5 11t128.5 16zM560 194h-60v-12q0 -92 -90.5 -170.5t-223.5 -116.5l38 -35q76 19 177 87t129 147q29 -79 129.5 -147t176.5 -87
l38 35q-133 38 -223.5 116.5t-90.5 170.5v12z" />
    <glyph glyph-name="uniB0C8" unicode="&#xb0c8;" 
d="M600 725v-483h50v245h160v-245h50v498h-50v-213h-160v198h-50zM551 338v39q-32 -6 -113.5 -16t-208.5 -10h-48v345h-50v-385h123q68 0 168.5 11t128.5 16zM550 -144q59 35 104.5 97t63.5 111q11 -49 62 -111.5t110 -94.5l34 31q-86 47 -133.5 123.5t-47.5 164.5v12h-50
v-12q0 -88 -45 -158.5t-99 -111.5q-54 41 -98.5 111.5t-44.5 158.5v12h-50v-12q0 -88 -47.5 -164.5t-133.5 -123.5l34 -31q59 32 110 94.5t62 111.5q18 -49 64 -112.5t105 -95.5z" />
    <glyph glyph-name="uniB0C9" unicode="&#xb0c9;" 
d="M542 146q119 0 194.5 -35t75.5 -100q0 -63 -75.5 -98t-194.5 -35q-121 0 -195.5 35t-74.5 98q0 65 74.5 100t195.5 35zM542 186q-158 0 -240.5 -49t-82.5 -125t82.5 -124.5t240.5 -48.5q159 0 241 48.5t82 124.5t-82 125t-241 49zM551 338v39q-32 -6 -113.5 -16
t-208.5 -10h-48v345h-50v-385h123q68 0 168.5 11t128.5 16zM600 725v-490h50v239h160v-266h50v532h-50v-226h-160v211h-50z" />
    <glyph glyph-name="uniB0CA" unicode="&#xb0ca;" 
 />
    <glyph glyph-name="uniB0CB" unicode="&#xb0cb;" 
 />
    <glyph glyph-name="uniB0CC" unicode="&#xb0cc;" 
 />
    <glyph glyph-name="uniB0CD" unicode="&#xb0cd;" 
 />
    <glyph glyph-name="uniB0CE" unicode="&#xb0ce;" 
 />
    <glyph glyph-name="uniB0CF" unicode="&#xb0cf;" 
 />
    <glyph glyph-name="uniB0D0" unicode="&#xb0d0;" 
d="M730 740v-880h50v335h160v40h-160v237h160v40h-160v228h-50zM670 129v40q-46 -10 -170 -24t-218 -14h-112v525h-50v-565h138q124 0 245 15t167 23z" />
    <glyph glyph-name="uniB0D1" unicode="&#xb0d1;" 
d="M190 164v-40h551v-264h50v304h-601zM740 740v-525h50v156h142v40h-142v142h142v40h-142v147h-50zM678 334v40q-46 -10 -171.5 -22.5t-247.5 -12.5h-101v357h-50v-397h134q163 0 276 13.5t160 21.5z" />
    <glyph glyph-name="uniB0D2" unicode="&#xb0d2;" 
 />
    <glyph glyph-name="uniB0D3" unicode="&#xb0d3;" 
 />
    <glyph glyph-name="uniB0D4" unicode="&#xb0d4;" 
d="M220 160v-280h610v40h-560v240h-50zM740 740v-640h50v224h149v40h-149v179h149v40h-149v157h-50zM676 311v40q-46 -10 -171.5 -22.5t-247.5 -12.5h-101v381h-50v-421h134q163 0 276 13.5t160 21.5z" />
    <glyph glyph-name="uniB0D5" unicode="&#xb0d5;" 
 />
    <glyph glyph-name="uniB0D6" unicode="&#xb0d6;" 
 />
    <glyph glyph-name="uniB0D7" unicode="&#xb0d7;" 
 />
    <glyph glyph-name="uniB0D8" unicode="&#xb0d8;" 
d="M811 -130v40h-551v124h530v200h-580v-40h530v-120h-530v-204h601zM740 740v-456h50v135h139v40h-139v125h139v40h-139v116h-50zM680 382v40q-46 -10 -171.5 -22.5t-247.5 -12.5h-101v312h-50v-352h134q163 0 276 13.5t160 21.5z" />
    <glyph glyph-name="uniB0D9" unicode="&#xb0d9;" 
 />
    <glyph glyph-name="uniB0DA" unicode="&#xb0da;" 
 />
    <glyph glyph-name="uniB0DB" unicode="&#xb0db;" 
 />
    <glyph glyph-name="uniB0DC" unicode="&#xb0dc;" 
 />
    <glyph glyph-name="uniB0DD" unicode="&#xb0dd;" 
 />
    <glyph glyph-name="uniB0DE" unicode="&#xb0de;" 
 />
    <glyph glyph-name="uniB0DF" unicode="&#xb0df;" 
 />
    <glyph glyph-name="uniB0E0" unicode="&#xb0e0;" 
d="M260 150h480v-240h-480v240zM790 -130v320h-580v-320h580zM740 740v-500h50v150h139v40h-139v137h139v40h-139v133h-50zM680 364v40q-46 -10 -171.5 -22.5t-247.5 -12.5h-101v330h-50v-370h134q163 0 276 13.5t160 21.5z" />
    <glyph glyph-name="uniB0E1" unicode="&#xb0e1;" 
 />
    <glyph glyph-name="uniB0E2" unicode="&#xb0e2;" 
 />
    <glyph glyph-name="uniB0E3" unicode="&#xb0e3;" 
 />
    <glyph glyph-name="uniB0E4" unicode="&#xb0e4;" 
 />
    <glyph glyph-name="uniB0E5" unicode="&#xb0e5;" 
d="M494 146q114 0 187 -35t73 -100q0 -63 -73 -98t-187 -35q-115 0 -188.5 35t-73.5 98q0 65 73.5 100t188.5 35zM493 186q-154 0 -234 -49t-80 -125t80 -124.5t234 -48.5q155 0 234.5 48.5t79.5 124.5t-79.5 125t-234.5 49zM740 740v-535h50v167h139v40h-139v151h139v40
h-139v137h-50zM680 353v40q-46 -10 -171.5 -22.5t-247.5 -12.5h-101v341h-50v-381h134q163 0 276 13.5t160 21.5z" />
    <glyph glyph-name="uniB0E6" unicode="&#xb0e6;" 
 />
    <glyph glyph-name="uniB0E7" unicode="&#xb0e7;" 
 />
    <glyph glyph-name="uniB0E8" unicode="&#xb0e8;" 
 />
    <glyph glyph-name="uniB0E9" unicode="&#xb0e9;" 
 />
    <glyph glyph-name="uniB0EA" unicode="&#xb0ea;" 
 />
    <glyph glyph-name="uniB0EB" unicode="&#xb0eb;" 
 />
    <glyph glyph-name="uniB0EC" unicode="&#xb0ec;" 
 />
    <glyph glyph-name="uniB0ED" unicode="&#xb0ed;" 
 />
    <glyph glyph-name="uniB0EE" unicode="&#xb0ee;" 
 />
    <glyph glyph-name="uniB0EF" unicode="&#xb0ef;" 
 />
    <glyph glyph-name="uniB0F0" unicode="&#xb0f0;" 
 />
    <glyph glyph-name="uniB0F1" unicode="&#xb0f1;" 
 />
    <glyph glyph-name="uniB0F2" unicode="&#xb0f2;" 
 />
    <glyph glyph-name="uniB0F3" unicode="&#xb0f3;" 
 />
    <glyph glyph-name="uniB0F4" unicode="&#xb0f4;" 
 />
    <glyph glyph-name="uniB0F5" unicode="&#xb0f5;" 
 />
    <glyph glyph-name="uniB0F6" unicode="&#xb0f6;" 
 />
    <glyph glyph-name="uniB0F7" unicode="&#xb0f7;" 
 />
    <glyph glyph-name="uniB0F8" unicode="&#xb0f8;" 
 />
    <glyph glyph-name="uniB0F9" unicode="&#xb0f9;" 
 />
    <glyph glyph-name="uniB0FA" unicode="&#xb0fa;" 
 />
    <glyph glyph-name="uniB0FB" unicode="&#xb0fb;" 
 />
    <glyph glyph-name="uniB0FC" unicode="&#xb0fc;" 
 />
    <glyph glyph-name="uniB0FD" unicode="&#xb0fd;" 
 />
    <glyph glyph-name="uniB0FE" unicode="&#xb0fe;" 
 />
    <glyph glyph-name="uniB0FF" unicode="&#xb0ff;" 
 />
    <glyph glyph-name="uniB100" unicode="&#xb100;" 
 />
    <glyph glyph-name="uniB101" unicode="&#xb101;" 
 />
    <glyph glyph-name="uniB102" unicode="&#xb102;" 
 />
    <glyph glyph-name="uniB103" unicode="&#xb103;" 
 />
    <glyph glyph-name="uniB104" unicode="&#xb104;" 
 />
    <glyph glyph-name="uniB105" unicode="&#xb105;" 
 />
    <glyph glyph-name="uniB106" unicode="&#xb106;" 
 />
    <glyph glyph-name="uniB107" unicode="&#xb107;" 
 />
    <glyph glyph-name="uniB108" unicode="&#xb108;" 
d="M795 450h-300v-40h300v-550h50v880h-50v-290zM707 129v40q-46 -10 -170 -24t-218 -14h-112v525h-50v-565h138q124 0 245 15t167 23z" />
    <glyph glyph-name="uniB109" unicode="&#xb109;" 
d="M675 321v40q-46 -10 -163.5 -22.5t-239.5 -12.5h-81v370h-50v-410h114q151 0 262 13.5t158 21.5zM225 154v-40h567v-254h50v294h-617zM795 558h-300v-40h300v-313h50v535h-50v-182z" />
    <glyph glyph-name="uniB10A" unicode="&#xb10a;" 
 />
    <glyph glyph-name="uniB10B" unicode="&#xb10b;" 
d="M845 234v506h-50v-172h-300v-40h300v-294h50zM502 -140v314h-307v-40h257v-274h50zM729 40q15 -54 63.5 -106.5t91.5 -75.5l37 34q-70 40 -118.5 106.5t-48.5 176.5v20h-50v-20q0 -110 -46.5 -173.5t-122.5 -107.5l33 -35q43 23 94 75t67 106zM675 321v40
q-46 -10 -163.5 -22.5t-239.5 -12.5h-81v370h-50v-410h114q151 0 262 13.5t158 21.5z" />
    <glyph glyph-name="uniB10C" unicode="&#xb10c;" 
d="M676 292v40q-56 -10 -169 -22.5t-216 -12.5h-101v400h-50v-440h134q152 0 253.5 12.5t148.5 22.5zM245 150v-270h622v40h-572v230h-50zM795 558h-300v-40h300v-418h50v640h-50v-182z" />
    <glyph glyph-name="uniB10D" unicode="&#xb10d;" 
 />
    <glyph glyph-name="uniB10E" unicode="&#xb10e;" 
 />
    <glyph glyph-name="uniB10F" unicode="&#xb10f;" 
 />
    <glyph glyph-name="uniB110" unicode="&#xb110;" 
d="M675 350v40q-46 -10 -163.5 -22.5t-239.5 -12.5h-81v341h-50v-381h114q151 0 262 13.5t158 21.5zM795 584h-300v-40h300v-266h50v462h-50v-156zM876 -130v40h-581v119h547v195h-597v-40h547v-115h-547v-199h631z" />
    <glyph glyph-name="uniB111" unicode="&#xb111;" 
 />
    <glyph glyph-name="uniB112" unicode="&#xb112;" 
d="M615 184h177v-274h-177v274zM842 -130v354h-277v-354h277zM527 -120v40q-19 -4 -88 -7.5t-99 -3.5h-74v119h246v195h-296v-40h246v-115h-246v-200h124q30 0 99.5 4t87.5 8zM675 350v40q-46 -10 -163.5 -22.5t-239.5 -12.5h-81v341h-50v-381h114q151 0 262 13.5t158 21.5z
M795 584h-300v-40h300v-266h50v462h-50v-156z" />
    <glyph glyph-name="uniB113" unicode="&#xb113;" 
d="M610 68h182v-158h-182v158zM842 -130v354h-50v-116h-182v116h-50v-354h282zM527 -120v40q-19 -4 -88 -7.5t-99 -3.5h-74v121h246v193h-296v-40h246v-113h-246v-202h124q30 0 99.5 4t87.5 8zM675 356v40q-46 -10 -163.5 -22.5t-239.5 -12.5h-81v341h-50v-381h114
q151 0 262 13.5t158 21.5zM795 584h-300v-40h300v-266h50v462h-50v-156z" />
    <glyph glyph-name="uniB114" unicode="&#xb114;" 
 />
    <glyph glyph-name="uniB115" unicode="&#xb115;" 
 />
    <glyph glyph-name="uniB116" unicode="&#xb116;" 
 />
    <glyph glyph-name="uniB117" unicode="&#xb117;" 
 />
    <glyph glyph-name="uniB118" unicode="&#xb118;" 
d="M295 140h497v-230h-497v230zM842 -130v310h-597v-310h597zM675 329v40q-46 -10 -163.5 -22.5t-239.5 -12.5h-81v354h-50v-394h114q151 0 262 13.5t158 21.5zM795 553h-300v-40h300v-283h50v510h-50v-187z" />
    <glyph glyph-name="uniB119" unicode="&#xb119;" 
d="M295 64h497v-154h-497v154zM842 -130v344h-50v-110h-497v110h-50v-344h597zM675 347v40q-46 -10 -165.5 -22.5t-241.5 -12.5h-81v346h-50v-386h114q151 0 264 13.5t160 21.5zM795 573h-300v-40h300v-269h50v476h-50v-167z" />
    <glyph glyph-name="uniB11A" unicode="&#xb11a;" 
 />
    <glyph glyph-name="uniB11B" unicode="&#xb11b;" 
d="M675 306v40q-46 -10 -163.5 -22.5t-239.5 -12.5h-81v385h-50v-425h114q151 0 262 13.5t158 21.5zM795 558h-300v-40h300v-372h50v594h-50v-182zM578 189h-60v-12q0 -92 -90.5 -170.5t-223.5 -116.5l38 -35q76 19 177 87t129 147q29 -79 129.5 -147t176.5 -87l38 35
q-133 38 -223.5 116.5t-90.5 170.5v12z" />
    <glyph glyph-name="uniB11C" unicode="&#xb11c;" 
d="M675 327v40q-46 -10 -163.5 -22.5t-239.5 -12.5h-81v364h-50v-404h114q151 0 262 13.5t158 21.5zM795 570h-300v-40h300v-290h50v500h-50v-170zM544 -141q59 35 104.5 97t63.5 111q11 -49 62 -111.5t110 -94.5l34 31q-86 47 -133.5 123.5t-47.5 164.5v12h-50v-12
q0 -88 -45 -158.5t-99 -111.5q-54 41 -98.5 111.5t-44.5 158.5v12h-50v-12q0 -88 -47.5 -164.5t-133.5 -123.5l34 -31q59 32 110 94.5t62 111.5q18 -49 64 -112.5t105 -95.5z" />
    <glyph glyph-name="uniB11D" unicode="&#xb11d;" 
d="M536 136q117 0 194 -33.5t77 -95.5q0 -60 -77 -93.5t-194 -33.5q-118 0 -195.5 33.5t-77.5 93.5q0 62 77.5 95.5t195.5 33.5zM535 179q-155 0 -238.5 -48.5t-83.5 -122.5t83.5 -122t238.5 -48q156 0 239 48t83 122t-83 122.5t-239 48.5zM675 321v40q-46 -10 -163.5 -22.5
t-239.5 -12.5h-81v370h-50v-410h114q151 0 262 13.5t158 21.5zM795 569h-300v-40h300v-330h50v541h-50v-171z" />
    <glyph glyph-name="uniB11E" unicode="&#xb11e;" 
 />
    <glyph glyph-name="uniB11F" unicode="&#xb11f;" 
 />
    <glyph glyph-name="uniB120" unicode="&#xb120;" 
 />
    <glyph glyph-name="uniB121" unicode="&#xb121;" 
 />
    <glyph glyph-name="uniB122" unicode="&#xb122;" 
 />
    <glyph glyph-name="uniB123" unicode="&#xb123;" 
d="M675 393v40q-46 -10 -163.5 -22.5t-239.5 -12.5h-81v304h-50v-344h114q151 0 262 13.5t158 21.5zM795 604h-300v-40h300v-319h50v495h-50v-136zM537 34q105 0 170.5 -22.5t65.5 -55.5q0 -31 -65.5 -52.5t-170.5 -21.5q-106 0 -171 21.5t-65 52.5q0 33 65 55.5t171 22.5z
M537 69q-142 0 -217 -32t-75 -80q0 -49 75 -80.5t217 -31.5q143 0 217.5 31.5t74.5 80.5q0 48 -74.5 80t-217.5 32zM186 159v-40h697v40h-697zM369 270v-40h326v40h-326z" />
    <glyph glyph-name="uniB124" unicode="&#xb124;" 
d="M605 437h-200v-40h200v-497h50v820h-50v-283zM805 740v-880h50v880h-50zM547 105v39q-31 -4 -106.5 -11.5t-151.5 -7.5h-92v525h-50v-565h139q83 0 159 8t102 12z" />
    <glyph glyph-name="uniB125" unicode="&#xb125;" 
d="M230 152v-40h577v-252h50v292h-627zM610 551h-210v-40h210v-296h50v510h-50v-174zM810 740v-525h50v525h-50zM550 299v39q-32 -6 -113.5 -16t-208.5 -10h-48v383h-50v-423h123q95 0 182 11t115 16z" />
    <glyph glyph-name="uniB126" unicode="&#xb126;" 
 />
    <glyph glyph-name="uniB127" unicode="&#xb127;" 
 />
    <glyph glyph-name="uniB128" unicode="&#xb128;" 
d="M250 150v-270h630v40h-580v230h-50zM610 548h-210v-40h210v-387h50v604h-50v-177zM810 740v-645h50v645h-50zM550 286v39q-32 -6 -113.5 -16t-208.5 -10h-48v396h-50v-436h123q95 0 182 11t115 16z" />
    <glyph glyph-name="uniB129" unicode="&#xb129;" 
 />
    <glyph glyph-name="uniB12A" unicode="&#xb12a;" 
 />
    <glyph glyph-name="uniB12B" unicode="&#xb12b;" 
 />
    <glyph glyph-name="uniB12C" unicode="&#xb12c;" 
d="M884 -130v40h-584v119h557v190h-607v-40h557v-110h-557v-199h634zM610 588h-210v-40h210v-270h50v447h-50v-137zM810 740v-462h50v462h-50zM550 343v39q-32 -6 -113.5 -16t-208.5 -10h-48v339h-50v-379h123q95 0 182 11t115 16z" />
    <glyph glyph-name="uniB12D" unicode="&#xb12d;" 
 />
    <glyph glyph-name="uniB12E" unicode="&#xb12e;" 
 />
    <glyph glyph-name="uniB12F" unicode="&#xb12f;" 
 />
    <glyph glyph-name="uniB130" unicode="&#xb130;" 
 />
    <glyph glyph-name="uniB131" unicode="&#xb131;" 
 />
    <glyph glyph-name="uniB132" unicode="&#xb132;" 
 />
    <glyph glyph-name="uniB133" unicode="&#xb133;" 
 />
    <glyph glyph-name="uniB134" unicode="&#xb134;" 
d="M300 140h507v-230h-507v230zM857 -130v310h-607v-310h607zM610 566h-210v-40h210v-297h50v496h-50v-159zM810 740v-510h50v510h-50zM550 323v39q-32 -6 -113.5 -16t-208.5 -10h-48v359h-50v-399h123q95 0 182 11t115 16z" />
    <glyph glyph-name="uniB135" unicode="&#xb135;" 
d="M300 63h507v-153h-507v153zM857 -130v344h-50v-111h-507v111h-50v-344h607zM610 572h-210v-40h210v-268h50v461h-50v-153zM810 740v-476h50v476h-50zM550 336v39q-32 -6 -113.5 -16t-208.5 -10h-48v346h-50v-386h123q95 0 182 11t115 16z" />
    <glyph glyph-name="uniB136" unicode="&#xb136;" 
 />
    <glyph glyph-name="uniB137" unicode="&#xb137;" 
d="M610 553h-210v-40h210v-328h50v540h-50v-172zM810 740v-605h50v605h-50zM550 307v39q-32 -6 -113.5 -16t-208.5 -10h-48v375h-50v-415h123q95 0 182 11t115 16zM562 195h-60v-12q0 -92 -90.5 -170.5t-223.5 -116.5l38 -35q76 19 177 87t129 147q29 -79 129.5 -147
t176.5 -87l38 35q-133 38 -223.5 116.5t-90.5 170.5v12z" />
    <glyph glyph-name="uniB138" unicode="&#xb138;" 
d="M610 554h-210v-40h210v-276h50v487h-50v-171zM810 740v-502h50v502h-50zM550 314v39q-32 -6 -113.5 -16t-208.5 -10h-48v368h-50v-408h123q95 0 182 11t115 16zM550 -141q59 35 104.5 97t63.5 111q11 -49 62 -111.5t110 -94.5l34 31q-86 47 -133.5 126t-47.5 167h-50
q0 -88 -45 -161t-99 -114q-54 41 -98.5 114t-44.5 161h-50q0 -88 -47.5 -167t-133.5 -126l34 -31q59 32 110 94.5t62 111.5q18 -49 64 -112.5t105 -95.5z" />
    <glyph glyph-name="uniB139" unicode="&#xb139;" 
d="M537 136q119 0 195 -33.5t76 -95.5q0 -60 -76 -93.5t-195 -33.5q-121 0 -196 33.5t-75 93.5q0 62 75 95.5t196 33.5zM537 179q-158 0 -241 -48.5t-83 -122.5t83 -122t241 -48q159 0 241.5 48t82.5 122t-82.5 122.5t-241.5 48.5zM610 564h-210v-40h210v-289h50v490h-50
v-161zM810 740v-538h50v538h-50zM550 314v39q-32 -6 -113.5 -16t-208.5 -10h-48v368h-50v-408h123q95 0 182 11t115 16z" />
    <glyph glyph-name="uniB13A" unicode="&#xb13a;" 
 />
    <glyph glyph-name="uniB13B" unicode="&#xb13b;" 
 />
    <glyph glyph-name="uniB13C" unicode="&#xb13c;" 
 />
    <glyph glyph-name="uniB13D" unicode="&#xb13d;" 
 />
    <glyph glyph-name="uniB13E" unicode="&#xb13e;" 
 />
    <glyph glyph-name="uniB13F" unicode="&#xb13f;" 
 />
    <glyph glyph-name="uniB140" unicode="&#xb140;" 
d="M790 544h-280v-40h280v-158h-280v-40h280v-446h50v880h-50v-196zM691 129v40q-46 -10 -170 -24t-218 -14h-103v525h-50v-565h129q124 0 245 15t167 23z" />
    <glyph glyph-name="uniB141" unicode="&#xb141;" 
d="M225 144v-40h567v-244h50v284h-617zM795 478h-290v-40h290v-243h50v545h-50v-118h-290v-40h290v-104zM675 295v40q-46 -10 -163.5 -22.5t-239.5 -12.5h-81v396h-50v-436h114q151 0 262 13.5t158 21.5z" />
    <glyph glyph-name="uniB142" unicode="&#xb142;" 
 />
    <glyph glyph-name="uniB143" unicode="&#xb143;" 
 />
    <glyph glyph-name="uniB144" unicode="&#xb144;" 
d="M245 150v-270h630v40h-580v230h-50zM795 471h-290v-40h290v-331h50v640h-50v-114h-290v-40h290v-115zM676 274v40q-56 -10 -169 -22.5t-216 -12.5h-101v418h-50v-458h134q152 0 253.5 12.5t148.5 22.5z" />
    <glyph glyph-name="uniB145" unicode="&#xb145;" 
 />
    <glyph glyph-name="uniB146" unicode="&#xb146;" 
 />
    <glyph glyph-name="uniB147" unicode="&#xb147;" 
 />
    <glyph glyph-name="uniB148" unicode="&#xb148;" 
d="M795 499h-290v-40h290v-191h50v472h-50v-108h-290v-40h290v-93zM882 -130v40h-587v116h547v188h-597v-40h547v-108h-547v-196h637zM676 331v40q-56 -10 -169 -22.5t-216 -12.5h-101v361h-50v-401h134q152 0 253.5 12.5t148.5 22.5z" />
    <glyph glyph-name="uniB149" unicode="&#xb149;" 
 />
    <glyph glyph-name="uniB14A" unicode="&#xb14a;" 
 />
    <glyph glyph-name="uniB14B" unicode="&#xb14b;" 
 />
    <glyph glyph-name="uniB14C" unicode="&#xb14c;" 
 />
    <glyph glyph-name="uniB14D" unicode="&#xb14d;" 
 />
    <glyph glyph-name="uniB14E" unicode="&#xb14e;" 
 />
    <glyph glyph-name="uniB14F" unicode="&#xb14f;" 
 />
    <glyph glyph-name="uniB150" unicode="&#xb150;" 
d="M295 125h497v-215h-497v215zM842 -130v295h-597v-295h597zM795 490h-290v-40h290v-230h50v520h-50v-106h-290v-40h290v-104zM676 305v40q-56 -10 -169 -22.5t-216 -12.5h-101v387h-50v-427h134q152 0 253.5 12.5t148.5 22.5z" />
    <glyph glyph-name="uniB151" unicode="&#xb151;" 
d="M295 57h497v-147h-497v147zM842 -130v336h-50v-109h-497v109h-50v-336h597zM795 501h-290v-40h290v-205h50v484h-50v-104h-290v-40h290v-95zM676 328v40q-56 -10 -169 -22.5t-216 -12.5h-101v364h-50v-404h134q152 0 253.5 12.5t148.5 22.5z" />
    <glyph glyph-name="uniB152" unicode="&#xb152;" 
 />
    <glyph glyph-name="uniB153" unicode="&#xb153;" 
 />
    <glyph glyph-name="uniB154" unicode="&#xb154;" 
d="M795 484h-290v-40h290v-221h50v517h-50v-111h-290v-40h290v-105zM676 308v40q-56 -10 -169 -22.5t-216 -12.5h-101v384h-50v-424h134q152 0 253.5 12.5t148.5 22.5zM544 -141q59 35 104.5 97t63.5 111q11 -49 62 -111.5t110 -94.5l34 31q-86 47 -133.5 126t-47.5 167h-50
q0 -88 -45 -161t-99 -114q-54 41 -98.5 114t-44.5 161h-50q0 -88 -47.5 -167t-133.5 -126l34 -31q59 32 110 94.5t62 111.5q18 -49 64 -112.5t105 -95.5z" />
    <glyph glyph-name="uniB155" unicode="&#xb155;" 
d="M795 487h-290v-40h290v-238h50v531h-50v-111h-290v-40h290v-102zM530 136q117 0 194 -33.5t77 -95.5q0 -60 -77 -93.5t-194 -33.5q-118 0 -195.5 33.5t-77.5 93.5q0 62 77.5 95.5t195.5 33.5zM529 179q-155 0 -238.5 -48.5t-83.5 -122.5t83.5 -122t238.5 -48
q156 0 239 48t83 122t-83 122.5t-239 48.5zM676 308v40q-56 -10 -169 -22.5t-216 -12.5h-101v384h-50v-424h134q152 0 253.5 12.5t148.5 22.5z" />
    <glyph glyph-name="uniB156" unicode="&#xb156;" 
 />
    <glyph glyph-name="uniB157" unicode="&#xb157;" 
 />
    <glyph glyph-name="uniB158" unicode="&#xb158;" 
d="M795 493h-290v-40h290v-229h50v516h-50v-111h-290v-40h290v-96zM792 -2v-138h50v311h-617v-40h567v-93q-37 -5 -89 -7.5t-113 -4.5q-76 -2 -194.5 -2h-141.5v-40h131t202 2q70 2 119.5 4.5t85.5 7.5zM676 314v40q-56 -10 -169 -22.5t-216 -12.5h-101v380h-50v-420h134
q152 0 253.5 12.5t148.5 22.5z" />
    <glyph glyph-name="uniB159" unicode="&#xb159;" 
 />
    <glyph glyph-name="uniB15A" unicode="&#xb15a;" 
 />
    <glyph glyph-name="uniB15B" unicode="&#xb15b;" 
 />
    <glyph glyph-name="uniB15C" unicode="&#xb15c;" 
d="M616 530h-190v-40h190v-153h-190v-40h190v-397h50v820h-50v-190zM810 740v-880h50v880h-50zM547 105v39q-31 -4 -106.5 -11.5t-151.5 -7.5h-92v525h-50v-565h139q83 0 159 8t102 12z" />
    <glyph glyph-name="uniB15D" unicode="&#xb15d;" 
 />
    <glyph glyph-name="uniB15E" unicode="&#xb15e;" 
 />
    <glyph glyph-name="uniB15F" unicode="&#xb15f;" 
 />
    <glyph glyph-name="uniB160" unicode="&#xb160;" 
d="M250 150v-270h630v40h-580v230h-50zM622 456h-200v-40h200v-311h50v621h-50v-114h-200v-40h200v-116zM810 740v-645h50v645h-50zM547 266v39q-32 -6 -113.5 -16t-208.5 -10h-48v416h-50v-456h123q95 0 182 11t115 16z" />
    <glyph glyph-name="uniB161" unicode="&#xb161;" 
 />
    <glyph glyph-name="uniB162" unicode="&#xb162;" 
 />
    <glyph glyph-name="uniB163" unicode="&#xb163;" 
 />
    <glyph glyph-name="uniB164" unicode="&#xb164;" 
 />
    <glyph glyph-name="uniB165" unicode="&#xb165;" 
 />
    <glyph glyph-name="uniB166" unicode="&#xb166;" 
 />
    <glyph glyph-name="uniB167" unicode="&#xb167;" 
 />
    <glyph glyph-name="uniB168" unicode="&#xb168;" 
 />
    <glyph glyph-name="uniB169" unicode="&#xb169;" 
 />
    <glyph glyph-name="uniB16A" unicode="&#xb16a;" 
 />
    <glyph glyph-name="uniB16B" unicode="&#xb16b;" 
 />
    <glyph glyph-name="uniB16C" unicode="&#xb16c;" 
 />
    <glyph glyph-name="uniB16D" unicode="&#xb16d;" 
 />
    <glyph glyph-name="uniB16E" unicode="&#xb16e;" 
 />
    <glyph glyph-name="uniB16F" unicode="&#xb16f;" 
 />
    <glyph glyph-name="uniB170" unicode="&#xb170;" 
 />
    <glyph glyph-name="uniB171" unicode="&#xb171;" 
 />
    <glyph glyph-name="uniB172" unicode="&#xb172;" 
 />
    <glyph glyph-name="uniB173" unicode="&#xb173;" 
 />
    <glyph glyph-name="uniB174" unicode="&#xb174;" 
 />
    <glyph glyph-name="uniB175" unicode="&#xb175;" 
 />
    <glyph glyph-name="uniB176" unicode="&#xb176;" 
 />
    <glyph glyph-name="uniB177" unicode="&#xb177;" 
 />
    <glyph glyph-name="uniB178" unicode="&#xb178;" 
d="M472 281v-249h-412v-40h880v40h-418v249h308v40h-590v363h-50v-403h282z" />
    <glyph glyph-name="uniB179" unicode="&#xb179;" 
d="M172 114v-40h593v-214h50v254h-643zM475 449v-165h-415v-40h880v40h-415v165h300v40h-590v241h-50v-281h290z" />
    <glyph glyph-name="uniB17A" unicode="&#xb17a;" 
 />
    <glyph glyph-name="uniB17B" unicode="&#xb17b;" 
 />
    <glyph glyph-name="uniB17C" unicode="&#xb17c;" 
d="M525 251v185h300v40h-590v254h-50v-294h290v-185h-415v-40h880v40h-415zM185 142v-262h660v40h-610v222h-50z" />
    <glyph glyph-name="uniB17D" unicode="&#xb17d;" 
 />
    <glyph glyph-name="uniB17E" unicode="&#xb17e;" 
 />
    <glyph glyph-name="uniB17F" unicode="&#xb17f;" 
 />
    <glyph glyph-name="uniB180" unicode="&#xb180;" 
d="M525 349v142h300v40h-590v199h-50v-239h290v-142h-415v-40h880v40h-415zM838 -130v40h-603v117h580v185h-630v-40h580v-105h-580v-197h653z" />
    <glyph glyph-name="uniB181" unicode="&#xb181;" 
 />
    <glyph glyph-name="uniB182" unicode="&#xb182;" 
d="M574 174h201v-264h-201v264zM825 -130v344h-301v-344h301zM487 -118v40q-19 -4 -74.5 -7.5t-85.5 -3.5h-101v114h251v187h-301v-40h251v-107h-251v-195h151q30 0 86 4t74 8zM525 349v142h300v40h-590v199h-50v-239h290v-142h-415v-40h880v40h-415z" />
    <glyph glyph-name="uniB183" unicode="&#xb183;" 
 />
    <glyph glyph-name="uniB184" unicode="&#xb184;" 
 />
    <glyph glyph-name="uniB185" unicode="&#xb185;" 
 />
    <glyph glyph-name="uniB186" unicode="&#xb186;" 
 />
    <glyph glyph-name="uniB187" unicode="&#xb187;" 
 />
    <glyph glyph-name="uniB188" unicode="&#xb188;" 
d="M235 -90v210h530v-210h-530zM185 -130h630v290h-630v-290zM525 310v164h300v40h-590v216h-50v-256h290v-164h-415v-40h880v40h-415z" />
    <glyph glyph-name="uniB189" unicode="&#xb189;" 
d="M235 -90v157h530v-157h-530zM185 -130h630v344h-50v-107h-530v107h-50v-344zM522 321v163h303v40h-590v206h-50v-246h287v-163h-412v-40h880v40h-418z" />
    <glyph glyph-name="uniB18A" unicode="&#xb18a;" 
 />
    </font>
</defs>
</svg>
